<svg width="142" height="24" viewBox="0 0 142 24" fill="none" xmlns="http://www.w3.org/2000/svg">
<g clip-path="url(#clip0_1_465)">
<path d="M-9 12C-3 6.66667 3 6.66667 9 12C15 17.3333 21 17.3333 27 12C33 6.66667 39 6.66667 45 12C51 17.3333 57 17.3333 63 12C69 6.66667 75 6.66667 81 12C87 17.3333 93 17.3333 99 12C105 6.66667 111 6.66667 117 12C123 17.3333 129 17.3333 135 12C141 6.66667 147 6.66667 153 12C159 17.3333 165 17.3333 171 12" stroke="#4543E8" stroke-width="2"/>
</g>
<path d="M97.048 4.2C97.7787 4.2 98.3973 4.30133 98.904 4.504C99.416 4.70133 99.8053 5.008 100.072 5.424C100.344 5.84 100.48 6.368 100.48 7.008C100.48 7.616 100.355 8.12533 100.104 8.536C99.8587 8.94133 99.5413 9.25067 99.152 9.464C98.768 9.672 98.368 9.78667 97.952 9.808C98.4053 9.81867 98.8453 9.92267 99.272 10.12C99.6987 10.312 100.048 10.6213 100.32 11.048C100.597 11.4693 100.736 12.032 100.736 12.736C100.736 13.424 100.597 14.0133 100.32 14.504C100.048 14.9893 99.6347 15.36 99.08 15.616C98.5253 15.872 97.8267 16 96.984 16H93.128V4.2H97.048ZM94.448 9.72L93.984 9.256H96.408C97.2613 9.256 97.9253 9.08533 98.4 8.744C98.8747 8.39733 99.112 7.888 99.112 7.216C99.112 6.768 99.0133 6.41333 98.816 6.152C98.6187 5.88533 98.3387 5.69333 97.976 5.576C97.6187 5.45867 97.2 5.4 96.72 5.4H93.832L94.448 4.624V9.72ZM96.72 14.8C97.5307 14.8 98.1707 14.6213 98.64 14.264C99.1093 13.9067 99.344 13.3733 99.344 12.664C99.344 12.232 99.2667 11.8747 99.112 11.592C98.9573 11.304 98.7467 11.0773 98.48 10.912C98.2133 10.7467 97.9067 10.6293 97.56 10.56C97.2187 10.4853 96.8587 10.448 96.48 10.448H93.984L94.448 9.984V15.576L93.832 14.8H96.72ZM104.847 16V4.2H106.215V15.576L105.599 14.8H110.871V16H104.847ZM118.137 16.16C117.449 16.16 116.817 16.024 116.241 15.752C115.671 15.48 115.172 15.0853 114.745 14.568C114.324 14.0453 113.996 13.408 113.761 12.656C113.532 11.904 113.417 11.048 113.417 10.088C113.417 9.128 113.532 8.27467 113.761 7.528C113.996 6.776 114.324 6.144 114.745 5.632C115.172 5.11467 115.673 4.72267 116.249 4.456C116.825 4.18933 117.455 4.056 118.137 4.056C118.825 4.056 119.457 4.18933 120.033 4.456C120.609 4.72267 121.108 5.11467 121.529 5.632C121.956 6.144 122.284 6.776 122.513 7.528C122.748 8.27467 122.865 9.128 122.865 10.088C122.865 11.048 122.748 11.904 122.513 12.656C122.284 13.408 121.956 14.0453 121.529 14.568C121.108 15.0853 120.609 15.48 120.033 15.752C119.457 16.024 118.825 16.16 118.137 16.16ZM118.137 14.928C118.793 14.928 119.372 14.7493 119.873 14.392C120.375 14.0347 120.767 13.4987 121.049 12.784C121.332 12.064 121.473 11.1653 121.473 10.088C121.473 9.00533 121.329 8.10933 121.041 7.4C120.759 6.69067 120.367 6.16267 119.865 5.816C119.364 5.46933 118.788 5.296 118.137 5.296C117.492 5.296 116.916 5.46933 116.409 5.816C115.908 6.16267 115.513 6.69067 115.225 7.4C114.943 8.10933 114.801 9.00533 114.801 10.088C114.801 11.1707 114.943 12.072 115.225 12.792C115.513 13.5067 115.908 14.0427 116.409 14.4C116.916 14.752 117.492 14.928 118.137 14.928ZM131.24 16.16C130.36 16.16 129.56 15.92 128.84 15.44C128.12 14.96 127.547 14.2693 127.12 13.368C126.693 12.4667 126.48 11.3813 126.48 10.112C126.48 8.84267 126.696 7.75733 127.128 6.856C127.56 5.95467 128.144 5.264 128.88 4.784C129.621 4.29867 130.451 4.056 131.368 4.056C132.115 4.056 132.747 4.18667 133.264 4.448C133.787 4.704 134.211 5.03733 134.536 5.448C134.867 5.85333 135.107 6.28533 135.256 6.744C135.405 7.19733 135.48 7.624 135.48 8.024C135.48 8.04 135.48 8.056 135.48 8.072C135.48 8.088 135.48 8.104 135.48 8.12H134.152C134.152 8.104 134.152 8.088 134.152 8.072C134.152 8.056 134.152 8.04 134.152 8.024C134.152 7.704 134.096 7.384 133.984 7.064C133.877 6.73867 133.709 6.44533 133.48 6.184C133.251 5.91733 132.96 5.704 132.608 5.544C132.261 5.384 131.848 5.304 131.368 5.304C130.723 5.304 130.133 5.48 129.6 5.832C129.072 6.184 128.648 6.71733 128.328 7.432C128.013 8.14133 127.856 9.03467 127.856 10.112C127.856 10.9387 127.944 11.656 128.12 12.264C128.296 12.8667 128.539 13.3653 128.848 13.76C129.157 14.1547 129.517 14.448 129.928 14.64C130.344 14.832 130.792 14.928 131.272 14.928C131.907 14.928 132.427 14.8187 132.832 14.6C133.243 14.3813 133.56 14.1093 133.784 13.784C134.008 13.4533 134.152 13.128 134.216 12.808V11.568H131.328V10.424H135.448V16H134.432L134.36 14.688C134.317 14.768 134.229 14.888 134.096 15.048C133.963 15.208 133.773 15.3733 133.528 15.544C133.288 15.7147 132.979 15.8613 132.6 15.984C132.221 16.1013 131.768 16.16 131.24 16.16Z" fill="#4543E8"/>
<defs>
<clipPath id="clip0_1_465">
<rect width="72" height="10" fill="white" transform="translate(0 7)"/>
</clipPath>
</defs>
</svg>
