<svg width="328" height="24" viewBox="0 0 328 24" fill="none" xmlns="http://www.w3.org/2000/svg">
<g clip-path="url(#clip0_1_278)">
<path d="M-8 12C-2 6.66667 4 6.66667 10 12C16 17.3333 22 17.3333 28 12C34 6.66667 40 6.66667 46 12C52 17.3333 58 17.3333 64 12C70 6.66667 76 6.66667 82 12C88 17.3333 94 17.3333 100 12C106 6.66667 112 6.66667 118 12C124 17.3333 130 17.3333 136 12C142 6.66667 148 6.66667 154 12C160 17.3333 166 17.3333 172 12" stroke="#4543E8" stroke-width="2"/>
</g>
<g clip-path="url(#clip1_1_278)">
<path d="M247 12C253 6.66667 259 6.66667 265 12C271 17.3333 277 17.3333 283 12C289 6.66667 295 6.66667 301 12C307 17.3333 313 17.3333 319 12C325 6.66667 331 6.66667 337 12C343 17.3333 349 17.3333 355 12C361 6.66667 367 6.66667 373 12C379 17.3333 385 17.3333 391 12C397 6.66667 403 6.66667 409 12C415 17.3333 421 17.3333 427 12" stroke="#4543E8" stroke-width="2"/>
</g>
<path d="M101.168 5.4H97.76L98.072 4.624V16H96.712V4.624L97.096 5.4H93.624V4.2H101.168V5.4ZM105.677 5.4L106.293 4.624V9.952L105.957 9.48H110.485V10.68H105.957L106.293 10.208V15.576L105.677 14.8H111.373V16H104.925V4.2H111.373V5.4H105.677ZM119.196 16.16C118.38 16.16 117.681 16.032 117.1 15.776C116.524 15.5147 116.081 15.1227 115.772 14.6C115.463 14.0773 115.308 13.4267 115.308 12.648C115.308 12.5413 115.308 12.4507 115.308 12.376C115.308 12.3013 115.308 12.2107 115.308 12.104H116.676C116.676 12.2053 116.676 12.2907 116.676 12.36C116.676 12.4293 116.676 12.5173 116.676 12.624C116.676 13.44 116.889 14.0293 117.316 14.392C117.743 14.7493 118.364 14.928 119.18 14.928C120.023 14.928 120.66 14.784 121.092 14.496C121.524 14.208 121.74 13.7413 121.74 13.096C121.74 12.6427 121.615 12.2667 121.364 11.968C121.119 11.664 120.777 11.408 120.34 11.2C119.903 10.9867 119.393 10.792 118.812 10.616C118.156 10.4133 117.569 10.1573 117.052 9.848C116.54 9.53867 116.135 9.15733 115.836 8.704C115.543 8.24533 115.396 7.688 115.396 7.032C115.396 6.392 115.551 5.85067 115.86 5.408C116.175 4.96533 116.612 4.62933 117.172 4.4C117.732 4.17067 118.383 4.056 119.124 4.056C119.908 4.056 120.588 4.17867 121.164 4.424C121.745 4.664 122.193 5.032 122.508 5.528C122.828 6.01867 122.988 6.63733 122.988 7.384C122.988 7.50133 122.988 7.60267 122.988 7.688C122.988 7.768 122.988 7.86667 122.988 7.984H121.62C121.62 7.88267 121.62 7.792 121.62 7.712C121.62 7.632 121.62 7.54133 121.62 7.44C121.62 6.66133 121.409 6.10933 120.988 5.784C120.567 5.45333 119.953 5.288 119.148 5.288C118.375 5.288 117.777 5.424 117.356 5.696C116.935 5.968 116.724 6.41333 116.724 7.032C116.724 7.496 116.852 7.88 117.108 8.184C117.369 8.48267 117.724 8.73867 118.172 8.952C118.62 9.16 119.132 9.36 119.708 9.552C120.407 9.78133 121.007 10.0427 121.508 10.336C122.015 10.624 122.401 10.984 122.668 11.416C122.94 11.848 123.076 12.392 123.076 13.048C123.076 13.704 122.919 14.264 122.604 14.728C122.295 15.192 121.849 15.5467 121.268 15.792C120.692 16.0373 120.001 16.16 119.196 16.16ZM134.059 5.4H130.651L130.963 4.624V16H129.603V4.624L129.987 5.4H126.515V4.2H134.059V5.4ZM137.872 16V4.2H139.216V16H137.872ZM151.814 4.2H154.166V16H152.87V5.288L152.91 5.304L149.902 16H147.95L144.926 5.296L144.966 5.28V16H143.67V4.2H146.022L148.918 14.904H148.902L151.814 4.2ZM162.966 16.16C162.278 16.16 161.646 16.024 161.07 15.752C160.499 15.48 160 15.0853 159.574 14.568C159.152 14.0453 158.824 13.408 158.59 12.656C158.36 11.904 158.246 11.048 158.246 10.088C158.246 9.128 158.36 8.27467 158.59 7.528C158.824 6.776 159.152 6.144 159.574 5.632C160 5.11467 160.502 4.72267 161.078 4.456C161.654 4.18933 162.283 4.056 162.966 4.056C163.654 4.056 164.286 4.18933 164.862 4.456C165.438 4.72267 165.936 5.11467 166.358 5.632C166.784 6.144 167.112 6.776 167.342 7.528C167.576 8.27467 167.694 9.128 167.694 10.088C167.694 11.048 167.576 11.904 167.342 12.656C167.112 13.408 166.784 14.0453 166.358 14.568C165.936 15.0853 165.438 15.48 164.862 15.752C164.286 16.024 163.654 16.16 162.966 16.16ZM162.966 14.928C163.622 14.928 164.2 14.7493 164.702 14.392C165.203 14.0347 165.595 13.4987 165.878 12.784C166.16 12.064 166.302 11.1653 166.302 10.088C166.302 9.00533 166.158 8.10933 165.87 7.4C165.587 6.69067 165.195 6.16267 164.694 5.816C164.192 5.46933 163.616 5.296 162.966 5.296C162.32 5.296 161.744 5.46933 161.238 5.816C160.736 6.16267 160.342 6.69067 160.054 7.4C159.771 8.10933 159.63 9.00533 159.63 10.088C159.63 11.1707 159.771 12.072 160.054 12.792C160.342 13.5067 160.736 14.0427 161.238 14.4C161.744 14.752 162.32 14.928 162.966 14.928ZM172.956 16H171.628V4.2H173.86L178.868 15.216L178.764 15.28V4.2H180.092V16H177.828L172.836 5L172.956 4.944V16ZM184.403 16V4.2H185.747V16H184.403ZM189.437 16L192.685 4.168H194.813L198.036 16H196.629L193.741 5.056H193.757L190.845 16H189.437ZM191.117 12.872V11.672H196.381V12.872H191.117ZM201.659 16V4.2H203.027V15.576L202.411 14.8H207.683V16H201.659ZM215.071 16.16C214.255 16.16 213.556 16.032 212.975 15.776C212.399 15.5147 211.956 15.1227 211.647 14.6C211.338 14.0773 211.183 13.4267 211.183 12.648C211.183 12.5413 211.183 12.4507 211.183 12.376C211.183 12.3013 211.183 12.2107 211.183 12.104H212.551C212.551 12.2053 212.551 12.2907 212.551 12.36C212.551 12.4293 212.551 12.5173 212.551 12.624C212.551 13.44 212.764 14.0293 213.191 14.392C213.618 14.7493 214.239 14.928 215.055 14.928C215.898 14.928 216.535 14.784 216.967 14.496C217.399 14.208 217.615 13.7413 217.615 13.096C217.615 12.6427 217.49 12.2667 217.239 11.968C216.994 11.664 216.652 11.408 216.215 11.2C215.778 10.9867 215.268 10.792 214.687 10.616C214.031 10.4133 213.444 10.1573 212.927 9.848C212.415 9.53867 212.01 9.15733 211.711 8.704C211.418 8.24533 211.271 7.688 211.271 7.032C211.271 6.392 211.426 5.85067 211.735 5.408C212.05 4.96533 212.487 4.62933 213.047 4.4C213.607 4.17067 214.258 4.056 214.999 4.056C215.783 4.056 216.463 4.17867 217.039 4.424C217.62 4.664 218.068 5.032 218.383 5.528C218.703 6.01867 218.863 6.63733 218.863 7.384C218.863 7.50133 218.863 7.60267 218.863 7.688C218.863 7.768 218.863 7.86667 218.863 7.984H217.495C217.495 7.88267 217.495 7.792 217.495 7.712C217.495 7.632 217.495 7.54133 217.495 7.44C217.495 6.66133 217.284 6.10933 216.863 5.784C216.442 5.45333 215.828 5.288 215.023 5.288C214.25 5.288 213.652 5.424 213.231 5.696C212.81 5.968 212.599 6.41333 212.599 7.032C212.599 7.496 212.727 7.88 212.983 8.184C213.244 8.48267 213.599 8.73867 214.047 8.952C214.495 9.16 215.007 9.36 215.583 9.552C216.282 9.78133 216.882 10.0427 217.383 10.336C217.89 10.624 218.276 10.984 218.543 11.416C218.815 11.848 218.951 12.392 218.951 13.048C218.951 13.704 218.794 14.264 218.479 14.728C218.17 15.192 217.724 15.5467 217.143 15.792C216.567 16.0373 215.876 16.16 215.071 16.16Z" fill="#4543E8"/>
<defs>
<clipPath id="clip0_1_278">
<rect width="72" height="10" fill="white" transform="translate(1 7)"/>
</clipPath>
<clipPath id="clip1_1_278">
<rect width="72" height="10" fill="white" transform="translate(256 7)"/>
</clipPath>
</defs>
</svg>
