<svg width="1440" height="336" viewBox="0 0 1440 336" fill="none" xmlns="http://www.w3.org/2000/svg">
<g clip-path="url(#clip0_1_572)">
<path d="M71 106C77 100.667 83 100.667 89 106C95 111.333 101 111.333 107 106C113 100.667 119 100.667 125 106C131 111.333 137 111.333 143 106C149 100.667 155 100.667 161 106C167 111.333 173 111.333 179 106C185 100.667 191 100.667 197 106C203 111.333 209 111.333 215 106C221 100.667 227 100.667 233 106C239 111.333 245 111.333 251 106" stroke="#D8D8EB" stroke-width="2"/>
</g>
<path d="M181.792 107.896C181.792 108.371 181.704 108.859 181.528 109.36C181.352 109.856 181.085 110.317 180.728 110.744C180.376 111.165 179.931 111.507 179.392 111.768C178.853 112.029 178.221 112.16 177.496 112.16C176.499 112.16 175.651 111.901 174.952 111.384C174.253 110.861 173.72 110.144 173.352 109.232C172.989 108.32 172.808 107.277 172.808 106.104C172.808 104.925 172.989 103.883 173.352 102.976C173.72 102.064 174.253 101.349 174.952 100.832C175.651 100.315 176.499 100.056 177.496 100.056C178.328 100.056 179.037 100.227 179.624 100.568C180.211 100.909 180.677 101.344 181.024 101.872C181.371 102.4 181.597 102.944 181.704 103.504C181.763 103.787 181.792 104.053 181.792 104.304H180.424C180.424 104.16 180.411 103.995 180.384 103.808C180.32 103.36 180.165 102.947 179.92 102.568C179.68 102.184 179.357 101.877 178.952 101.648C178.547 101.413 178.061 101.296 177.496 101.296C176.835 101.296 176.256 101.477 175.76 101.84C175.269 102.203 174.885 102.741 174.608 103.456C174.336 104.171 174.2 105.053 174.2 106.104C174.2 107.155 174.336 108.04 174.608 108.76C174.885 109.475 175.269 110.016 175.76 110.384C176.256 110.747 176.835 110.928 177.496 110.928C177.971 110.928 178.389 110.843 178.752 110.672C179.115 110.496 179.419 110.264 179.664 109.976C179.915 109.683 180.104 109.357 180.232 109C180.36 108.637 180.424 108.269 180.424 107.896H181.792ZM188.122 112.16C187.434 112.16 186.802 112.024 186.226 111.752C185.655 111.48 185.156 111.085 184.73 110.568C184.308 110.045 183.98 109.408 183.746 108.656C183.516 107.904 183.402 107.048 183.402 106.088C183.402 105.128 183.516 104.275 183.746 103.528C183.98 102.776 184.308 102.144 184.73 101.632C185.156 101.115 185.658 100.723 186.234 100.456C186.81 100.189 187.439 100.056 188.122 100.056C188.81 100.056 189.442 100.189 190.018 100.456C190.594 100.723 191.092 101.115 191.514 101.632C191.94 102.144 192.268 102.776 192.498 103.528C192.732 104.275 192.85 105.128 192.85 106.088C192.85 107.048 192.732 107.904 192.498 108.656C192.268 109.408 191.94 110.045 191.514 110.568C191.092 111.085 190.594 111.48 190.018 111.752C189.442 112.024 188.81 112.16 188.122 112.16ZM188.122 110.928C188.778 110.928 189.356 110.749 189.858 110.392C190.359 110.035 190.751 109.499 191.034 108.784C191.316 108.064 191.458 107.165 191.458 106.088C191.458 105.005 191.314 104.109 191.026 103.4C190.743 102.691 190.351 102.163 189.85 101.816C189.348 101.469 188.772 101.296 188.122 101.296C187.476 101.296 186.9 101.469 186.394 101.816C185.892 102.163 185.498 102.691 185.21 103.4C184.927 104.109 184.786 105.005 184.786 106.088C184.786 107.171 184.927 108.072 185.21 108.792C185.498 109.507 185.892 110.043 186.394 110.4C186.9 110.752 187.476 110.928 188.122 110.928ZM196.112 112H194.784V100.2H197.016L202.024 111.216L201.92 111.28V100.2H203.248V112H200.984L195.992 101L196.112 100.944V112ZM212.543 101.4H209.135L209.447 100.624V112H208.087V100.624L208.471 101.4H204.999V100.2H212.543V101.4ZM212.343 112L215.591 100.168H217.719L220.943 112H219.535L216.647 101.056H216.663L213.751 112H212.343ZM214.023 108.872V107.672H219.287V108.872H214.023ZM230.823 107.896C230.823 108.371 230.735 108.859 230.559 109.36C230.383 109.856 230.117 110.317 229.759 110.744C229.407 111.165 228.962 111.507 228.423 111.768C227.885 112.029 227.253 112.16 226.527 112.16C225.53 112.16 224.682 111.901 223.983 111.384C223.285 110.861 222.751 110.144 222.383 109.232C222.021 108.32 221.839 107.277 221.839 106.104C221.839 104.925 222.021 103.883 222.383 102.976C222.751 102.064 223.285 101.349 223.983 100.832C224.682 100.315 225.53 100.056 226.527 100.056C227.359 100.056 228.069 100.227 228.655 100.568C229.242 100.909 229.709 101.344 230.055 101.872C230.402 102.4 230.629 102.944 230.735 103.504C230.794 103.787 230.823 104.053 230.823 104.304H229.455C229.455 104.16 229.442 103.995 229.415 103.808C229.351 103.36 229.197 102.947 228.951 102.568C228.711 102.184 228.389 101.877 227.983 101.648C227.578 101.413 227.093 101.296 226.527 101.296C225.866 101.296 225.287 101.477 224.791 101.84C224.301 102.203 223.917 102.741 223.639 103.456C223.367 104.171 223.231 105.053 223.231 106.104C223.231 107.155 223.367 108.04 223.639 108.76C223.917 109.475 224.301 110.016 224.791 110.384C225.287 110.747 225.866 110.928 226.527 110.928C227.002 110.928 227.421 110.843 227.783 110.672C228.146 110.496 228.45 110.264 228.695 109.976C228.946 109.683 229.135 109.357 229.263 109C229.391 108.637 229.455 108.269 229.455 107.896H230.823ZM238.809 101.4H235.401L235.713 100.624V112H234.353V100.624L234.737 101.4H231.265V100.2H238.809V101.4Z" fill="white"/>
<path d="M-124.74 149.75V194H-129.87V171.62L-127.56 174.17H-151.95L-149.64 171.62V194H-154.77V149.75H-149.64V172.37L-151.95 169.67H-127.56L-129.87 172.37V149.75H-124.74ZM-104.784 194.6C-107.204 194.6 -109.324 194.22 -111.144 193.46C-112.944 192.7 -114.344 191.61 -115.344 190.19C-116.344 188.75 -116.844 187.03 -116.844 185.03C-116.844 182.95 -116.304 181.22 -115.224 179.84C-114.144 178.44 -112.624 177.35 -110.664 176.57C-108.704 175.79 -106.424 175.27 -103.824 175.01C-99.9039 174.61 -97.1139 174.22 -95.4539 173.84C-93.7939 173.44 -92.9639 172.8 -92.9639 171.92C-92.9639 171.9 -92.9639 171.89 -92.9639 171.89C-92.9639 171.87 -92.9639 171.85 -92.9639 171.83C-92.9639 169.99 -93.7139 168.62 -95.2139 167.72C-96.7139 166.8 -98.8839 166.34 -101.724 166.34C-104.684 166.34 -106.984 166.86 -108.624 167.9C-110.264 168.92 -111.084 170.58 -111.084 172.88H-116.124C-116.124 170.5 -115.514 168.48 -114.294 166.82C-113.074 165.14 -111.384 163.86 -109.224 162.98C-107.044 162.1 -104.534 161.66 -101.694 161.66C-99.0939 161.66 -96.7539 162.06 -94.6739 162.86C-92.5739 163.64 -90.9139 164.81 -89.6939 166.37C-88.4539 167.91 -87.8339 169.82 -87.8339 172.1C-87.8339 172.52 -87.8339 172.94 -87.8339 173.36C-87.8339 173.76 -87.8339 174.17 -87.8339 174.59V188C-87.8339 188.7 -87.8039 189.38 -87.7439 190.04C-87.6839 190.7 -87.5839 191.28 -87.4439 191.78C-87.2639 192.38 -87.0639 192.87 -86.8439 193.25C-86.6239 193.61 -86.4439 193.86 -86.3039 194H-91.4339C-91.5339 193.9 -91.6839 193.67 -91.8839 193.31C-92.0839 192.93 -92.2739 192.49 -92.4539 191.99C-92.5939 191.59 -92.7039 191.09 -92.7839 190.49C-92.8639 189.87 -92.9039 189.23 -92.9039 188.57L-92.0639 189.14C-92.6839 190.22 -93.5939 191.17 -94.7939 191.99C-95.9739 192.81 -97.4039 193.45 -99.0839 193.91C-100.764 194.37 -102.664 194.6 -104.784 194.6ZM-103.974 190.01C-101.914 190.01 -100.054 189.7 -98.3939 189.08C-96.7339 188.44 -95.4139 187.5 -94.4339 186.26C-93.4539 185.02 -92.9639 183.48 -92.9639 181.64V175.31L-91.8239 177.23C-93.1039 177.73 -94.7039 178.14 -96.6239 178.46C-98.5239 178.76 -100.514 179.01 -102.594 179.21C-105.614 179.49 -107.894 180.02 -109.434 180.8C-110.954 181.58 -111.714 182.89 -111.714 184.73C-111.714 186.47 -111.084 187.79 -109.824 188.69C-108.564 189.57 -106.614 190.01 -103.974 190.01ZM-55.9322 162.14L-66.6122 194H-73.3022L-84.2222 162.14H-78.9422L-69.5522 191.3H-70.3622L-61.2122 162.14H-55.9322ZM-49.6936 180.11V175.55H-25.0636L-25.9636 177.05C-25.9636 176.93 -25.9636 176.82 -25.9636 176.72C-25.9636 176.6 -25.9636 176.49 -25.9636 176.39C-25.9636 174.55 -26.3536 172.87 -27.1336 171.35C-27.8936 169.81 -29.0336 168.58 -30.5536 167.66C-32.0736 166.74 -33.9536 166.28 -36.1936 166.28C-38.4536 166.28 -40.4436 166.76 -42.1636 167.72C-43.8836 168.68 -45.2236 170.04 -46.1836 171.8C-47.1436 173.54 -47.6236 175.62 -47.6236 178.04C-47.6236 180.5 -47.1636 182.62 -46.2436 184.4C-45.3036 186.18 -43.9736 187.55 -42.2536 188.51C-40.5336 189.47 -38.4936 189.95 -36.1336 189.95C-34.4536 189.95 -32.9936 189.78 -31.7536 189.44C-30.5136 189.08 -29.4936 188.61 -28.6936 188.03C-27.8736 187.43 -27.2536 186.78 -26.8336 186.08C-26.4136 185.38 -26.1636 184.68 -26.0836 183.98H-20.9836C-21.0836 185.26 -21.4836 186.53 -22.1836 187.79C-22.8836 189.05 -23.8736 190.2 -25.1536 191.24C-26.4336 192.26 -28.0036 193.08 -29.8636 193.7C-31.7236 194.32 -33.8636 194.63 -36.2836 194.63C-39.4836 194.63 -42.3036 193.93 -44.7436 192.53C-47.1836 191.13 -49.1036 189.19 -50.5036 186.71C-51.8836 184.23 -52.5736 181.38 -52.5736 178.16C-52.5736 174.9 -51.8736 172.04 -50.4736 169.58C-49.0736 167.1 -47.1436 165.16 -44.6836 163.76C-42.2236 162.36 -39.4136 161.66 -36.2536 161.66C-33.0336 161.66 -30.2436 162.36 -27.8836 163.76C-25.5236 165.16 -23.7036 167.08 -22.4236 169.52C-21.1436 171.94 -20.5036 174.7 -20.5036 177.8C-20.5036 178.12 -20.5136 178.54 -20.5336 179.06C-20.5536 179.58 -20.5836 179.93 -20.6236 180.11H-49.6936ZM14.6255 194.6C12.7055 194.6 10.9255 194.4 9.28547 194C7.66547 193.58 6.24547 192.98 5.02547 192.2C3.82547 191.4 2.88547 190.42 2.20547 189.26C1.54547 188.1 1.21547 186.77 1.21547 185.27C1.21547 185.11 1.21547 184.95 1.21547 184.79C1.21547 184.61 1.21547 184.46 1.21547 184.34H6.34547C6.34547 184.46 6.34547 184.56 6.34547 184.64C6.34547 184.72 6.34547 184.84 6.34547 185C6.34547 186.62 7.09547 187.86 8.59547 188.72C10.0955 189.56 12.1455 189.98 14.7455 189.98C16.3455 189.98 17.7755 189.82 19.0355 189.5C20.2955 189.18 21.2855 188.69 22.0055 188.03C22.7455 187.37 23.1155 186.54 23.1155 185.54C23.1155 183.88 22.3355 182.7 20.7755 182C19.2355 181.28 16.9255 180.66 13.8455 180.14C12.2255 179.86 10.6855 179.5 9.22547 179.06C7.76547 178.6 6.46547 178.01 5.32547 177.29C4.20547 176.57 3.31547 175.68 2.65547 174.62C2.01547 173.54 1.69547 172.25 1.69547 170.75C1.69547 168.81 2.26547 167.17 3.40547 165.83C4.56547 164.47 6.12547 163.44 8.08547 162.74C10.0455 162.02 12.2255 161.66 14.6255 161.66C16.9455 161.66 19.0855 162.03 21.0455 162.77C23.0055 163.51 24.5755 164.59 25.7555 166.01C26.9555 167.41 27.5555 169.14 27.5555 171.2C27.5555 171.28 27.5555 171.38 27.5555 171.5C27.5555 171.6 27.5555 171.7 27.5555 171.8H22.4555C22.4555 171.7 22.4555 171.62 22.4555 171.56C22.4555 171.5 22.4555 171.43 22.4555 171.35C22.4555 170.19 22.0855 169.24 21.3455 168.5C20.6055 167.74 19.6455 167.18 18.4655 166.82C17.2855 166.44 16.0255 166.25 14.6855 166.25C13.4255 166.25 12.1855 166.39 10.9655 166.67C9.74547 166.93 8.73547 167.37 7.93547 167.99C7.13547 168.61 6.73547 169.46 6.73547 170.54C6.73547 171.62 7.10547 172.49 7.84547 173.15C8.60547 173.79 9.66547 174.32 11.0255 174.74C12.4055 175.14 14.0255 175.51 15.8855 175.85C17.5455 176.15 19.1155 176.53 20.5955 176.99C22.0755 177.43 23.3755 178 24.4955 178.7C25.6355 179.4 26.5255 180.29 27.1655 181.37C27.8255 182.43 28.1555 183.73 28.1555 185.27C28.1555 186.83 27.7955 188.19 27.0755 189.35C26.3755 190.51 25.3955 191.48 24.1355 192.26C22.8955 193.04 21.4555 193.62 19.8155 194C18.1955 194.4 16.4655 194.6 14.6255 194.6ZM51.1683 194.57C47.9683 194.57 45.1383 193.86 42.6783 192.44C40.2383 191 38.3183 189.04 36.9183 186.56C35.5383 184.06 34.8483 181.22 34.8483 178.04C34.8483 174.86 35.5383 172.04 36.9183 169.58C38.3183 167.12 40.2383 165.19 42.6783 163.79C45.1383 162.39 47.9683 161.69 51.1683 161.69C54.3683 161.69 57.1883 162.39 59.6283 163.79C62.0883 165.19 64.0083 167.12 65.3883 169.58C66.7883 172.04 67.4883 174.86 67.4883 178.04C67.4883 181.22 66.7883 184.06 65.3883 186.56C64.0083 189.04 62.0883 191 59.6283 192.44C57.1883 193.86 54.3683 194.57 51.1683 194.57ZM51.1683 189.89C53.3683 189.89 55.3083 189.4 56.9883 188.42C58.6683 187.44 59.9783 186.06 60.9183 184.28C61.8783 182.5 62.3583 180.42 62.3583 178.04C62.3583 175.66 61.8783 173.6 60.9183 171.86C59.9783 170.1 58.6683 168.75 56.9883 167.81C55.3083 166.85 53.3683 166.37 51.1683 166.37C48.9883 166.37 47.0483 166.85 45.3483 167.81C43.6683 168.75 42.3483 170.1 41.3883 171.86C40.4483 173.6 39.9783 175.66 39.9783 178.04C39.9783 180.42 40.4483 182.5 41.3883 184.28C42.3483 186.06 43.6683 187.44 45.3483 188.42C47.0483 189.4 48.9883 189.89 51.1683 189.89ZM95.0433 194V179.93C95.0433 178.69 95.0433 177.62 95.0433 176.72C95.0433 175.8 95.0433 175.03 95.0433 174.41C95.0433 173.63 94.9833 172.79 94.8633 171.89C94.7633 170.97 94.5133 170.11 94.1133 169.31C93.7133 168.49 93.0833 167.82 92.2233 167.3C91.3833 166.78 90.2133 166.52 88.7133 166.52C87.1933 166.52 85.9133 166.82 84.8733 167.42C83.8333 168 82.9933 168.77 82.3533 169.73C81.7133 170.69 81.2533 171.75 80.9733 172.91C80.6933 174.05 80.5533 175.18 80.5533 176.3L77.6733 175.13C77.6733 172.73 78.1733 170.51 79.1733 168.47C80.1733 166.43 81.5733 164.79 83.3733 163.55C85.1933 162.29 87.3233 161.66 89.7633 161.66C92.1833 161.66 94.1533 162.15 95.6733 163.13C97.1933 164.11 98.3133 165.46 99.0333 167.18C99.7533 168.9 100.113 170.88 100.113 173.12C100.113 173.92 100.113 174.95 100.113 176.21C100.113 177.45 100.113 178.87 100.113 180.47V194H95.0433ZM75.4533 194V162.14H80.5533V194H75.4533ZM114.573 194V179.93C114.573 178.57 114.573 177.45 114.573 176.57C114.573 175.67 114.573 174.91 114.573 174.29C114.573 173.51 114.523 172.67 114.423 171.77C114.323 170.87 114.073 170.03 113.673 169.25C113.273 168.45 112.633 167.8 111.753 167.3C110.893 166.78 109.683 166.52 108.123 166.52C106.583 166.52 105.293 166.81 104.253 167.39C103.233 167.97 102.413 168.73 101.793 169.67C101.193 170.61 100.763 171.63 100.503 172.73C100.243 173.81 100.113 174.85 100.113 175.85L97.2333 174.74C97.2333 172.46 97.7133 170.33 98.6733 168.35C99.6533 166.35 101.033 164.74 102.813 163.52C104.613 162.28 106.743 161.66 109.203 161.66C111.503 161.66 113.423 162.11 114.963 163.01C116.523 163.91 117.693 165.18 118.473 166.82C119.273 168.44 119.673 170.37 119.673 172.61C119.673 173.45 119.673 174.49 119.673 175.73C119.673 176.97 119.673 178.37 119.673 179.93V194H114.573ZM130.189 180.11V175.55H154.819L153.919 177.05C153.919 176.93 153.919 176.82 153.919 176.72C153.919 176.6 153.919 176.49 153.919 176.39C153.919 174.55 153.529 172.87 152.749 171.35C151.989 169.81 150.849 168.58 149.329 167.66C147.809 166.74 145.929 166.28 143.689 166.28C141.429 166.28 139.439 166.76 137.719 167.72C135.999 168.68 134.659 170.04 133.699 171.8C132.739 173.54 132.259 175.62 132.259 178.04C132.259 180.5 132.719 182.62 133.639 184.4C134.579 186.18 135.909 187.55 137.629 188.51C139.349 189.47 141.389 189.95 143.749 189.95C145.429 189.95 146.889 189.78 148.129 189.44C149.369 189.08 150.389 188.61 151.189 188.03C152.009 187.43 152.629 186.78 153.049 186.08C153.469 185.38 153.719 184.68 153.799 183.98H158.899C158.799 185.26 158.399 186.53 157.699 187.79C156.999 189.05 156.009 190.2 154.729 191.24C153.449 192.26 151.879 193.08 150.019 193.7C148.159 194.32 146.019 194.63 143.599 194.63C140.399 194.63 137.579 193.93 135.139 192.53C132.699 191.13 130.779 189.19 129.379 186.71C127.999 184.23 127.309 181.38 127.309 178.16C127.309 174.9 128.009 172.04 129.409 169.58C130.809 167.1 132.739 165.16 135.199 163.76C137.659 162.36 140.469 161.66 143.629 161.66C146.849 161.66 149.639 162.36 151.999 163.76C154.359 165.16 156.179 167.08 157.459 169.52C158.739 171.94 159.379 174.7 159.379 177.8C159.379 178.12 159.369 178.54 159.349 179.06C159.329 179.58 159.299 179.93 159.259 180.11H130.189ZM179.284 194.48C178.304 194.48 177.344 194.37 176.404 194.15C175.464 193.93 174.614 193.54 173.854 192.98C173.114 192.4 172.524 191.59 172.084 190.55C171.644 189.49 171.424 188.13 171.424 186.47C171.424 186.05 171.424 185.62 171.424 185.18C171.424 184.72 171.424 184.24 171.424 183.74V166.64H163.654V162.14H168.634C169.314 162.14 169.844 162.12 170.224 162.08C170.604 162.02 170.874 161.89 171.034 161.69C171.214 161.47 171.324 161.14 171.364 160.7C171.404 160.24 171.424 159.61 171.424 158.81V151.58H176.554V162.14H186.514V166.64H176.554V182.09C176.554 182.53 176.554 182.96 176.554 183.38C176.554 183.8 176.554 184.19 176.554 184.55C176.554 186.25 176.754 187.58 177.154 188.54C177.574 189.5 178.504 189.98 179.944 189.98C180.524 189.98 181.074 189.93 181.594 189.83C182.114 189.73 182.504 189.63 182.764 189.53V193.97C182.424 194.09 181.944 194.2 181.324 194.3C180.724 194.42 180.044 194.48 179.284 194.48ZM215.881 194V182.15C215.881 181.59 215.881 180.93 215.881 180.17C215.881 179.39 215.881 178.61 215.881 177.83C215.881 177.03 215.881 176.35 215.881 175.79C215.881 172.73 215.221 170.42 213.901 168.86C212.601 167.3 210.531 166.52 207.691 166.52C205.791 166.52 204.121 166.89 202.681 167.63C201.261 168.37 200.151 169.38 199.351 170.66C198.551 171.94 198.151 173.39 198.151 175.01L194.911 174.02C194.911 171.74 195.501 169.67 196.681 167.81C197.881 165.93 199.511 164.44 201.571 163.34C203.651 162.22 206.001 161.66 208.621 161.66C212.441 161.66 215.451 162.81 217.651 165.11C219.871 167.41 220.981 170.59 220.981 174.65C220.981 175.71 220.981 176.93 220.981 178.31C220.981 179.69 220.981 181.14 220.981 182.66V194H215.881ZM193.051 194V147.11H198.151V194H193.051ZM230.148 194V162.14H235.188V194H230.148ZM232.698 154.82C231.758 154.82 230.938 154.56 230.238 154.04C229.558 153.5 229.218 152.77 229.218 151.85C229.218 150.95 229.558 150.24 230.238 149.72C230.938 149.18 231.758 148.91 232.698 148.91C233.638 148.91 234.448 149.18 235.128 149.72C235.808 150.24 236.148 150.95 236.148 151.85C236.148 152.77 235.808 153.5 235.128 154.04C234.448 154.56 233.638 154.82 232.698 154.82ZM267.472 194V178.73C267.472 177.81 267.472 177.06 267.472 176.48C267.472 175.88 267.472 175.31 267.472 174.77C267.472 173.11 267.192 171.66 266.632 170.42C266.072 169.18 265.192 168.22 263.992 167.54C262.792 166.86 261.222 166.52 259.282 166.52C257.582 166.52 256.002 166.96 254.542 167.84C253.102 168.7 251.942 169.87 251.062 171.35C250.202 172.81 249.772 174.45 249.772 176.27L246.862 175.16C246.862 172.66 247.472 170.39 248.692 168.35C249.932 166.31 251.572 164.69 253.612 163.49C255.672 162.27 257.912 161.66 260.332 161.66C262.792 161.66 264.942 162.13 266.782 163.07C268.622 164.01 270.042 165.36 271.042 167.12C272.062 168.86 272.572 170.96 272.572 173.42C272.572 174.3 272.572 175.26 272.572 176.3C272.572 177.34 272.572 178.31 272.572 179.21V194H267.472ZM244.672 194V162.14H249.772V194H244.672ZM301.809 192.05C303.529 192.19 305.039 192.51 306.339 193.01C307.659 193.49 308.689 194.2 309.429 195.14C310.169 196.1 310.539 197.35 310.539 198.89C310.539 200.59 309.959 202.09 308.799 203.39C307.639 204.71 305.879 205.74 303.519 206.48C301.159 207.22 298.189 207.59 294.609 207.59C289.549 207.59 285.729 206.85 283.149 205.37C280.569 203.91 279.279 201.91 279.279 199.37C279.279 198.57 279.369 197.86 279.549 197.24C279.749 196.64 279.969 196.15 280.209 195.77L285.069 196.49C284.909 196.71 284.749 197.04 284.589 197.48C284.449 197.94 284.379 198.47 284.379 199.07C284.379 200.67 285.289 201.79 287.109 202.43C288.929 203.09 291.509 203.42 294.849 203.42C297.349 203.42 299.399 203.25 300.999 202.91C302.599 202.57 303.789 202.08 304.569 201.44C305.349 200.8 305.739 200.05 305.739 199.19C305.739 197.89 305.189 197.08 304.089 196.76C303.009 196.46 301.669 196.25 300.069 196.13L287.949 195.23C285.929 195.07 284.279 194.45 282.999 193.37C281.739 192.27 281.109 190.94 281.109 189.38C281.109 188.42 281.339 187.51 281.799 186.65C282.279 185.79 282.829 185.07 283.449 184.49C284.089 183.89 284.659 183.53 285.159 183.41L289.179 185.24C288.679 185.32 288.059 185.67 287.319 186.29C286.599 186.89 286.239 187.6 286.239 188.42C286.239 189.16 286.529 189.77 287.109 190.25C287.689 190.71 288.839 191.01 290.559 191.15L301.809 192.05ZM306.219 162.14H311.019L309.039 174.68C308.679 177.02 307.929 179.14 306.789 181.04C305.649 182.92 304.089 184.42 302.109 185.54C300.149 186.64 297.719 187.19 294.819 187.19C291.799 187.19 289.219 186.64 287.079 185.54C284.939 184.44 283.299 182.94 282.159 181.04C281.019 179.12 280.449 176.96 280.449 174.56C280.449 172.12 281.039 169.93 282.219 167.99C283.419 166.03 285.079 164.49 287.199 163.37C289.319 162.23 291.749 161.66 294.489 161.66C296.949 161.66 299.099 162.09 300.939 162.95C302.779 163.79 304.229 164.85 305.289 166.13C306.369 167.41 306.969 168.7 307.089 170L305.169 170.12L306.219 162.14ZM294.789 182.63C296.729 182.63 298.389 182.31 299.769 181.67C301.169 181.03 302.239 180.1 302.979 178.88C303.739 177.66 304.119 176.18 304.119 174.44C304.119 172.76 303.739 171.31 302.979 170.09C302.239 168.85 301.169 167.9 299.769 167.24C298.389 166.56 296.739 166.22 294.819 166.22C292.979 166.22 291.349 166.57 289.929 167.27C288.529 167.95 287.429 168.91 286.629 170.15C285.849 171.39 285.459 172.85 285.459 174.53C285.459 176.23 285.829 177.69 286.569 178.91C287.329 180.11 288.399 181.03 289.779 181.67C291.179 182.31 292.849 182.63 294.789 182.63ZM333.331 194V162.14H338.371V194H333.331ZM335.881 154.82C334.941 154.82 334.121 154.56 333.421 154.04C332.741 153.5 332.401 152.77 332.401 151.85C332.401 150.95 332.741 150.24 333.421 149.72C334.121 149.18 334.941 148.91 335.881 148.91C336.821 148.91 337.631 149.18 338.311 149.72C338.991 150.24 339.331 150.95 339.331 151.85C339.331 152.77 338.991 153.5 338.311 154.04C337.631 154.56 336.821 154.82 335.881 154.82ZM370.656 194V178.73C370.656 177.81 370.656 177.06 370.656 176.48C370.656 175.88 370.656 175.31 370.656 174.77C370.656 173.11 370.376 171.66 369.816 170.42C369.256 169.18 368.376 168.22 367.176 167.54C365.976 166.86 364.406 166.52 362.466 166.52C360.766 166.52 359.186 166.96 357.726 167.84C356.286 168.7 355.126 169.87 354.246 171.35C353.386 172.81 352.956 174.45 352.956 176.27L350.046 175.16C350.046 172.66 350.656 170.39 351.876 168.35C353.116 166.31 354.756 164.69 356.796 163.49C358.856 162.27 361.096 161.66 363.516 161.66C365.976 161.66 368.126 162.13 369.966 163.07C371.806 164.01 373.226 165.36 374.226 167.12C375.246 168.86 375.756 170.96 375.756 173.42C375.756 174.3 375.756 175.26 375.756 176.3C375.756 177.34 375.756 178.31 375.756 179.21V194H370.656ZM347.856 194V162.14H352.956V194H347.856ZM419.243 194V179.93C419.243 178.69 419.243 177.62 419.243 176.72C419.243 175.8 419.243 175.03 419.243 174.41C419.243 173.63 419.183 172.79 419.063 171.89C418.963 170.97 418.713 170.11 418.313 169.31C417.913 168.49 417.283 167.82 416.423 167.3C415.583 166.78 414.413 166.52 412.913 166.52C411.393 166.52 410.113 166.82 409.073 167.42C408.033 168 407.193 168.77 406.553 169.73C405.913 170.69 405.453 171.75 405.173 172.91C404.893 174.05 404.753 175.18 404.753 176.3L401.873 175.13C401.873 172.73 402.373 170.51 403.373 168.47C404.373 166.43 405.773 164.79 407.573 163.55C409.393 162.29 411.523 161.66 413.963 161.66C416.383 161.66 418.353 162.15 419.873 163.13C421.393 164.11 422.513 165.46 423.233 167.18C423.953 168.9 424.313 170.88 424.313 173.12C424.313 173.92 424.313 174.95 424.313 176.21C424.313 177.45 424.313 178.87 424.313 180.47V194H419.243ZM399.653 194V162.14H404.753V194H399.653ZM438.773 194V179.93C438.773 178.57 438.773 177.45 438.773 176.57C438.773 175.67 438.773 174.91 438.773 174.29C438.773 173.51 438.723 172.67 438.623 171.77C438.523 170.87 438.273 170.03 437.873 169.25C437.473 168.45 436.833 167.8 435.953 167.3C435.093 166.78 433.883 166.52 432.323 166.52C430.783 166.52 429.493 166.81 428.453 167.39C427.433 167.97 426.613 168.73 425.993 169.67C425.393 170.61 424.963 171.63 424.703 172.73C424.443 173.81 424.313 174.85 424.313 175.85L421.433 174.74C421.433 172.46 421.913 170.33 422.873 168.35C423.853 166.35 425.233 164.74 427.013 163.52C428.813 162.28 430.943 161.66 433.403 161.66C435.703 161.66 437.623 162.11 439.163 163.01C440.723 163.91 441.893 165.18 442.673 166.82C443.473 168.44 443.873 170.37 443.873 172.61C443.873 173.45 443.873 174.49 443.873 175.73C443.873 176.97 443.873 178.37 443.873 179.93V194H438.773ZM453.038 194V162.14H458.078V194H453.038ZM455.588 154.82C454.648 154.82 453.828 154.56 453.128 154.04C452.448 153.5 452.108 152.77 452.108 151.85C452.108 150.95 452.448 150.24 453.128 149.72C453.828 149.18 454.648 148.91 455.588 148.91C456.528 148.91 457.338 149.18 458.018 149.72C458.698 150.24 459.038 150.95 459.038 151.85C459.038 152.77 458.698 153.5 458.018 154.04C457.338 154.56 456.528 154.82 455.588 154.82ZM490.363 194V178.73C490.363 177.81 490.363 177.06 490.363 176.48C490.363 175.88 490.363 175.31 490.363 174.77C490.363 173.11 490.083 171.66 489.523 170.42C488.963 169.18 488.083 168.22 486.883 167.54C485.683 166.86 484.113 166.52 482.173 166.52C480.473 166.52 478.893 166.96 477.433 167.84C475.993 168.7 474.833 169.87 473.953 171.35C473.093 172.81 472.663 174.45 472.663 176.27L469.753 175.16C469.753 172.66 470.363 170.39 471.583 168.35C472.823 166.31 474.463 164.69 476.503 163.49C478.563 162.27 480.803 161.66 483.223 161.66C485.683 161.66 487.833 162.13 489.673 163.07C491.513 164.01 492.933 165.36 493.933 167.12C494.953 168.86 495.463 170.96 495.463 173.42C495.463 174.3 495.463 175.26 495.463 176.3C495.463 177.34 495.463 178.31 495.463 179.21V194H490.363ZM467.563 194V162.14H472.663V194H467.563ZM517.5 194.6C514.88 194.6 512.48 193.97 510.3 192.71C508.12 191.43 506.38 189.56 505.08 187.1C503.78 184.62 503.13 181.6 503.13 178.04C503.13 174.54 503.79 171.57 505.11 169.13C506.43 166.69 508.18 164.84 510.36 163.58C512.54 162.3 514.92 161.66 517.5 161.66C519.96 161.66 522.26 162.25 524.4 163.43C526.56 164.59 528.3 166.21 529.62 168.29C530.94 170.37 531.6 172.78 531.6 175.52C531.6 175.58 531.6 175.64 531.6 175.7C531.6 175.76 531.6 175.82 531.6 175.88L527.94 176.03C527.94 175.97 527.94 175.91 527.94 175.85C527.94 175.77 527.94 175.7 527.94 175.64C527.94 173.9 527.48 172.33 526.56 170.93C525.66 169.53 524.47 168.42 522.99 167.6C521.51 166.76 519.92 166.34 518.22 166.34C515.38 166.34 513.03 167.3 511.17 169.22C509.31 171.12 508.38 174.06 508.38 178.04C508.38 182 509.31 184.95 511.17 186.89C513.05 188.81 515.4 189.77 518.22 189.77C520 189.77 521.62 189.34 523.08 188.48C524.56 187.62 525.74 186.47 526.62 185.03C527.5 183.57 527.94 181.94 527.94 180.14L531.6 180.23C531.6 182.95 530.97 185.4 529.71 187.58C528.45 189.74 526.75 191.45 524.61 192.71C522.49 193.97 520.12 194.6 517.5 194.6ZM527.94 194V147.11H533.07V194H527.94ZM550.645 183.68C550.645 181.88 550.925 180.28 551.485 178.88C552.045 177.48 552.755 176.2 553.615 175.04C554.475 173.88 555.365 172.77 556.285 171.71C557.125 170.75 557.915 169.78 558.655 168.8C559.395 167.8 559.995 166.73 560.455 165.59C560.915 164.45 561.145 163.17 561.145 161.75C561.145 159.03 560.475 157 559.135 155.66C557.815 154.3 555.845 153.62 553.225 153.62C550.545 153.62 548.505 154.38 547.105 155.9C545.705 157.42 545.005 159.7 545.005 162.74H540.415C540.415 159.76 540.965 157.29 542.065 155.33C543.165 153.35 544.675 151.87 546.595 150.89C548.515 149.91 550.715 149.42 553.195 149.42C555.675 149.42 557.845 149.9 559.705 150.86C561.585 151.82 563.055 153.24 564.115 155.12C565.175 156.98 565.705 159.28 565.705 162.02C565.705 163.86 565.415 165.49 564.835 166.91C564.255 168.31 563.515 169.57 562.615 170.69C561.715 171.81 560.785 172.88 559.825 173.9C558.505 175.32 557.325 176.78 556.285 178.28C555.245 179.76 554.725 181.56 554.725 183.68H550.645ZM552.985 194.78C552.005 194.78 551.175 194.45 550.495 193.79C549.815 193.11 549.475 192.28 549.475 191.3C549.475 190.34 549.815 189.52 550.495 188.84C551.175 188.16 552.005 187.82 552.985 187.82C553.945 187.82 554.765 188.16 555.445 188.84C556.125 189.52 556.465 190.34 556.465 191.3C556.465 192.28 556.125 193.11 555.445 193.79C554.765 194.45 553.945 194.78 552.985 194.78Z" fill="white"/>
<path d="M620.23 194V149.75H625.36V192.41L623.05 189.5H642.82V194H620.23ZM651.654 180.11V175.55H676.284L675.384 177.05C675.384 176.93 675.384 176.82 675.384 176.72C675.384 176.6 675.384 176.49 675.384 176.39C675.384 174.55 674.994 172.87 674.214 171.35C673.454 169.81 672.314 168.58 670.794 167.66C669.274 166.74 667.394 166.28 665.154 166.28C662.894 166.28 660.904 166.76 659.184 167.72C657.464 168.68 656.124 170.04 655.164 171.8C654.204 173.54 653.724 175.62 653.724 178.04C653.724 180.5 654.184 182.62 655.104 184.4C656.044 186.18 657.374 187.55 659.094 188.51C660.814 189.47 662.854 189.95 665.214 189.95C666.894 189.95 668.354 189.78 669.594 189.44C670.834 189.08 671.854 188.61 672.654 188.03C673.474 187.43 674.094 186.78 674.514 186.08C674.934 185.38 675.184 184.68 675.264 183.98H680.364C680.264 185.26 679.864 186.53 679.164 187.79C678.464 189.05 677.474 190.2 676.194 191.24C674.914 192.26 673.344 193.08 671.484 193.7C669.624 194.32 667.484 194.63 665.064 194.63C661.864 194.63 659.044 193.93 656.604 192.53C654.164 191.13 652.244 189.19 650.844 186.71C649.464 184.23 648.774 181.38 648.774 178.16C648.774 174.9 649.474 172.04 650.874 169.58C652.274 167.1 654.204 165.16 656.664 163.76C659.124 162.36 661.934 161.66 665.094 161.66C668.314 161.66 671.104 162.36 673.464 163.76C675.824 165.16 677.644 167.08 678.924 169.52C680.204 171.94 680.844 174.7 680.844 177.8C680.844 178.12 680.834 178.54 680.814 179.06C680.794 179.58 680.764 179.93 680.724 180.11H651.654ZM700.749 194.48C699.769 194.48 698.809 194.37 697.869 194.15C696.929 193.93 696.079 193.54 695.319 192.98C694.579 192.4 693.989 191.59 693.549 190.55C693.109 189.49 692.889 188.13 692.889 186.47C692.889 186.05 692.889 185.62 692.889 185.18C692.889 184.72 692.889 184.24 692.889 183.74V166.64H685.119V162.14H690.099C690.779 162.14 691.309 162.12 691.689 162.08C692.069 162.02 692.339 161.89 692.499 161.69C692.679 161.47 692.789 161.14 692.829 160.7C692.869 160.24 692.889 159.61 692.889 158.81V151.58H698.019V162.14H707.979V166.64H698.019V182.09C698.019 182.53 698.019 182.96 698.019 183.38C698.019 183.8 698.019 184.19 698.019 184.55C698.019 186.25 698.219 187.58 698.619 188.54C699.039 189.5 699.969 189.98 701.409 189.98C701.989 189.98 702.539 189.93 703.059 189.83C703.579 189.73 703.969 189.63 704.229 189.53V193.97C703.889 194.09 703.409 194.2 702.789 194.3C702.189 194.42 701.509 194.48 700.749 194.48ZM716.796 149.75L716.076 162.11H712.986L712.296 149.75H716.796ZM733.258 194.6C731.338 194.6 729.558 194.4 727.918 194C726.298 193.58 724.878 192.98 723.658 192.2C722.458 191.4 721.518 190.42 720.838 189.26C720.178 188.1 719.848 186.77 719.848 185.27C719.848 185.11 719.848 184.95 719.848 184.79C719.848 184.61 719.848 184.46 719.848 184.34H724.978C724.978 184.46 724.978 184.56 724.978 184.64C724.978 184.72 724.978 184.84 724.978 185C724.978 186.62 725.728 187.86 727.228 188.72C728.728 189.56 730.778 189.98 733.378 189.98C734.978 189.98 736.408 189.82 737.668 189.5C738.928 189.18 739.918 188.69 740.638 188.03C741.378 187.37 741.748 186.54 741.748 185.54C741.748 183.88 740.968 182.7 739.408 182C737.868 181.28 735.558 180.66 732.478 180.14C730.858 179.86 729.318 179.5 727.858 179.06C726.398 178.6 725.098 178.01 723.958 177.29C722.838 176.57 721.948 175.68 721.288 174.62C720.648 173.54 720.328 172.25 720.328 170.75C720.328 168.81 720.898 167.17 722.038 165.83C723.198 164.47 724.758 163.44 726.718 162.74C728.678 162.02 730.858 161.66 733.258 161.66C735.578 161.66 737.718 162.03 739.678 162.77C741.638 163.51 743.208 164.59 744.388 166.01C745.588 167.41 746.188 169.14 746.188 171.2C746.188 171.28 746.188 171.38 746.188 171.5C746.188 171.6 746.188 171.7 746.188 171.8H741.088C741.088 171.7 741.088 171.62 741.088 171.56C741.088 171.5 741.088 171.43 741.088 171.35C741.088 170.19 740.718 169.24 739.978 168.5C739.238 167.74 738.278 167.18 737.098 166.82C735.918 166.44 734.658 166.25 733.318 166.25C732.058 166.25 730.818 166.39 729.598 166.67C728.378 166.93 727.368 167.37 726.568 167.99C725.768 168.61 725.368 169.46 725.368 170.54C725.368 171.62 725.738 172.49 726.478 173.15C727.238 173.79 728.298 174.32 729.658 174.74C731.038 175.14 732.658 175.51 734.518 175.85C736.178 176.15 737.748 176.53 739.228 176.99C740.708 177.43 742.008 178 743.128 178.7C744.268 179.4 745.158 180.29 745.798 181.37C746.458 182.43 746.788 183.73 746.788 185.27C746.788 186.83 746.428 188.19 745.708 189.35C745.008 190.51 744.028 191.48 742.768 192.26C741.528 193.04 740.088 193.62 738.448 194C736.828 194.4 735.098 194.6 733.258 194.6ZM784.831 194.6C781.791 194.6 779.031 193.94 776.551 192.62C774.071 191.28 772.101 189.37 770.641 186.89C769.201 184.41 768.481 181.46 768.481 178.04C768.481 174.62 769.201 171.69 770.641 169.25C772.101 166.79 774.071 164.91 776.551 163.61C779.031 162.31 781.791 161.66 784.831 161.66C787.151 161.66 789.221 162.02 791.041 162.74C792.861 163.44 794.401 164.38 795.661 165.56C796.921 166.74 797.881 168.04 798.541 169.46C799.221 170.86 799.561 172.26 799.561 173.66C799.561 173.68 799.561 173.71 799.561 173.75C799.561 173.79 799.561 173.83 799.561 173.87H794.491C794.491 173.77 794.481 173.66 794.461 173.54C794.441 173.4 794.421 173.26 794.401 173.12C794.241 171.78 793.731 170.61 792.871 169.61C792.011 168.59 790.891 167.79 789.511 167.21C788.131 166.63 786.561 166.34 784.801 166.34C782.821 166.34 780.981 166.77 779.281 167.63C777.601 168.47 776.241 169.76 775.201 171.5C774.181 173.22 773.671 175.4 773.671 178.04C773.671 180.66 774.181 182.85 775.201 184.61C776.221 186.37 777.571 187.7 779.251 188.6C780.951 189.48 782.801 189.92 784.801 189.92C786.961 189.92 788.741 189.58 790.141 188.9C791.541 188.22 792.591 187.32 793.291 186.2C794.011 185.06 794.411 183.84 794.491 182.54H799.561C799.561 183.98 799.241 185.42 798.601 186.86C797.961 188.28 797.021 189.58 795.781 190.76C794.541 191.92 793.001 192.85 791.161 193.55C789.341 194.25 787.231 194.6 784.831 194.6ZM822.594 194.57C819.394 194.57 816.564 193.86 814.104 192.44C811.664 191 809.744 189.04 808.344 186.56C806.964 184.06 806.274 181.22 806.274 178.04C806.274 174.86 806.964 172.04 808.344 169.58C809.744 167.12 811.664 165.19 814.104 163.79C816.564 162.39 819.394 161.69 822.594 161.69C825.794 161.69 828.614 162.39 831.054 163.79C833.514 165.19 835.434 167.12 836.814 169.58C838.214 172.04 838.914 174.86 838.914 178.04C838.914 181.22 838.214 184.06 836.814 186.56C835.434 189.04 833.514 191 831.054 192.44C828.614 193.86 825.794 194.57 822.594 194.57ZM822.594 189.89C824.794 189.89 826.734 189.4 828.414 188.42C830.094 187.44 831.404 186.06 832.344 184.28C833.304 182.5 833.784 180.42 833.784 178.04C833.784 175.66 833.304 173.6 832.344 171.86C831.404 170.1 830.094 168.75 828.414 167.81C826.734 166.85 824.794 166.37 822.594 166.37C820.414 166.37 818.474 166.85 816.774 167.81C815.094 168.75 813.774 170.1 812.814 171.86C811.874 173.6 811.404 175.66 811.404 178.04C811.404 180.42 811.874 182.5 812.814 184.28C813.774 186.06 815.094 187.44 816.774 188.42C818.474 189.4 820.414 189.89 822.594 189.89ZM869.679 194V178.73C869.679 177.81 869.679 177.06 869.679 176.48C869.679 175.88 869.679 175.31 869.679 174.77C869.679 173.11 869.399 171.66 868.839 170.42C868.279 169.18 867.399 168.22 866.199 167.54C864.999 166.86 863.429 166.52 861.489 166.52C859.789 166.52 858.209 166.96 856.749 167.84C855.309 168.7 854.149 169.87 853.269 171.35C852.409 172.81 851.979 174.45 851.979 176.27L849.069 175.16C849.069 172.66 849.679 170.39 850.899 168.35C852.139 166.31 853.779 164.69 855.819 163.49C857.879 162.27 860.119 161.66 862.539 161.66C864.999 161.66 867.149 162.13 868.989 163.07C870.829 164.01 872.249 165.36 873.249 167.12C874.269 168.86 874.779 170.96 874.779 173.42C874.779 174.3 874.779 175.26 874.779 176.3C874.779 177.34 874.779 178.31 874.779 179.21V194H869.679ZM846.879 194V162.14H851.979V194H846.879ZM906.476 194V178.73C906.476 177.81 906.476 177.06 906.476 176.48C906.476 175.88 906.476 175.31 906.476 174.77C906.476 173.11 906.196 171.66 905.636 170.42C905.076 169.18 904.196 168.22 902.996 167.54C901.796 166.86 900.226 166.52 898.286 166.52C896.586 166.52 895.006 166.96 893.546 167.84C892.106 168.7 890.946 169.87 890.066 171.35C889.206 172.81 888.776 174.45 888.776 176.27L885.866 175.16C885.866 172.66 886.476 170.39 887.696 168.35C888.936 166.31 890.576 164.69 892.616 163.49C894.676 162.27 896.916 161.66 899.336 161.66C901.796 161.66 903.946 162.13 905.786 163.07C907.626 164.01 909.046 165.36 910.046 167.12C911.066 168.86 911.576 170.96 911.576 173.42C911.576 174.3 911.576 175.26 911.576 176.3C911.576 177.34 911.576 178.31 911.576 179.21V194H906.476ZM883.676 194V162.14H888.776V194H883.676ZM922.123 180.11V175.55H946.753L945.853 177.05C945.853 176.93 945.853 176.82 945.853 176.72C945.853 176.6 945.853 176.49 945.853 176.39C945.853 174.55 945.463 172.87 944.683 171.35C943.923 169.81 942.783 168.58 941.263 167.66C939.743 166.74 937.863 166.28 935.623 166.28C933.363 166.28 931.373 166.76 929.653 167.72C927.933 168.68 926.593 170.04 925.633 171.8C924.673 173.54 924.193 175.62 924.193 178.04C924.193 180.5 924.653 182.62 925.573 184.4C926.513 186.18 927.843 187.55 929.563 188.51C931.283 189.47 933.323 189.95 935.683 189.95C937.363 189.95 938.823 189.78 940.063 189.44C941.303 189.08 942.323 188.61 943.123 188.03C943.943 187.43 944.563 186.78 944.983 186.08C945.403 185.38 945.653 184.68 945.733 183.98H950.833C950.733 185.26 950.333 186.53 949.633 187.79C948.933 189.05 947.943 190.2 946.663 191.24C945.383 192.26 943.813 193.08 941.953 193.7C940.093 194.32 937.953 194.63 935.533 194.63C932.333 194.63 929.513 193.93 927.073 192.53C924.633 191.13 922.713 189.19 921.313 186.71C919.933 184.23 919.243 181.38 919.243 178.16C919.243 174.9 919.943 172.04 921.343 169.58C922.743 167.1 924.673 165.16 927.133 163.76C929.593 162.36 932.403 161.66 935.563 161.66C938.783 161.66 941.573 162.36 943.933 163.76C946.293 165.16 948.113 167.08 949.393 169.52C950.673 171.94 951.313 174.7 951.313 177.8C951.313 178.12 951.303 178.54 951.283 179.06C951.263 179.58 951.233 179.93 951.193 180.11H922.123ZM974.382 194.6C971.342 194.6 968.582 193.94 966.102 192.62C963.622 191.28 961.652 189.37 960.192 186.89C958.752 184.41 958.032 181.46 958.032 178.04C958.032 174.62 958.752 171.69 960.192 169.25C961.652 166.79 963.622 164.91 966.102 163.61C968.582 162.31 971.342 161.66 974.382 161.66C976.702 161.66 978.772 162.02 980.592 162.74C982.412 163.44 983.952 164.38 985.212 165.56C986.472 166.74 987.432 168.04 988.092 169.46C988.772 170.86 989.112 172.26 989.112 173.66C989.112 173.68 989.112 173.71 989.112 173.75C989.112 173.79 989.112 173.83 989.112 173.87H984.042C984.042 173.77 984.032 173.66 984.012 173.54C983.992 173.4 983.972 173.26 983.952 173.12C983.792 171.78 983.282 170.61 982.422 169.61C981.562 168.59 980.442 167.79 979.062 167.21C977.682 166.63 976.112 166.34 974.352 166.34C972.372 166.34 970.532 166.77 968.832 167.63C967.152 168.47 965.792 169.76 964.752 171.5C963.732 173.22 963.222 175.4 963.222 178.04C963.222 180.66 963.732 182.85 964.752 184.61C965.772 186.37 967.122 187.7 968.802 188.6C970.502 189.48 972.352 189.92 974.352 189.92C976.512 189.92 978.292 189.58 979.692 188.9C981.092 188.22 982.142 187.32 982.842 186.2C983.562 185.06 983.962 183.84 984.042 182.54H989.112C989.112 183.98 988.792 185.42 988.152 186.86C987.512 188.28 986.572 189.58 985.332 190.76C984.092 191.92 982.552 192.85 980.712 193.55C978.892 194.25 976.782 194.6 974.382 194.6ZM1009.01 194.48C1008.03 194.48 1007.07 194.37 1006.13 194.15C1005.19 193.93 1004.34 193.54 1003.58 192.98C1002.84 192.4 1002.25 191.59 1001.81 190.55C1001.37 189.49 1001.15 188.13 1001.15 186.47C1001.15 186.05 1001.15 185.62 1001.15 185.18C1001.15 184.72 1001.15 184.24 1001.15 183.74V166.64H993.38V162.14H998.36C999.04 162.14 999.57 162.12 999.95 162.08C1000.33 162.02 1000.6 161.89 1000.76 161.69C1000.94 161.47 1001.05 161.14 1001.09 160.7C1001.13 160.24 1001.15 159.61 1001.15 158.81V151.58H1006.28V162.14H1016.24V166.64H1006.28V182.09C1006.28 182.53 1006.28 182.96 1006.28 183.38C1006.28 183.8 1006.28 184.19 1006.28 184.55C1006.28 186.25 1006.48 187.58 1006.88 188.54C1007.3 189.5 1008.23 189.98 1009.67 189.98C1010.25 189.98 1010.8 189.93 1011.32 189.83C1011.84 189.73 1012.23 189.63 1012.49 189.53V193.97C1012.15 194.09 1011.67 194.2 1011.05 194.3C1010.45 194.42 1009.77 194.48 1009.01 194.48ZM1025.9 194.78C1024.92 194.78 1024.09 194.45 1023.41 193.79C1022.75 193.11 1022.42 192.28 1022.42 191.3C1022.42 190.34 1022.75 189.52 1023.41 188.84C1024.09 188.16 1024.92 187.82 1025.9 187.82C1026.86 187.82 1027.68 188.16 1028.36 188.84C1029.04 189.52 1029.38 190.34 1029.38 191.3C1029.38 192.28 1029.04 193.11 1028.36 193.79C1027.68 194.45 1026.86 194.78 1025.9 194.78Z" fill="#D8D8EB"/>
<path d="M1100.26 149.75V194H1095.13V171.62L1097.44 174.17H1073.05L1075.36 171.62V194H1070.23V149.75H1075.36V172.37L1073.05 169.67H1097.44L1095.13 172.37V149.75H1100.26ZM1120.22 194.6C1117.8 194.6 1115.68 194.22 1113.86 193.46C1112.06 192.7 1110.66 191.61 1109.66 190.19C1108.66 188.75 1108.16 187.03 1108.16 185.03C1108.16 182.95 1108.7 181.22 1109.78 179.84C1110.86 178.44 1112.38 177.35 1114.34 176.57C1116.3 175.79 1118.58 175.27 1121.18 175.01C1125.1 174.61 1127.89 174.22 1129.55 173.84C1131.21 173.44 1132.04 172.8 1132.04 171.92C1132.04 171.9 1132.04 171.89 1132.04 171.89C1132.04 171.87 1132.04 171.85 1132.04 171.83C1132.04 169.99 1131.29 168.62 1129.79 167.72C1128.29 166.8 1126.12 166.34 1123.28 166.34C1120.32 166.34 1118.02 166.86 1116.38 167.9C1114.74 168.92 1113.92 170.58 1113.92 172.88H1108.88C1108.88 170.5 1109.49 168.48 1110.71 166.82C1111.93 165.14 1113.62 163.86 1115.78 162.98C1117.96 162.1 1120.47 161.66 1123.31 161.66C1125.91 161.66 1128.25 162.06 1130.33 162.86C1132.43 163.64 1134.09 164.81 1135.31 166.37C1136.55 167.91 1137.17 169.82 1137.17 172.1C1137.17 172.52 1137.17 172.94 1137.17 173.36C1137.17 173.76 1137.17 174.17 1137.17 174.59V188C1137.17 188.7 1137.2 189.38 1137.26 190.04C1137.32 190.7 1137.42 191.28 1137.56 191.78C1137.74 192.38 1137.94 192.87 1138.16 193.25C1138.38 193.61 1138.56 193.86 1138.7 194H1133.57C1133.47 193.9 1133.32 193.67 1133.12 193.31C1132.92 192.93 1132.73 192.49 1132.55 191.99C1132.41 191.59 1132.3 191.09 1132.22 190.49C1132.14 189.87 1132.1 189.23 1132.1 188.57L1132.94 189.14C1132.32 190.22 1131.41 191.17 1130.21 191.99C1129.03 192.81 1127.6 193.45 1125.92 193.91C1124.24 194.37 1122.34 194.6 1120.22 194.6ZM1121.03 190.01C1123.09 190.01 1124.95 189.7 1126.61 189.08C1128.27 188.44 1129.59 187.5 1130.57 186.26C1131.55 185.02 1132.04 183.48 1132.04 181.64V175.31L1133.18 177.23C1131.9 177.73 1130.3 178.14 1128.38 178.46C1126.48 178.76 1124.49 179.01 1122.41 179.21C1119.39 179.49 1117.11 180.02 1115.57 180.8C1114.05 181.58 1113.29 182.89 1113.29 184.73C1113.29 186.47 1113.92 187.79 1115.18 188.69C1116.44 189.57 1118.39 190.01 1121.03 190.01ZM1169.07 162.14L1158.39 194H1151.7L1140.78 162.14H1146.06L1155.45 191.3H1154.64L1163.79 162.14H1169.07ZM1175.31 180.11V175.55H1199.94L1199.04 177.05C1199.04 176.93 1199.04 176.82 1199.04 176.72C1199.04 176.6 1199.04 176.49 1199.04 176.39C1199.04 174.55 1198.65 172.87 1197.87 171.35C1197.11 169.81 1195.97 168.58 1194.45 167.66C1192.93 166.74 1191.05 166.28 1188.81 166.28C1186.55 166.28 1184.56 166.76 1182.84 167.72C1181.12 168.68 1179.78 170.04 1178.82 171.8C1177.86 173.54 1177.38 175.62 1177.38 178.04C1177.38 180.5 1177.84 182.62 1178.76 184.4C1179.7 186.18 1181.03 187.55 1182.75 188.51C1184.47 189.47 1186.51 189.95 1188.87 189.95C1190.55 189.95 1192.01 189.78 1193.25 189.44C1194.49 189.08 1195.51 188.61 1196.31 188.03C1197.13 187.43 1197.75 186.78 1198.17 186.08C1198.59 185.38 1198.84 184.68 1198.92 183.98H1204.02C1203.92 185.26 1203.52 186.53 1202.82 187.79C1202.12 189.05 1201.13 190.2 1199.85 191.24C1198.57 192.26 1197 193.08 1195.14 193.7C1193.28 194.32 1191.14 194.63 1188.72 194.63C1185.52 194.63 1182.7 193.93 1180.26 192.53C1177.82 191.13 1175.9 189.19 1174.5 186.71C1173.12 184.23 1172.43 181.38 1172.43 178.16C1172.43 174.9 1173.13 172.04 1174.53 169.58C1175.93 167.1 1177.86 165.16 1180.32 163.76C1182.78 162.36 1185.59 161.66 1188.75 161.66C1191.97 161.66 1194.76 162.36 1197.12 163.76C1199.48 165.16 1201.3 167.08 1202.58 169.52C1203.86 171.94 1204.5 174.7 1204.5 177.8C1204.5 178.12 1204.49 178.54 1204.47 179.06C1204.45 179.58 1204.42 179.93 1204.38 180.11H1175.31ZM1239.63 194.6C1237.71 194.6 1235.93 194.4 1234.29 194C1232.67 193.58 1231.25 192.98 1230.03 192.2C1228.83 191.4 1227.89 190.42 1227.21 189.26C1226.55 188.1 1226.22 186.77 1226.22 185.27C1226.22 185.11 1226.22 184.95 1226.22 184.79C1226.22 184.61 1226.22 184.46 1226.22 184.34H1231.35C1231.35 184.46 1231.35 184.56 1231.35 184.64C1231.35 184.72 1231.35 184.84 1231.35 185C1231.35 186.62 1232.1 187.86 1233.6 188.72C1235.1 189.56 1237.15 189.98 1239.75 189.98C1241.35 189.98 1242.78 189.82 1244.04 189.5C1245.3 189.18 1246.29 188.69 1247.01 188.03C1247.75 187.37 1248.12 186.54 1248.12 185.54C1248.12 183.88 1247.34 182.7 1245.78 182C1244.24 181.28 1241.93 180.66 1238.85 180.14C1237.23 179.86 1235.69 179.5 1234.23 179.06C1232.77 178.6 1231.47 178.01 1230.33 177.29C1229.21 176.57 1228.32 175.68 1227.66 174.62C1227.02 173.54 1226.7 172.25 1226.7 170.75C1226.7 168.81 1227.27 167.17 1228.41 165.83C1229.57 164.47 1231.13 163.44 1233.09 162.74C1235.05 162.02 1237.23 161.66 1239.63 161.66C1241.95 161.66 1244.09 162.03 1246.05 162.77C1248.01 163.51 1249.58 164.59 1250.76 166.01C1251.96 167.41 1252.56 169.14 1252.56 171.2C1252.56 171.28 1252.56 171.38 1252.56 171.5C1252.56 171.6 1252.56 171.7 1252.56 171.8H1247.46C1247.46 171.7 1247.46 171.62 1247.46 171.56C1247.46 171.5 1247.46 171.43 1247.46 171.35C1247.46 170.19 1247.09 169.24 1246.35 168.5C1245.61 167.74 1244.65 167.18 1243.47 166.82C1242.29 166.44 1241.03 166.25 1239.69 166.25C1238.43 166.25 1237.19 166.39 1235.97 166.67C1234.75 166.93 1233.74 167.37 1232.94 167.99C1232.14 168.61 1231.74 169.46 1231.74 170.54C1231.74 171.62 1232.11 172.49 1232.85 173.15C1233.61 173.79 1234.67 174.32 1236.03 174.74C1237.41 175.14 1239.03 175.51 1240.89 175.85C1242.55 176.15 1244.12 176.53 1245.6 176.99C1247.08 177.43 1248.38 178 1249.5 178.7C1250.64 179.4 1251.53 180.29 1252.17 181.37C1252.83 182.43 1253.16 183.73 1253.16 185.27C1253.16 186.83 1252.8 188.19 1252.08 189.35C1251.38 190.51 1250.4 191.48 1249.14 192.26C1247.9 193.04 1246.46 193.62 1244.82 194C1243.2 194.4 1241.47 194.6 1239.63 194.6ZM1276.17 194.57C1272.97 194.57 1270.14 193.86 1267.68 192.44C1265.24 191 1263.32 189.04 1261.92 186.56C1260.54 184.06 1259.85 181.22 1259.85 178.04C1259.85 174.86 1260.54 172.04 1261.92 169.58C1263.32 167.12 1265.24 165.19 1267.68 163.79C1270.14 162.39 1272.97 161.69 1276.17 161.69C1279.37 161.69 1282.19 162.39 1284.63 163.79C1287.09 165.19 1289.01 167.12 1290.39 169.58C1291.79 172.04 1292.49 174.86 1292.49 178.04C1292.49 181.22 1291.79 184.06 1290.39 186.56C1289.01 189.04 1287.09 191 1284.63 192.44C1282.19 193.86 1279.37 194.57 1276.17 194.57ZM1276.17 189.89C1278.37 189.89 1280.31 189.4 1281.99 188.42C1283.67 187.44 1284.98 186.06 1285.92 184.28C1286.88 182.5 1287.36 180.42 1287.36 178.04C1287.36 175.66 1286.88 173.6 1285.92 171.86C1284.98 170.1 1283.67 168.75 1281.99 167.81C1280.31 166.85 1278.37 166.37 1276.17 166.37C1273.99 166.37 1272.05 166.85 1270.35 167.81C1268.67 168.75 1267.35 170.1 1266.39 171.86C1265.45 173.6 1264.98 175.66 1264.98 178.04C1264.98 180.42 1265.45 182.5 1266.39 184.28C1267.35 186.06 1268.67 187.44 1270.35 188.42C1272.05 189.4 1273.99 189.89 1276.17 189.89ZM1320.04 194V179.93C1320.04 178.69 1320.04 177.62 1320.04 176.72C1320.04 175.8 1320.04 175.03 1320.04 174.41C1320.04 173.63 1319.98 172.79 1319.86 171.89C1319.76 170.97 1319.51 170.11 1319.11 169.31C1318.71 168.49 1318.08 167.82 1317.22 167.3C1316.38 166.78 1315.21 166.52 1313.71 166.52C1312.19 166.52 1310.91 166.82 1309.87 167.42C1308.83 168 1307.99 168.77 1307.35 169.73C1306.71 170.69 1306.25 171.75 1305.97 172.91C1305.69 174.05 1305.55 175.18 1305.55 176.3L1302.67 175.13C1302.67 172.73 1303.17 170.51 1304.17 168.47C1305.17 166.43 1306.57 164.79 1308.37 163.55C1310.19 162.29 1312.32 161.66 1314.76 161.66C1317.18 161.66 1319.15 162.15 1320.67 163.13C1322.19 164.11 1323.31 165.46 1324.03 167.18C1324.75 168.9 1325.11 170.88 1325.11 173.12C1325.11 173.92 1325.11 174.95 1325.11 176.21C1325.11 177.45 1325.11 178.87 1325.11 180.47V194H1320.04ZM1300.45 194V162.14H1305.55V194H1300.45ZM1339.57 194V179.93C1339.57 178.57 1339.57 177.45 1339.57 176.57C1339.57 175.67 1339.57 174.91 1339.57 174.29C1339.57 173.51 1339.52 172.67 1339.42 171.77C1339.32 170.87 1339.07 170.03 1338.67 169.25C1338.27 168.45 1337.63 167.8 1336.75 167.3C1335.89 166.78 1334.68 166.52 1333.12 166.52C1331.58 166.52 1330.29 166.81 1329.25 167.39C1328.23 167.97 1327.41 168.73 1326.79 169.67C1326.19 170.61 1325.76 171.63 1325.5 172.73C1325.24 173.81 1325.11 174.85 1325.11 175.85L1322.23 174.74C1322.23 172.46 1322.71 170.33 1323.67 168.35C1324.65 166.35 1326.03 164.74 1327.81 163.52C1329.61 162.28 1331.74 161.66 1334.2 161.66C1336.5 161.66 1338.42 162.11 1339.96 163.01C1341.52 163.91 1342.69 165.18 1343.47 166.82C1344.27 168.44 1344.67 170.37 1344.67 172.61C1344.67 173.45 1344.67 174.49 1344.67 175.73C1344.67 176.97 1344.67 178.37 1344.67 179.93V194H1339.57ZM1355.19 180.11V175.55H1379.82L1378.92 177.05C1378.92 176.93 1378.92 176.82 1378.92 176.72C1378.92 176.6 1378.92 176.49 1378.92 176.39C1378.92 174.55 1378.53 172.87 1377.75 171.35C1376.99 169.81 1375.85 168.58 1374.33 167.66C1372.81 166.74 1370.93 166.28 1368.69 166.28C1366.43 166.28 1364.44 166.76 1362.72 167.72C1361 168.68 1359.66 170.04 1358.7 171.8C1357.74 173.54 1357.26 175.62 1357.26 178.04C1357.26 180.5 1357.72 182.62 1358.64 184.4C1359.58 186.18 1360.91 187.55 1362.63 188.51C1364.35 189.47 1366.39 189.95 1368.75 189.95C1370.43 189.95 1371.89 189.78 1373.13 189.44C1374.37 189.08 1375.39 188.61 1376.19 188.03C1377.01 187.43 1377.63 186.78 1378.05 186.08C1378.47 185.38 1378.72 184.68 1378.8 183.98H1383.9C1383.8 185.26 1383.4 186.53 1382.7 187.79C1382 189.05 1381.01 190.2 1379.73 191.24C1378.45 192.26 1376.88 193.08 1375.02 193.7C1373.16 194.32 1371.02 194.63 1368.6 194.63C1365.4 194.63 1362.58 193.93 1360.14 192.53C1357.7 191.13 1355.78 189.19 1354.38 186.71C1353 184.23 1352.31 181.38 1352.31 178.16C1352.31 174.9 1353.01 172.04 1354.41 169.58C1355.81 167.1 1357.74 165.16 1360.2 163.76C1362.66 162.36 1365.47 161.66 1368.63 161.66C1371.85 161.66 1374.64 162.36 1377 163.76C1379.36 165.16 1381.18 167.08 1382.46 169.52C1383.74 171.94 1384.38 174.7 1384.38 177.8C1384.38 178.12 1384.37 178.54 1384.35 179.06C1384.33 179.58 1384.3 179.93 1384.26 180.11H1355.19ZM1404.28 194.48C1403.3 194.48 1402.34 194.37 1401.4 194.15C1400.46 193.93 1399.61 193.54 1398.85 192.98C1398.11 192.4 1397.52 191.59 1397.08 190.55C1396.64 189.49 1396.42 188.13 1396.42 186.47C1396.42 186.05 1396.42 185.62 1396.42 185.18C1396.42 184.72 1396.42 184.24 1396.42 183.74V166.64H1388.65V162.14H1393.63C1394.31 162.14 1394.84 162.12 1395.22 162.08C1395.6 162.02 1395.87 161.89 1396.03 161.69C1396.21 161.47 1396.32 161.14 1396.36 160.7C1396.4 160.24 1396.42 159.61 1396.42 158.81V151.58H1401.55V162.14H1411.51V166.64H1401.55V182.09C1401.55 182.53 1401.55 182.96 1401.55 183.38C1401.55 183.8 1401.55 184.19 1401.55 184.55C1401.55 186.25 1401.75 187.58 1402.15 188.54C1402.57 189.5 1403.5 189.98 1404.94 189.98C1405.52 189.98 1406.07 189.93 1406.59 189.83C1407.11 189.73 1407.5 189.63 1407.76 189.53V193.97C1407.42 194.09 1406.94 194.2 1406.32 194.3C1405.72 194.42 1405.04 194.48 1404.28 194.48ZM1440.88 194V182.15C1440.88 181.59 1440.88 180.93 1440.88 180.17C1440.88 179.39 1440.88 178.61 1440.88 177.83C1440.88 177.03 1440.88 176.35 1440.88 175.79C1440.88 172.73 1440.22 170.42 1438.9 168.86C1437.6 167.3 1435.53 166.52 1432.69 166.52C1430.79 166.52 1429.12 166.89 1427.68 167.63C1426.26 168.37 1425.15 169.38 1424.35 170.66C1423.55 171.94 1423.15 173.39 1423.15 175.01L1419.91 174.02C1419.91 171.74 1420.5 169.67 1421.68 167.81C1422.88 165.93 1424.51 164.44 1426.57 163.34C1428.65 162.22 1431 161.66 1433.62 161.66C1437.44 161.66 1440.45 162.81 1442.65 165.11C1444.87 167.41 1445.98 170.59 1445.98 174.65C1445.98 175.71 1445.98 176.93 1445.98 178.31C1445.98 179.69 1445.98 181.14 1445.98 182.66V194H1440.88ZM1418.05 194V147.11H1423.15V194H1418.05ZM1455.15 194V162.14H1460.19V194H1455.15ZM1457.7 154.82C1456.76 154.82 1455.94 154.56 1455.24 154.04C1454.56 153.5 1454.22 152.77 1454.22 151.85C1454.22 150.95 1454.56 150.24 1455.24 149.72C1455.94 149.18 1456.76 148.91 1457.7 148.91C1458.64 148.91 1459.45 149.18 1460.13 149.72C1460.81 150.24 1461.15 150.95 1461.15 151.85C1461.15 152.77 1460.81 153.5 1460.13 154.04C1459.45 154.56 1458.64 154.82 1457.7 154.82ZM1492.47 194V178.73C1492.47 177.81 1492.47 177.06 1492.47 176.48C1492.47 175.88 1492.47 175.31 1492.47 174.77C1492.47 173.11 1492.19 171.66 1491.63 170.42C1491.07 169.18 1490.19 168.22 1488.99 167.54C1487.79 166.86 1486.22 166.52 1484.28 166.52C1482.58 166.52 1481 166.96 1479.54 167.84C1478.1 168.7 1476.94 169.87 1476.06 171.35C1475.2 172.81 1474.77 174.45 1474.77 176.27L1471.86 175.16C1471.86 172.66 1472.47 170.39 1473.69 168.35C1474.93 166.31 1476.57 164.69 1478.61 163.49C1480.67 162.27 1482.91 161.66 1485.33 161.66C1487.79 161.66 1489.94 162.13 1491.78 163.07C1493.62 164.01 1495.04 165.36 1496.04 167.12C1497.06 168.86 1497.57 170.96 1497.57 173.42C1497.57 174.3 1497.57 175.26 1497.57 176.3C1497.57 177.34 1497.57 178.31 1497.57 179.21V194H1492.47ZM1469.67 194V162.14H1474.77V194H1469.67ZM1526.81 192.05C1528.53 192.19 1530.04 192.51 1531.34 193.01C1532.66 193.49 1533.69 194.2 1534.43 195.14C1535.17 196.1 1535.54 197.35 1535.54 198.89C1535.54 200.59 1534.96 202.09 1533.8 203.39C1532.64 204.71 1530.88 205.74 1528.52 206.48C1526.16 207.22 1523.19 207.59 1519.61 207.59C1514.55 207.59 1510.73 206.85 1508.15 205.37C1505.57 203.91 1504.28 201.91 1504.28 199.37C1504.28 198.57 1504.37 197.86 1504.55 197.24C1504.75 196.64 1504.97 196.15 1505.21 195.77L1510.07 196.49C1509.91 196.71 1509.75 197.04 1509.59 197.48C1509.45 197.94 1509.38 198.47 1509.38 199.07C1509.38 200.67 1510.29 201.79 1512.11 202.43C1513.93 203.09 1516.51 203.42 1519.85 203.42C1522.35 203.42 1524.4 203.25 1526 202.91C1527.6 202.57 1528.79 202.08 1529.57 201.44C1530.35 200.8 1530.74 200.05 1530.74 199.19C1530.74 197.89 1530.19 197.08 1529.09 196.76C1528.01 196.46 1526.67 196.25 1525.07 196.13L1512.95 195.23C1510.93 195.07 1509.28 194.45 1508 193.37C1506.74 192.27 1506.11 190.94 1506.11 189.38C1506.11 188.42 1506.34 187.51 1506.8 186.65C1507.28 185.79 1507.83 185.07 1508.45 184.49C1509.09 183.89 1509.66 183.53 1510.16 183.41L1514.18 185.24C1513.68 185.32 1513.06 185.67 1512.32 186.29C1511.6 186.89 1511.24 187.6 1511.24 188.42C1511.24 189.16 1511.53 189.77 1512.11 190.25C1512.69 190.71 1513.84 191.01 1515.56 191.15L1526.81 192.05ZM1531.22 162.14H1536.02L1534.04 174.68C1533.68 177.02 1532.93 179.14 1531.79 181.04C1530.65 182.92 1529.09 184.42 1527.11 185.54C1525.15 186.64 1522.72 187.19 1519.82 187.19C1516.8 187.19 1514.22 186.64 1512.08 185.54C1509.94 184.44 1508.3 182.94 1507.16 181.04C1506.02 179.12 1505.45 176.96 1505.45 174.56C1505.45 172.12 1506.04 169.93 1507.22 167.99C1508.42 166.03 1510.08 164.49 1512.2 163.37C1514.32 162.23 1516.75 161.66 1519.49 161.66C1521.95 161.66 1524.1 162.09 1525.94 162.95C1527.78 163.79 1529.23 164.85 1530.29 166.13C1531.37 167.41 1531.97 168.7 1532.09 170L1530.17 170.12L1531.22 162.14ZM1519.79 182.63C1521.73 182.63 1523.39 182.31 1524.77 181.67C1526.17 181.03 1527.24 180.1 1527.98 178.88C1528.74 177.66 1529.12 176.18 1529.12 174.44C1529.12 172.76 1528.74 171.31 1527.98 170.09C1527.24 168.85 1526.17 167.9 1524.77 167.24C1523.39 166.56 1521.74 166.22 1519.82 166.22C1517.98 166.22 1516.35 166.57 1514.93 167.27C1513.53 167.95 1512.43 168.91 1511.63 170.15C1510.85 171.39 1510.46 172.85 1510.46 174.53C1510.46 176.23 1510.83 177.69 1511.57 178.91C1512.33 180.11 1513.4 181.03 1514.78 181.67C1516.18 182.31 1517.85 182.63 1519.79 182.63ZM1558.33 194V162.14H1563.37V194H1558.33ZM1560.88 154.82C1559.94 154.82 1559.12 154.56 1558.42 154.04C1557.74 153.5 1557.4 152.77 1557.4 151.85C1557.4 150.95 1557.74 150.24 1558.42 149.72C1559.12 149.18 1559.94 148.91 1560.88 148.91C1561.82 148.91 1562.63 149.18 1563.31 149.72C1563.99 150.24 1564.33 150.95 1564.33 151.85C1564.33 152.77 1563.99 153.5 1563.31 154.04C1562.63 154.56 1561.82 154.82 1560.88 154.82ZM1595.66 194V178.73C1595.66 177.81 1595.66 177.06 1595.66 176.48C1595.66 175.88 1595.66 175.31 1595.66 174.77C1595.66 173.11 1595.38 171.66 1594.82 170.42C1594.26 169.18 1593.38 168.22 1592.18 167.54C1590.98 166.86 1589.41 166.52 1587.47 166.52C1585.77 166.52 1584.19 166.96 1582.73 167.84C1581.29 168.7 1580.13 169.87 1579.25 171.35C1578.39 172.81 1577.96 174.45 1577.96 176.27L1575.05 175.16C1575.05 172.66 1575.66 170.39 1576.88 168.35C1578.12 166.31 1579.76 164.69 1581.8 163.49C1583.86 162.27 1586.1 161.66 1588.52 161.66C1590.98 161.66 1593.13 162.13 1594.97 163.07C1596.81 164.01 1598.23 165.36 1599.23 167.12C1600.25 168.86 1600.76 170.96 1600.76 173.42C1600.76 174.3 1600.76 175.26 1600.76 176.3C1600.76 177.34 1600.76 178.31 1600.76 179.21V194H1595.66ZM1572.86 194V162.14H1577.96V194H1572.86ZM1644.24 194V179.93C1644.24 178.69 1644.24 177.62 1644.24 176.72C1644.24 175.8 1644.24 175.03 1644.24 174.41C1644.24 173.63 1644.18 172.79 1644.06 171.89C1643.96 170.97 1643.71 170.11 1643.31 169.31C1642.91 168.49 1642.28 167.82 1641.42 167.3C1640.58 166.78 1639.41 166.52 1637.91 166.52C1636.39 166.52 1635.11 166.82 1634.07 167.42C1633.03 168 1632.19 168.77 1631.55 169.73C1630.91 170.69 1630.45 171.75 1630.17 172.91C1629.89 174.05 1629.75 175.18 1629.75 176.3L1626.87 175.13C1626.87 172.73 1627.37 170.51 1628.37 168.47C1629.37 166.43 1630.77 164.79 1632.57 163.55C1634.39 162.29 1636.52 161.66 1638.96 161.66C1641.38 161.66 1643.35 162.15 1644.87 163.13C1646.39 164.11 1647.51 165.46 1648.23 167.18C1648.95 168.9 1649.31 170.88 1649.31 173.12C1649.31 173.92 1649.31 174.95 1649.31 176.21C1649.31 177.45 1649.31 178.87 1649.31 180.47V194H1644.24ZM1624.65 194V162.14H1629.75V194H1624.65ZM1663.77 194V179.93C1663.77 178.57 1663.77 177.45 1663.77 176.57C1663.77 175.67 1663.77 174.91 1663.77 174.29C1663.77 173.51 1663.72 172.67 1663.62 171.77C1663.52 170.87 1663.27 170.03 1662.87 169.25C1662.47 168.45 1661.83 167.8 1660.95 167.3C1660.09 166.78 1658.88 166.52 1657.32 166.52C1655.78 166.52 1654.49 166.81 1653.45 167.39C1652.43 167.97 1651.61 168.73 1650.99 169.67C1650.39 170.61 1649.96 171.63 1649.7 172.73C1649.44 173.81 1649.31 174.85 1649.31 175.85L1646.43 174.74C1646.43 172.46 1646.91 170.33 1647.87 168.35C1648.85 166.35 1650.23 164.74 1652.01 163.52C1653.81 162.28 1655.94 161.66 1658.4 161.66C1660.7 161.66 1662.62 162.11 1664.16 163.01C1665.72 163.91 1666.89 165.18 1667.67 166.82C1668.47 168.44 1668.87 170.37 1668.87 172.61C1668.87 173.45 1668.87 174.49 1668.87 175.73C1668.87 176.97 1668.87 178.37 1668.87 179.93V194H1663.77ZM1678.04 194V162.14H1683.08V194H1678.04ZM1680.59 154.82C1679.65 154.82 1678.83 154.56 1678.13 154.04C1677.45 153.5 1677.11 152.77 1677.11 151.85C1677.11 150.95 1677.45 150.24 1678.13 149.72C1678.83 149.18 1679.65 148.91 1680.59 148.91C1681.53 148.91 1682.34 149.18 1683.02 149.72C1683.7 150.24 1684.04 150.95 1684.04 151.85C1684.04 152.77 1683.7 153.5 1683.02 154.04C1682.34 154.56 1681.53 154.82 1680.59 154.82ZM1715.36 194V178.73C1715.36 177.81 1715.36 177.06 1715.36 176.48C1715.36 175.88 1715.36 175.31 1715.36 174.77C1715.36 173.11 1715.08 171.66 1714.52 170.42C1713.96 169.18 1713.08 168.22 1711.88 167.54C1710.68 166.86 1709.11 166.52 1707.17 166.52C1705.47 166.52 1703.89 166.96 1702.43 167.84C1700.99 168.7 1699.83 169.87 1698.95 171.35C1698.09 172.81 1697.66 174.45 1697.66 176.27L1694.75 175.16C1694.75 172.66 1695.36 170.39 1696.58 168.35C1697.82 166.31 1699.46 164.69 1701.5 163.49C1703.56 162.27 1705.8 161.66 1708.22 161.66C1710.68 161.66 1712.83 162.13 1714.67 163.07C1716.51 164.01 1717.93 165.36 1718.93 167.12C1719.95 168.86 1720.46 170.96 1720.46 173.42C1720.46 174.3 1720.46 175.26 1720.46 176.3C1720.46 177.34 1720.46 178.31 1720.46 179.21V194H1715.36ZM1692.56 194V162.14H1697.66V194H1692.56ZM1742.5 194.6C1739.88 194.6 1737.48 193.97 1735.3 192.71C1733.12 191.43 1731.38 189.56 1730.08 187.1C1728.78 184.62 1728.13 181.6 1728.13 178.04C1728.13 174.54 1728.79 171.57 1730.11 169.13C1731.43 166.69 1733.18 164.84 1735.36 163.58C1737.54 162.3 1739.92 161.66 1742.5 161.66C1744.96 161.66 1747.26 162.25 1749.4 163.43C1751.56 164.59 1753.3 166.21 1754.62 168.29C1755.94 170.37 1756.6 172.78 1756.6 175.52C1756.6 175.58 1756.6 175.64 1756.6 175.7C1756.6 175.76 1756.6 175.82 1756.6 175.88L1752.94 176.03C1752.94 175.97 1752.94 175.91 1752.94 175.85C1752.94 175.77 1752.94 175.7 1752.94 175.64C1752.94 173.9 1752.48 172.33 1751.56 170.93C1750.66 169.53 1749.47 168.42 1747.99 167.6C1746.51 166.76 1744.92 166.34 1743.22 166.34C1740.38 166.34 1738.03 167.3 1736.17 169.22C1734.31 171.12 1733.38 174.06 1733.38 178.04C1733.38 182 1734.31 184.95 1736.17 186.89C1738.05 188.81 1740.4 189.77 1743.22 189.77C1745 189.77 1746.62 189.34 1748.08 188.48C1749.56 187.62 1750.74 186.47 1751.62 185.03C1752.5 183.57 1752.94 181.94 1752.94 180.14L1756.6 180.23C1756.6 182.95 1755.97 185.4 1754.71 187.58C1753.45 189.74 1751.75 191.45 1749.61 192.71C1747.49 193.97 1745.12 194.6 1742.5 194.6ZM1752.94 194V147.11H1758.07V194H1752.94ZM1775.65 183.68C1775.65 181.88 1775.93 180.28 1776.49 178.88C1777.05 177.48 1777.76 176.2 1778.62 175.04C1779.48 173.88 1780.37 172.77 1781.29 171.71C1782.13 170.75 1782.92 169.78 1783.66 168.8C1784.4 167.8 1785 166.73 1785.46 165.59C1785.92 164.45 1786.15 163.17 1786.15 161.75C1786.15 159.03 1785.48 157 1784.14 155.66C1782.82 154.3 1780.85 153.62 1778.23 153.62C1775.55 153.62 1773.51 154.38 1772.11 155.9C1770.71 157.42 1770.01 159.7 1770.01 162.74H1765.42C1765.42 159.76 1765.97 157.29 1767.07 155.33C1768.17 153.35 1769.68 151.87 1771.6 150.89C1773.52 149.91 1775.72 149.42 1778.2 149.42C1780.68 149.42 1782.85 149.9 1784.71 150.86C1786.59 151.82 1788.06 153.24 1789.12 155.12C1790.18 156.98 1790.71 159.28 1790.71 162.02C1790.71 163.86 1790.42 165.49 1789.84 166.91C1789.26 168.31 1788.52 169.57 1787.62 170.69C1786.72 171.81 1785.79 172.88 1784.83 173.9C1783.51 175.32 1782.33 176.78 1781.29 178.28C1780.25 179.76 1779.73 181.56 1779.73 183.68H1775.65ZM1777.99 194.78C1777.01 194.78 1776.18 194.45 1775.5 193.79C1774.82 193.11 1774.48 192.28 1774.48 191.3C1774.48 190.34 1774.82 189.52 1775.5 188.84C1776.18 188.16 1777.01 187.82 1777.99 187.82C1778.95 187.82 1779.77 188.16 1780.45 188.84C1781.13 189.52 1781.47 190.34 1781.47 191.3C1781.47 192.28 1781.13 193.11 1780.45 193.79C1779.77 194.45 1778.95 194.78 1777.99 194.78Z" fill="white"/>
<defs>
<clipPath id="clip0_1_572">
<rect width="72" height="10" fill="white" transform="translate(80 101)"/>
</clipPath>
</defs>
</svg>
