<svg width="1280" height="44" viewBox="0 0 1280 44" fill="none" xmlns="http://www.w3.org/2000/svg">
<path d="M6.616 15.776C5.52267 15.776 4.53867 15.544 3.664 15.08C2.79467 14.616 2.10667 13.9573 1.6 13.104C1.09867 12.2453 0.848 11.2347 0.848 10.072C0.848 8.90933 1.09867 7.904 1.6 7.056C2.10667 6.208 2.79467 5.552 3.664 5.088C4.53867 4.624 5.52267 4.392 6.616 4.392C7.704 4.392 8.68 4.624 9.544 5.088C10.4133 5.552 11.0987 6.208 11.6 7.056C12.1067 7.904 12.36 8.90933 12.36 10.072C12.36 11.2347 12.1067 12.2453 11.6 13.104C11.0987 13.9573 10.4133 14.616 9.544 15.08C8.68 15.544 7.704 15.776 6.616 15.776ZM6.616 15.232C7.58667 15.232 8.46133 15.0213 9.24 14.6C10.024 14.1787 10.6453 13.5813 11.104 12.808C11.5627 12.0347 11.792 11.1227 11.792 10.072C11.792 9.02667 11.5627 8.12 11.104 7.352C10.6453 6.57867 10.024 5.98133 9.24 5.56C8.46133 5.13867 7.58667 4.928 6.616 4.928C5.64 4.928 4.75733 5.13867 3.968 5.56C3.184 5.98133 2.56267 6.57867 2.104 7.352C1.64533 8.12 1.416 9.02667 1.416 10.072C1.416 11.1227 1.64533 12.0347 2.104 12.808C2.56267 13.5813 3.184 14.1787 3.968 14.6C4.75733 15.0213 5.64 15.232 6.616 15.232ZM6.632 13.904C5.992 13.904 5.408 13.76 4.88 13.472C4.35733 13.184 3.94133 12.7547 3.632 12.184C3.32267 11.608 3.168 10.896 3.168 10.048C3.168 9.24267 3.30667 8.55733 3.584 7.992C3.86667 7.42667 4.26667 6.99467 4.784 6.696C5.30133 6.392 5.91733 6.24 6.632 6.24C7.21333 6.24 7.704 6.33867 8.104 6.536C8.50933 6.728 8.83467 6.97067 9.08 7.264C9.33067 7.55733 9.512 7.85867 9.624 8.168C9.736 8.47733 9.792 8.744 9.792 8.968C9.792 8.984 9.792 9.00267 9.792 9.024C9.792 9.04 9.792 9.05867 9.792 9.08H8.768C8.768 9.064 8.768 9.05333 8.768 9.048C8.768 9.03733 8.768 9.024 8.768 9.008C8.768 8.86933 8.73333 8.69067 8.664 8.472C8.6 8.25333 8.488 8.03733 8.328 7.824C8.17333 7.60533 7.95733 7.424 7.68 7.28C7.40267 7.13067 7.05333 7.056 6.632 7.056C5.85333 7.056 5.25333 7.312 4.832 7.824C4.416 8.336 4.208 9.072 4.208 10.032C4.208 10.6933 4.30933 11.2507 4.512 11.704C4.72 12.1573 5.00533 12.5013 5.368 12.736C5.736 12.9653 6.15733 13.08 6.632 13.08C7.05333 13.08 7.424 12.9893 7.744 12.808C8.064 12.6213 8.31467 12.376 8.496 12.072C8.67733 11.7627 8.768 11.4267 8.768 11.064H9.792C9.792 11.6293 9.65333 12.1253 9.376 12.552C9.09867 12.9787 8.72 13.312 8.24 13.552C7.76533 13.7867 7.22933 13.904 6.632 13.904ZM26.1993 5.4H22.7913L23.1033 4.624V16H21.7433V4.624L22.1273 5.4H18.6553V4.2H26.1993V5.4ZM27.1328 12.296V11.08H33.7008L33.4608 11.48C33.4608 11.448 33.4608 11.4187 33.4608 11.392C33.4608 11.36 33.4608 11.3307 33.4608 11.304C33.4608 10.8133 33.3568 10.3653 33.1488 9.96C32.9461 9.54933 32.6421 9.22133 32.2368 8.976C31.8314 8.73067 31.3301 8.608 30.7328 8.608C30.1301 8.608 29.5994 8.736 29.1408 8.992C28.6821 9.248 28.3248 9.61067 28.0688 10.08C27.8128 10.544 27.6848 11.0987 27.6848 11.744C27.6848 12.4 27.8074 12.9653 28.0528 13.44C28.3034 13.9147 28.6581 14.28 29.1168 14.536C29.5754 14.792 30.1194 14.92 30.7488 14.92C31.1968 14.92 31.5861 14.8747 31.9168 14.784C32.2474 14.688 32.5194 14.5627 32.7328 14.408C32.9514 14.248 33.1168 14.0747 33.2288 13.888C33.3408 13.7013 33.4074 13.5147 33.4288 13.328H34.7888C34.7621 13.6693 34.6554 14.008 34.4688 14.344C34.2821 14.68 34.0181 14.9867 33.6768 15.264C33.3354 15.536 32.9168 15.7547 32.4208 15.92C31.9248 16.0853 31.3541 16.168 30.7088 16.168C29.8554 16.168 29.1034 15.9813 28.4528 15.608C27.8021 15.2347 27.2901 14.7173 26.9168 14.056C26.5488 13.3947 26.3648 12.6347 26.3648 11.776C26.3648 10.9067 26.5514 10.144 26.9248 9.488C27.2981 8.82667 27.8128 8.30933 28.4688 7.936C29.1248 7.56267 29.8741 7.376 30.7168 7.376C31.5754 7.376 32.3194 7.56267 32.9488 7.936C33.5781 8.30933 34.0634 8.82133 34.4048 9.472C34.7461 10.1173 34.9168 10.8533 34.9168 11.68C34.9168 11.7653 34.9141 11.8773 34.9088 12.016C34.9034 12.1547 34.8954 12.248 34.8848 12.296H27.1328ZM42.2605 16V12.248C42.2605 11.9173 42.2605 11.632 42.2605 11.392C42.2605 11.1467 42.2605 10.9413 42.2605 10.776C42.2605 10.568 42.2445 10.344 42.2125 10.104C42.1858 9.85867 42.1192 9.62933 42.0125 9.416C41.9058 9.19733 41.7378 9.01867 41.5085 8.88C41.2845 8.74133 40.9725 8.672 40.5725 8.672C40.1672 8.672 39.8258 8.752 39.5485 8.912C39.2712 9.06667 39.0472 9.272 38.8765 9.528C38.7058 9.784 38.5832 10.0667 38.5085 10.376C38.4338 10.68 38.3965 10.9813 38.3965 11.28L37.6285 10.968C37.6285 10.328 37.7618 9.736 38.0285 9.192C38.2952 8.648 38.6685 8.21067 39.1485 7.88C39.6338 7.544 40.2018 7.376 40.8525 7.376C41.4978 7.376 42.0232 7.50667 42.4285 7.768C42.8338 8.02933 43.1325 8.38933 43.3245 8.848C43.5165 9.30667 43.6125 9.83467 43.6125 10.432C43.6125 10.6453 43.6125 10.92 43.6125 11.256C43.6125 11.5867 43.6125 11.9653 43.6125 12.392V16H42.2605ZM37.0365 16V7.504H38.3965V16H37.0365ZM47.4685 16V12.248C47.4685 11.8853 47.4685 11.5867 47.4685 11.352C47.4685 11.112 47.4685 10.9093 47.4685 10.744C47.4685 10.536 47.4552 10.312 47.4285 10.072C47.4018 9.832 47.3352 9.608 47.2285 9.4C47.1218 9.18667 46.9512 9.01333 46.7165 8.88C46.4872 8.74133 46.1645 8.672 45.7485 8.672C45.3378 8.672 44.9938 8.74933 44.7165 8.904C44.4445 9.05867 44.2258 9.26133 44.0605 9.512C43.9005 9.76267 43.7858 10.0347 43.7165 10.328C43.6472 10.616 43.6125 10.8933 43.6125 11.16L42.8445 10.864C42.8445 10.256 42.9725 9.688 43.2285 9.16C43.4898 8.62667 43.8578 8.19733 44.3325 7.872C44.8125 7.54133 45.3805 7.376 46.0365 7.376C46.6498 7.376 47.1618 7.496 47.5725 7.736C47.9885 7.976 48.3005 8.31467 48.5085 8.752C48.7218 9.184 48.8285 9.69867 48.8285 10.296C48.8285 10.52 48.8285 10.7973 48.8285 11.128C48.8285 11.4587 48.8285 11.832 48.8285 12.248V16H47.4685ZM51.1928 19.496V7.504H52.5528V19.496H51.1928ZM55.3448 16.16C54.6888 16.16 54.0754 16 53.5048 15.68C52.9341 15.3547 52.4701 14.9093 52.1128 14.344C51.7608 13.7787 51.5848 13.1333 51.5848 12.408C51.5848 12.392 51.5848 12.3787 51.5848 12.368C51.5848 12.3573 51.5848 12.344 51.5848 12.328L52.5608 12.304C52.5608 12.3147 52.5608 12.328 52.5608 12.344C52.5608 12.3547 52.5608 12.3653 52.5608 12.376C52.5608 12.8347 52.6808 13.2533 52.9208 13.632C53.1661 14.0107 53.4861 14.312 53.8808 14.536C54.2754 14.76 54.6994 14.872 55.1528 14.872C55.9048 14.872 56.5288 14.616 57.0248 14.104C57.5261 13.5867 57.7768 12.8 57.7768 11.744C57.7768 10.6827 57.5288 9.89867 57.0328 9.392C56.5368 8.88 55.9101 8.624 55.1528 8.624C54.6994 8.624 54.2754 8.736 53.8808 8.96C53.4861 9.17867 53.1661 9.47467 52.9208 9.848C52.6808 10.2213 52.5608 10.64 52.5608 11.104L51.5848 11.072C51.5848 10.3413 51.7608 9.69867 52.1128 9.144C52.4701 8.58933 52.9341 8.15733 53.5048 7.848C54.0754 7.53333 54.6888 7.376 55.3448 7.376C56.0328 7.376 56.6674 7.54667 57.2488 7.888C57.8301 8.224 58.2968 8.71733 58.6488 9.368C59.0008 10.0187 59.1768 10.8107 59.1768 11.744C59.1768 12.6933 59.0034 13.4987 58.6568 14.16C58.3101 14.816 57.8461 15.3147 57.2648 15.656C56.6834 15.992 56.0434 16.16 55.3448 16.16ZM62.7661 3.496V16H61.4221V3.496H62.7661ZM68.2233 16.16C67.5779 16.16 67.0126 16.0587 66.5273 15.856C66.0473 15.6533 65.6739 15.3627 65.4073 14.984C65.1406 14.6 65.0073 14.1413 65.0073 13.608C65.0073 13.0533 65.1513 12.592 65.4393 12.224C65.7273 11.8507 66.1326 11.56 66.6553 11.352C67.1779 11.144 67.7859 11.0053 68.4793 10.936C69.5246 10.8293 70.2686 10.7253 70.7113 10.624C71.1539 10.5173 71.3753 10.3467 71.3753 10.112C71.3753 10.1067 71.3753 10.104 71.3753 10.104C71.3753 10.0987 71.3753 10.0933 71.3753 10.088C71.3753 9.59733 71.1753 9.232 70.7753 8.992C70.3753 8.74667 69.7966 8.624 69.0393 8.624C68.2499 8.624 67.6366 8.76267 67.1993 9.04C66.7619 9.312 66.5433 9.75467 66.5433 10.368H65.1993C65.1993 9.73333 65.3619 9.19467 65.6873 8.752C66.0126 8.304 66.4633 7.96267 67.0393 7.728C67.6206 7.49333 68.2899 7.376 69.0473 7.376C69.7406 7.376 70.3646 7.48267 70.9193 7.696C71.4793 7.904 71.9219 8.216 72.2473 8.632C72.5779 9.04267 72.7433 9.552 72.7433 10.16C72.7433 10.272 72.7433 10.384 72.7433 10.496C72.7433 10.6027 72.7433 10.712 72.7433 10.824V14.4C72.7433 14.5867 72.7513 14.768 72.7673 14.944C72.7833 15.12 72.8099 15.2747 72.8472 15.408C72.8953 15.568 72.9486 15.6987 73.0073 15.8C73.0659 15.896 73.1139 15.9627 73.1513 16H71.7833C71.7566 15.9733 71.7166 15.912 71.6633 15.816C71.6099 15.7147 71.5593 15.5973 71.5113 15.464C71.4739 15.3573 71.4446 15.224 71.4233 15.064C71.4019 14.8987 71.3913 14.728 71.3913 14.552L71.6153 14.704C71.4499 14.992 71.2073 15.2453 70.8873 15.464C70.5726 15.6827 70.1913 15.8533 69.7433 15.976C69.2953 16.0987 68.7886 16.16 68.2233 16.16ZM68.4392 14.936C68.9886 14.936 69.4846 14.8533 69.9273 14.688C70.3699 14.5173 70.7219 14.2667 70.9833 13.936C71.2446 13.6053 71.3753 13.1947 71.3753 12.704V11.016L71.6793 11.528C71.3379 11.6613 70.9113 11.7707 70.3993 11.856C69.8926 11.936 69.3619 12.0027 68.8073 12.056C68.0019 12.1307 67.3939 12.272 66.9833 12.48C66.5779 12.688 66.3753 13.0373 66.3753 13.528C66.3753 13.992 66.5433 14.344 66.8793 14.584C67.2153 14.8187 67.7353 14.936 68.4392 14.936ZM78.1309 16.128C77.8695 16.128 77.6135 16.0987 77.3629 16.04C77.1122 15.9813 76.8855 15.8773 76.6829 15.728C76.4855 15.5733 76.3282 15.3573 76.2109 15.08C76.0935 14.7973 76.0349 14.4347 76.0349 13.992C76.0349 13.88 76.0349 13.7653 76.0349 13.648C76.0349 13.5253 76.0349 13.3973 76.0349 13.264V8.704H73.9629V7.504H75.2909C75.4722 7.504 75.6135 7.49867 75.7149 7.488C75.8162 7.472 75.8882 7.43733 75.9309 7.384C75.9789 7.32533 76.0082 7.23733 76.0189 7.12C76.0295 6.99733 76.0349 6.82933 76.0349 6.616V4.688H77.4029V7.504H80.0589V8.704H77.4029V12.824C77.4029 12.9413 77.4029 13.056 77.4029 13.168C77.4029 13.28 77.4029 13.384 77.4029 13.48C77.4029 13.9333 77.4562 14.288 77.5629 14.544C77.6749 14.8 77.9229 14.928 78.3069 14.928C78.4615 14.928 78.6082 14.9147 78.7469 14.888C78.8855 14.8613 78.9895 14.8347 79.0589 14.808V15.992C78.9682 16.024 78.8402 16.0533 78.6749 16.08C78.5149 16.112 78.3335 16.128 78.1309 16.128ZM81.9609 12.296V11.08H88.5289L88.2889 11.48C88.2889 11.448 88.2889 11.4187 88.2889 11.392C88.2889 11.36 88.2889 11.3307 88.2889 11.304C88.2889 10.8133 88.1849 10.3653 87.9769 9.96C87.7742 9.54933 87.4702 9.22133 87.0649 8.976C86.6595 8.73067 86.1582 8.608 85.5609 8.608C84.9582 8.608 84.4275 8.736 83.9689 8.992C83.5102 9.248 83.1529 9.61067 82.8969 10.08C82.6409 10.544 82.5129 11.0987 82.5129 11.744C82.5129 12.4 82.6355 12.9653 82.8809 13.44C83.1315 13.9147 83.4862 14.28 83.9449 14.536C84.4035 14.792 84.9475 14.92 85.5769 14.92C86.0249 14.92 86.4142 14.8747 86.7449 14.784C87.0755 14.688 87.3475 14.5627 87.5609 14.408C87.7795 14.248 87.9449 14.0747 88.0569 13.888C88.1689 13.7013 88.2355 13.5147 88.2569 13.328H89.6169C89.5902 13.6693 89.4835 14.008 89.2969 14.344C89.1102 14.68 88.8462 14.9867 88.5049 15.264C88.1635 15.536 87.7449 15.7547 87.2489 15.92C86.7529 16.0853 86.1822 16.168 85.5369 16.168C84.6835 16.168 83.9315 15.9813 83.2809 15.608C82.6302 15.2347 82.1182 14.7173 81.7449 14.056C81.3769 13.3947 81.1929 12.6347 81.1929 11.776C81.1929 10.9067 81.3795 10.144 81.7529 9.488C82.1262 8.82667 82.6409 8.30933 83.2969 7.936C83.9529 7.56267 84.7022 7.376 85.5449 7.376C86.4035 7.376 87.1475 7.56267 87.7769 7.936C88.4062 8.30933 88.8915 8.82133 89.2329 9.472C89.5742 10.1173 89.7449 10.8533 89.7449 11.68C89.7449 11.7653 89.7422 11.8773 89.7369 12.016C89.7315 12.1547 89.7235 12.248 89.7129 12.296H81.9609ZM100.017 16.16C99.3606 16.16 98.7473 16 98.1766 15.68C97.606 15.3547 97.142 14.9093 96.7846 14.344C96.4326 13.7787 96.2566 13.1333 96.2566 12.408C96.2566 12.392 96.2566 12.3787 96.2566 12.368C96.2566 12.3573 96.2566 12.344 96.2566 12.328L97.2326 12.304C97.2326 12.3147 97.2326 12.328 97.2326 12.344C97.2326 12.3547 97.2326 12.3653 97.2326 12.376C97.2326 12.8347 97.3526 13.2533 97.5926 13.632C97.838 14.0107 98.158 14.312 98.5526 14.536C98.9473 14.76 99.3713 14.872 99.8246 14.872C100.577 14.872 101.201 14.616 101.697 14.104C102.198 13.5867 102.449 12.8 102.449 11.744C102.449 10.6827 102.201 9.89867 101.705 9.392C101.209 8.88 100.582 8.624 99.8246 8.624C99.3713 8.624 98.9473 8.736 98.5526 8.96C98.158 9.17867 97.838 9.47467 97.5926 9.848C97.3526 10.2213 97.2326 10.64 97.2326 11.104L96.2566 11.072C96.2566 10.3413 96.4326 9.69867 96.7846 9.144C97.142 8.58933 97.606 8.15733 98.1766 7.848C98.7473 7.53333 99.3606 7.376 100.017 7.376C100.705 7.376 101.339 7.54667 101.921 7.888C102.502 8.224 102.969 8.71733 103.321 9.368C103.673 10.0187 103.849 10.8107 103.849 11.744C103.849 12.6933 103.675 13.4987 103.329 14.16C102.982 14.816 102.518 15.3147 101.937 15.656C101.355 15.992 100.715 16.16 100.017 16.16ZM95.8646 16V3.496H97.2326V16H95.8646ZM105.714 19.584C105.501 19.584 105.306 19.5707 105.13 19.544C104.954 19.5227 104.845 19.5013 104.802 19.48V18.296C104.872 18.328 104.986 18.3547 105.146 18.376C105.306 18.3973 105.466 18.408 105.626 18.408C105.968 18.408 106.256 18.336 106.49 18.192C106.725 18.0533 106.922 17.8613 107.082 17.616C107.242 17.376 107.373 17.104 107.474 16.8L107.73 16.048L104.802 7.504H106.226L108.578 14.824H108.386L110.69 7.504H112.09L108.978 16.728C108.802 17.2453 108.589 17.72 108.338 18.152C108.093 18.584 107.762 18.9307 107.346 19.192C106.936 19.4533 106.392 19.584 105.714 19.584Z" fill="white"/>
<path d="M223.712 11.904V11.04H229.28V11.904H223.712ZM237.074 16H235.706V4.2H239.018C239.93 4.2 240.687 4.37067 241.29 4.712C241.893 5.048 242.343 5.50133 242.642 6.072C242.941 6.64267 243.09 7.27733 243.09 7.976C243.09 8.67467 242.935 9.32 242.626 9.912C242.322 10.504 241.866 10.9813 241.258 11.344C240.655 11.7013 239.909 11.88 239.018 11.88H237.074V16ZM237.074 11.376L236.458 10.68H238.85C239.49 10.68 240.021 10.568 240.442 10.344C240.869 10.1147 241.186 9.79733 241.394 9.392C241.607 8.98667 241.714 8.51467 241.714 7.976C241.714 7.432 241.613 6.968 241.41 6.584C241.207 6.2 240.895 5.90667 240.474 5.704C240.053 5.50133 239.511 5.4 238.85 5.4H236.458L237.074 4.624V11.376ZM248.607 16.152C247.754 16.152 246.999 15.9627 246.343 15.584C245.693 15.2 245.181 14.6773 244.807 14.016C244.439 13.3493 244.255 12.592 244.255 11.744C244.255 10.896 244.439 10.144 244.807 9.488C245.181 8.832 245.693 8.31733 246.343 7.944C246.999 7.57067 247.754 7.384 248.607 7.384C249.461 7.384 250.213 7.57067 250.863 7.944C251.519 8.31733 252.031 8.832 252.399 9.488C252.773 10.144 252.959 10.896 252.959 11.744C252.959 12.592 252.773 13.3493 252.399 14.016C252.031 14.6773 251.519 15.2 250.863 15.584C250.213 15.9627 249.461 16.152 248.607 16.152ZM248.607 14.904C249.194 14.904 249.711 14.7733 250.159 14.512C250.607 14.2507 250.957 13.8827 251.207 13.408C251.463 12.9333 251.591 12.3787 251.591 11.744C251.591 11.1093 251.463 10.56 251.207 10.096C250.957 9.62667 250.607 9.26667 250.159 9.016C249.711 8.76 249.194 8.632 248.607 8.632C248.026 8.632 247.509 8.76 247.055 9.016C246.607 9.26667 246.255 9.62667 245.999 10.096C245.749 10.56 245.623 11.1093 245.623 11.744C245.623 12.3787 245.749 12.9333 245.999 13.408C246.255 13.8827 246.607 14.2507 247.055 14.512C247.509 14.7733 248.026 14.904 248.607 14.904ZM261.689 16L259.313 7.504H260.521L262.769 15.4H262.521L264.009 7.504H265.425L263.593 16H261.689ZM255.945 16L254.097 7.504H255.513L257.017 15.4H256.769L258.993 7.504H260.201L257.857 16H255.945ZM267.414 12.296V11.08H273.982L273.742 11.48C273.742 11.448 273.742 11.4187 273.742 11.392C273.742 11.36 273.742 11.3307 273.742 11.304C273.742 10.8133 273.638 10.3653 273.43 9.96C273.227 9.54933 272.923 9.22133 272.518 8.976C272.113 8.73067 271.611 8.608 271.014 8.608C270.411 8.608 269.881 8.736 269.422 8.992C268.963 9.248 268.606 9.61067 268.35 10.08C268.094 10.544 267.966 11.0987 267.966 11.744C267.966 12.4 268.089 12.9653 268.334 13.44C268.585 13.9147 268.939 14.28 269.398 14.536C269.857 14.792 270.401 14.92 271.03 14.92C271.478 14.92 271.867 14.8747 272.198 14.784C272.529 14.688 272.801 14.5627 273.014 14.408C273.233 14.248 273.398 14.0747 273.51 13.888C273.622 13.7013 273.689 13.5147 273.71 13.328H275.07C275.043 13.6693 274.937 14.008 274.75 14.344C274.563 14.68 274.299 14.9867 273.958 15.264C273.617 15.536 273.198 15.7547 272.702 15.92C272.206 16.0853 271.635 16.168 270.99 16.168C270.137 16.168 269.385 15.9813 268.734 15.608C268.083 15.2347 267.571 14.7173 267.198 14.056C266.83 13.3947 266.646 12.6347 266.646 11.776C266.646 10.9067 266.833 10.144 267.206 9.488C267.579 8.82667 268.094 8.30933 268.75 7.936C269.406 7.56267 270.155 7.376 270.998 7.376C271.857 7.376 272.601 7.56267 273.23 7.936C273.859 8.30933 274.345 8.82133 274.686 9.472C275.027 10.1173 275.198 10.8533 275.198 11.68C275.198 11.7653 275.195 11.8773 275.19 12.016C275.185 12.1547 275.177 12.248 275.166 12.296H267.414ZM277.318 16V7.504H278.678V10.112L278.23 9.952C278.262 9.63733 278.342 9.328 278.47 9.024C278.598 8.71467 278.774 8.43733 278.998 8.192C279.227 7.94133 279.512 7.744 279.854 7.6C280.195 7.45067 280.595 7.376 281.054 7.376C281.395 7.376 281.672 7.40533 281.886 7.464C282.104 7.51733 282.24 7.56 282.294 7.592L281.942 8.928C281.888 8.89067 281.779 8.84267 281.614 8.784C281.454 8.72533 281.224 8.696 280.926 8.696C280.483 8.696 280.115 8.776 279.822 8.936C279.534 9.096 279.304 9.30933 279.134 9.576C278.968 9.83733 278.851 10.1227 278.782 10.432C278.712 10.7413 278.678 11.048 278.678 11.352V16H277.318ZM284.039 12.296V11.08H290.607L290.367 11.48C290.367 11.448 290.367 11.4187 290.367 11.392C290.367 11.36 290.367 11.3307 290.367 11.304C290.367 10.8133 290.263 10.3653 290.055 9.96C289.852 9.54933 289.548 9.22133 289.143 8.976C288.738 8.73067 288.236 8.608 287.639 8.608C287.036 8.608 286.506 8.736 286.047 8.992C285.588 9.248 285.231 9.61067 284.975 10.08C284.719 10.544 284.591 11.0987 284.591 11.744C284.591 12.4 284.714 12.9653 284.959 13.44C285.21 13.9147 285.564 14.28 286.023 14.536C286.482 14.792 287.026 14.92 287.655 14.92C288.103 14.92 288.492 14.8747 288.823 14.784C289.154 14.688 289.426 14.5627 289.639 14.408C289.858 14.248 290.023 14.0747 290.135 13.888C290.247 13.7013 290.314 13.5147 290.335 13.328H291.695C291.668 13.6693 291.562 14.008 291.375 14.344C291.188 14.68 290.924 14.9867 290.583 15.264C290.242 15.536 289.823 15.7547 289.327 15.92C288.831 16.0853 288.26 16.168 287.615 16.168C286.762 16.168 286.01 15.9813 285.359 15.608C284.708 15.2347 284.196 14.7173 283.823 14.056C283.455 13.3947 283.271 12.6347 283.271 11.776C283.271 10.9067 283.458 10.144 283.831 9.488C284.204 8.82667 284.719 8.30933 285.375 7.936C286.031 7.56267 286.78 7.376 287.623 7.376C288.482 7.376 289.226 7.56267 289.855 7.936C290.484 8.30933 290.97 8.82133 291.311 9.472C291.652 10.1173 291.823 10.8533 291.823 11.68C291.823 11.7653 291.82 11.8773 291.815 12.016C291.81 12.1547 291.802 12.248 291.791 12.296H284.039ZM297.447 16.16C296.748 16.16 296.108 15.992 295.527 15.656C294.945 15.3147 294.481 14.816 294.135 14.16C293.788 13.4987 293.615 12.6933 293.615 11.744C293.615 10.8107 293.791 10.0187 294.143 9.368C294.495 8.71733 294.961 8.224 295.543 7.888C296.124 7.54667 296.759 7.376 297.447 7.376C298.103 7.376 298.716 7.53333 299.287 7.848C299.863 8.15733 300.327 8.58933 300.679 9.144C301.031 9.69867 301.207 10.3413 301.207 11.072C301.207 11.088 301.207 11.104 301.207 11.12C301.207 11.136 301.207 11.152 301.207 11.168L300.231 11.208C300.231 11.192 300.231 11.176 300.231 11.16C300.231 11.1387 300.231 11.12 300.231 11.104C300.231 10.64 300.108 10.2213 299.863 9.848C299.623 9.47467 299.305 9.17867 298.911 8.96C298.516 8.736 298.092 8.624 297.639 8.624C296.881 8.624 296.255 8.88 295.759 9.392C295.263 9.89867 295.015 10.6827 295.015 11.744C295.015 12.8 295.263 13.5867 295.759 14.104C296.26 14.616 296.887 14.872 297.639 14.872C298.113 14.872 298.545 14.7573 298.935 14.528C299.329 14.2987 299.644 13.992 299.879 13.608C300.113 13.2187 300.231 12.784 300.231 12.304L301.207 12.328C301.207 13.0533 301.039 13.7067 300.703 14.288C300.367 14.864 299.913 15.32 299.343 15.656C298.777 15.992 298.145 16.16 297.447 16.16ZM300.231 16V3.496H301.599V16H300.231ZM312.142 16.16C311.486 16.16 310.872 16 310.302 15.68C309.731 15.3547 309.267 14.9093 308.91 14.344C308.558 13.7787 308.382 13.1333 308.382 12.408C308.382 12.392 308.382 12.3787 308.382 12.368C308.382 12.3573 308.382 12.344 308.382 12.328L309.358 12.304C309.358 12.3147 309.358 12.328 309.358 12.344C309.358 12.3547 309.358 12.3653 309.358 12.376C309.358 12.8347 309.478 13.2533 309.718 13.632C309.963 14.0107 310.283 14.312 310.678 14.536C311.072 14.76 311.496 14.872 311.95 14.872C312.702 14.872 313.326 14.616 313.822 14.104C314.323 13.5867 314.574 12.8 314.574 11.744C314.574 10.6827 314.326 9.89867 313.83 9.392C313.334 8.88 312.707 8.624 311.95 8.624C311.496 8.624 311.072 8.736 310.678 8.96C310.283 9.17867 309.963 9.47467 309.718 9.848C309.478 10.2213 309.358 10.64 309.358 11.104L308.382 11.072C308.382 10.3413 308.558 9.69867 308.91 9.144C309.267 8.58933 309.731 8.15733 310.302 7.848C310.872 7.53333 311.486 7.376 312.142 7.376C312.83 7.376 313.464 7.54667 314.046 7.888C314.627 8.224 315.094 8.71733 315.446 9.368C315.798 10.0187 315.974 10.8107 315.974 11.744C315.974 12.6933 315.8 13.4987 315.454 14.16C315.107 14.816 314.643 15.3147 314.062 15.656C313.48 15.992 312.84 16.16 312.142 16.16ZM307.99 16V3.496H309.358V16H307.99ZM317.839 19.584C317.626 19.584 317.431 19.5707 317.255 19.544C317.079 19.5227 316.97 19.5013 316.927 19.48V18.296C316.997 18.328 317.111 18.3547 317.271 18.376C317.431 18.3973 317.591 18.408 317.751 18.408C318.093 18.408 318.381 18.336 318.615 18.192C318.85 18.0533 319.047 17.8613 319.207 17.616C319.367 17.376 319.498 17.104 319.599 16.8L319.855 16.048L316.927 7.504H318.351L320.703 14.824H320.511L322.815 7.504H324.215L321.103 16.728C320.927 17.2453 320.714 17.72 320.463 18.152C320.218 18.584 319.887 18.9307 319.471 19.192C319.061 19.4533 318.517 19.584 317.839 19.584Z" fill="white"/>
<path d="M336.552 16L334.68 4.2H336.088L337.68 15.416L337.472 15.408L339.992 4.2H341.8L344.312 15.408L344.104 15.416L345.696 4.2H347.112L345.224 16H343.12L340.816 5.352H340.976L338.664 16H336.552ZM348.82 12.296V11.08H355.388L355.148 11.48C355.148 11.448 355.148 11.4187 355.148 11.392C355.148 11.36 355.148 11.3307 355.148 11.304C355.148 10.8133 355.044 10.3653 354.836 9.96C354.634 9.54933 354.33 9.22133 353.924 8.976C353.519 8.73067 353.018 8.608 352.42 8.608C351.818 8.608 351.287 8.736 350.828 8.992C350.37 9.248 350.012 9.61067 349.756 10.08C349.5 10.544 349.372 11.0987 349.372 11.744C349.372 12.4 349.495 12.9653 349.74 13.44C349.991 13.9147 350.346 14.28 350.804 14.536C351.263 14.792 351.807 14.92 352.436 14.92C352.884 14.92 353.274 14.8747 353.604 14.784C353.935 14.688 354.207 14.5627 354.42 14.408C354.639 14.248 354.804 14.0747 354.916 13.888C355.028 13.7013 355.095 13.5147 355.116 13.328H356.476C356.45 13.6693 356.343 14.008 356.156 14.344C355.97 14.68 355.706 14.9867 355.364 15.264C355.023 15.536 354.604 15.7547 354.108 15.92C353.612 16.0853 353.042 16.168 352.396 16.168C351.543 16.168 350.791 15.9813 350.14 15.608C349.49 15.2347 348.978 14.7173 348.604 14.056C348.236 13.3947 348.052 12.6347 348.052 11.776C348.052 10.9067 348.239 10.144 348.612 9.488C348.986 8.82667 349.5 8.30933 350.156 7.936C350.812 7.56267 351.562 7.376 352.404 7.376C353.263 7.376 354.007 7.56267 354.636 7.936C355.266 8.30933 355.751 8.82133 356.092 9.472C356.434 10.1173 356.604 10.8533 356.604 11.68C356.604 11.7653 356.602 11.8773 356.596 12.016C356.591 12.1547 356.583 12.248 356.572 12.296H348.82ZM362.876 16.16C362.22 16.16 361.607 16 361.036 15.68C360.465 15.3547 360.001 14.9093 359.644 14.344C359.292 13.7787 359.116 13.1333 359.116 12.408C359.116 12.392 359.116 12.3787 359.116 12.368C359.116 12.3573 359.116 12.344 359.116 12.328L360.092 12.304C360.092 12.3147 360.092 12.328 360.092 12.344C360.092 12.3547 360.092 12.3653 360.092 12.376C360.092 12.8347 360.212 13.2533 360.452 13.632C360.697 14.0107 361.017 14.312 361.412 14.536C361.807 14.76 362.231 14.872 362.684 14.872C363.436 14.872 364.06 14.616 364.556 14.104C365.057 13.5867 365.308 12.8 365.308 11.744C365.308 10.6827 365.06 9.89867 364.564 9.392C364.068 8.88 363.441 8.624 362.684 8.624C362.231 8.624 361.807 8.736 361.412 8.96C361.017 9.17867 360.697 9.47467 360.452 9.848C360.212 10.2213 360.092 10.64 360.092 11.104L359.116 11.072C359.116 10.3413 359.292 9.69867 359.644 9.144C360.001 8.58933 360.465 8.15733 361.036 7.848C361.607 7.53333 362.22 7.376 362.876 7.376C363.564 7.376 364.199 7.54667 364.78 7.888C365.361 8.224 365.828 8.71733 366.18 9.368C366.532 10.0187 366.708 10.8107 366.708 11.744C366.708 12.6933 366.535 13.4987 366.188 14.16C365.841 14.816 365.377 15.3147 364.796 15.656C364.215 15.992 363.575 16.16 362.876 16.16ZM358.724 16V3.496H360.092V16H358.724ZM369.772 16V8.704H367.916V7.504H369.772V6.408C369.772 6.02933 369.815 5.68267 369.9 5.368C369.991 5.048 370.119 4.76533 370.284 4.52C370.455 4.27467 370.66 4.06667 370.9 3.896C371.14 3.72533 371.412 3.59733 371.716 3.512C372.025 3.42133 372.361 3.376 372.724 3.376C372.985 3.376 373.193 3.392 373.348 3.424C373.503 3.456 373.607 3.48533 373.66 3.512V4.712C373.596 4.69067 373.489 4.66667 373.34 4.64C373.191 4.61333 373.031 4.6 372.86 4.6C372.497 4.6 372.201 4.656 371.972 4.768C371.748 4.88 371.575 5.03467 371.452 5.232C371.329 5.424 371.244 5.64267 371.196 5.888C371.153 6.13333 371.132 6.38933 371.132 6.656V7.504H373.612V8.704H371.132V16H369.772ZM376.652 3.496V16H375.308V3.496H376.652ZM383.17 16.152C382.317 16.152 381.562 15.9627 380.906 15.584C380.255 15.2 379.743 14.6773 379.37 14.016C379.002 13.3493 378.818 12.592 378.818 11.744C378.818 10.896 379.002 10.144 379.37 9.488C379.743 8.832 380.255 8.31733 380.906 7.944C381.562 7.57067 382.317 7.384 383.17 7.384C384.023 7.384 384.775 7.57067 385.426 7.944C386.082 8.31733 386.594 8.832 386.962 9.488C387.335 10.144 387.522 10.896 387.522 11.744C387.522 12.592 387.335 13.3493 386.962 14.016C386.594 14.6773 386.082 15.2 385.426 15.584C384.775 15.9627 384.023 16.152 383.17 16.152ZM383.17 14.904C383.757 14.904 384.274 14.7733 384.722 14.512C385.17 14.2507 385.519 13.8827 385.77 13.408C386.026 12.9333 386.154 12.3787 386.154 11.744C386.154 11.1093 386.026 10.56 385.77 10.096C385.519 9.62667 385.17 9.26667 384.722 9.016C384.274 8.76 383.757 8.632 383.17 8.632C382.589 8.632 382.071 8.76 381.618 9.016C381.17 9.26667 380.818 9.62667 380.562 10.096C380.311 10.56 380.186 11.1093 380.186 11.744C380.186 12.3787 380.311 12.9333 380.562 13.408C380.818 13.8827 381.17 14.2507 381.618 14.512C382.071 14.7733 382.589 14.904 383.17 14.904ZM396.252 16L393.876 7.504H395.084L397.332 15.4H397.084L398.572 7.504H399.988L398.156 16H396.252ZM390.508 16L388.66 7.504H390.076L391.58 15.4H391.332L393.556 7.504H394.764L392.42 16H390.508Z" fill="white"/>
<path d="M127.696 16.16C126.88 16.16 126.181 16.032 125.6 15.776C125.024 15.5147 124.581 15.1227 124.272 14.6C123.963 14.0773 123.808 13.4267 123.808 12.648C123.808 12.5413 123.808 12.4507 123.808 12.376C123.808 12.3013 123.808 12.2107 123.808 12.104H125.176C125.176 12.2053 125.176 12.2907 125.176 12.36C125.176 12.4293 125.176 12.5173 125.176 12.624C125.176 13.44 125.389 14.0293 125.816 14.392C126.243 14.7493 126.864 14.928 127.68 14.928C128.523 14.928 129.16 14.784 129.592 14.496C130.024 14.208 130.24 13.7413 130.24 13.096C130.24 12.6427 130.115 12.2667 129.864 11.968C129.619 11.664 129.277 11.408 128.84 11.2C128.403 10.9867 127.893 10.792 127.312 10.616C126.656 10.4133 126.069 10.1573 125.552 9.848C125.04 9.53867 124.635 9.15733 124.336 8.704C124.043 8.24533 123.896 7.688 123.896 7.032C123.896 6.392 124.051 5.85067 124.36 5.408C124.675 4.96533 125.112 4.62933 125.672 4.4C126.232 4.17067 126.883 4.056 127.624 4.056C128.408 4.056 129.088 4.17867 129.664 4.424C130.245 4.664 130.693 5.032 131.008 5.528C131.328 6.01867 131.488 6.63733 131.488 7.384C131.488 7.50133 131.488 7.60267 131.488 7.688C131.488 7.768 131.488 7.86667 131.488 7.984H130.12C130.12 7.88267 130.12 7.792 130.12 7.712C130.12 7.632 130.12 7.54133 130.12 7.44C130.12 6.66133 129.909 6.10933 129.488 5.784C129.067 5.45333 128.453 5.288 127.648 5.288C126.875 5.288 126.277 5.424 125.856 5.696C125.435 5.968 125.224 6.41333 125.224 7.032C125.224 7.496 125.352 7.88 125.608 8.184C125.869 8.48267 126.224 8.73867 126.672 8.952C127.12 9.16 127.632 9.36 128.208 9.552C128.907 9.78133 129.507 10.0427 130.008 10.336C130.515 10.624 130.901 10.984 131.168 11.416C131.44 11.848 131.576 12.392 131.576 13.048C131.576 13.704 131.419 14.264 131.104 14.728C130.795 15.192 130.349 15.5467 129.768 15.792C129.192 16.0373 128.501 16.16 127.696 16.16ZM136.751 16.152C136.143 16.152 135.636 16.048 135.231 15.84C134.825 15.6267 134.503 15.352 134.263 15.016C134.028 14.68 133.86 14.3173 133.759 13.928C133.663 13.5333 133.615 13.1547 133.615 12.792C133.615 12.5893 133.615 12.3813 133.615 12.168C133.615 11.9493 133.615 11.7307 133.615 11.512V7.504H134.983V11.336C134.983 11.5333 134.983 11.728 134.983 11.92C134.983 12.112 134.983 12.2933 134.983 12.464C134.983 12.896 135.041 13.296 135.159 13.664C135.281 14.032 135.492 14.3307 135.791 14.56C136.089 14.784 136.5 14.896 137.023 14.896C137.513 14.896 137.943 14.7493 138.311 14.456C138.679 14.1573 138.967 13.7867 139.175 13.344C139.383 12.896 139.487 12.4507 139.487 12.008L140.279 12.336C140.279 12.8053 140.196 13.2667 140.031 13.72C139.865 14.168 139.628 14.576 139.319 14.944C139.015 15.312 138.644 15.6053 138.207 15.824C137.775 16.0427 137.289 16.152 136.751 16.152ZM139.487 16V7.504H140.847V16H139.487ZM148.432 16V12.248C148.432 11.9173 148.432 11.632 148.432 11.392C148.432 11.1467 148.432 10.9413 148.432 10.776C148.432 10.568 148.416 10.344 148.384 10.104C148.358 9.85867 148.291 9.62933 148.184 9.416C148.078 9.19733 147.91 9.01867 147.68 8.88C147.456 8.74133 147.144 8.672 146.744 8.672C146.339 8.672 145.998 8.752 145.72 8.912C145.443 9.06667 145.219 9.272 145.048 9.528C144.878 9.784 144.755 10.0667 144.68 10.376C144.606 10.68 144.568 10.9813 144.568 11.28L143.8 10.968C143.8 10.328 143.934 9.736 144.2 9.192C144.467 8.648 144.84 8.21067 145.32 7.88C145.806 7.544 146.374 7.376 147.024 7.376C147.67 7.376 148.195 7.50667 148.6 7.768C149.006 8.02933 149.304 8.38933 149.496 8.848C149.688 9.30667 149.784 9.83467 149.784 10.432C149.784 10.6453 149.784 10.92 149.784 11.256C149.784 11.5867 149.784 11.9653 149.784 12.392V16H148.432ZM143.208 16V7.504H144.568V16H143.208ZM153.64 16V12.248C153.64 11.8853 153.64 11.5867 153.64 11.352C153.64 11.112 153.64 10.9093 153.64 10.744C153.64 10.536 153.627 10.312 153.6 10.072C153.574 9.832 153.507 9.608 153.4 9.4C153.294 9.18667 153.123 9.01333 152.888 8.88C152.659 8.74133 152.336 8.672 151.92 8.672C151.51 8.672 151.166 8.74933 150.888 8.904C150.616 9.05867 150.398 9.26133 150.232 9.512C150.072 9.76267 149.958 10.0347 149.888 10.328C149.819 10.616 149.784 10.8933 149.784 11.16L149.016 10.864C149.016 10.256 149.144 9.688 149.4 9.16C149.662 8.62667 150.03 8.19733 150.504 7.872C150.984 7.54133 151.552 7.376 152.208 7.376C152.822 7.376 153.334 7.496 153.744 7.736C154.16 7.976 154.472 8.31467 154.68 8.752C154.894 9.184 155 9.69867 155 10.296C155 10.52 155 10.7973 155 11.128C155 11.4587 155 11.832 155 12.248V16H153.64ZM157.445 16V7.504H158.789V16H157.445ZM158.125 5.552C157.874 5.552 157.655 5.48267 157.469 5.344C157.287 5.2 157.197 5.00533 157.197 4.76C157.197 4.52 157.287 4.33067 157.469 4.192C157.655 4.048 157.874 3.976 158.125 3.976C158.375 3.976 158.591 4.048 158.773 4.192C158.954 4.33067 159.045 4.52 159.045 4.76C159.045 5.00533 158.954 5.2 158.773 5.344C158.591 5.48267 158.375 5.552 158.125 5.552ZM164.678 16.128C164.416 16.128 164.16 16.0987 163.91 16.04C163.659 15.9813 163.432 15.8773 163.23 15.728C163.032 15.5733 162.875 15.3573 162.758 15.08C162.64 14.7973 162.582 14.4347 162.582 13.992C162.582 13.88 162.582 13.7653 162.582 13.648C162.582 13.5253 162.582 13.3973 162.582 13.264V8.704H160.51V7.504H161.838C162.019 7.504 162.16 7.49867 162.262 7.488C162.363 7.472 162.435 7.43733 162.478 7.384C162.526 7.32533 162.555 7.23733 162.566 7.12C162.576 6.99733 162.582 6.82933 162.582 6.616V4.688H163.95V7.504H166.606V8.704H163.95V12.824C163.95 12.9413 163.95 13.056 163.95 13.168C163.95 13.28 163.95 13.384 163.95 13.48C163.95 13.9333 164.003 14.288 164.11 14.544C164.222 14.8 164.47 14.928 164.854 14.928C165.008 14.928 165.155 14.9147 165.294 14.888C165.432 14.8613 165.536 14.8347 165.606 14.808V15.992C165.515 16.024 165.387 16.0533 165.222 16.08C165.062 16.112 164.88 16.128 164.678 16.128ZM180.261 4.2V16H178.893V10.032L179.509 10.712H173.005L173.621 10.032V16H172.253V4.2H173.621V10.232L173.005 9.512H179.509L178.893 10.232V4.2H180.261ZM183.055 12.296V11.08H189.623L189.383 11.48C189.383 11.448 189.383 11.4187 189.383 11.392C189.383 11.36 189.383 11.3307 189.383 11.304C189.383 10.8133 189.279 10.3653 189.071 9.96C188.868 9.54933 188.564 9.22133 188.159 8.976C187.753 8.73067 187.252 8.608 186.655 8.608C186.052 8.608 185.521 8.736 185.063 8.992C184.604 9.248 184.247 9.61067 183.991 10.08C183.735 10.544 183.607 11.0987 183.607 11.744C183.607 12.4 183.729 12.9653 183.975 13.44C184.225 13.9147 184.58 14.28 185.039 14.536C185.497 14.792 186.041 14.92 186.671 14.92C187.119 14.92 187.508 14.8747 187.839 14.784C188.169 14.688 188.441 14.5627 188.655 14.408C188.873 14.248 189.039 14.0747 189.151 13.888C189.263 13.7013 189.329 13.5147 189.351 13.328H190.711C190.684 13.6693 190.577 14.008 190.391 14.344C190.204 14.68 189.94 14.9867 189.599 15.264C189.257 15.536 188.839 15.7547 188.343 15.92C187.847 16.0853 187.276 16.168 186.631 16.168C185.777 16.168 185.025 15.9813 184.375 15.608C183.724 15.2347 183.212 14.7173 182.839 14.056C182.471 13.3947 182.287 12.6347 182.287 11.776C182.287 10.9067 182.473 10.144 182.847 9.488C183.22 8.82667 183.735 8.30933 184.391 7.936C185.047 7.56267 185.796 7.376 186.639 7.376C187.497 7.376 188.241 7.56267 188.871 7.936C189.5 8.30933 189.985 8.82133 190.327 9.472C190.668 10.1173 190.839 10.8533 190.839 11.68C190.839 11.7653 190.836 11.8773 190.831 12.016C190.825 12.1547 190.817 12.248 190.807 12.296H183.055ZM198.382 15.48C198.841 15.5173 199.244 15.6027 199.59 15.736C199.942 15.864 200.217 16.0533 200.414 16.304C200.612 16.56 200.71 16.8933 200.71 17.304C200.71 17.7573 200.556 18.1573 200.246 18.504C199.937 18.856 199.468 19.1307 198.838 19.328C198.209 19.5253 197.417 19.624 196.462 19.624C195.113 19.624 194.094 19.4267 193.406 19.032C192.718 18.6427 192.374 18.1093 192.374 17.432C192.374 17.2187 192.398 17.0293 192.446 16.864C192.5 16.704 192.558 16.5733 192.622 16.472L193.918 16.664C193.876 16.7227 193.833 16.8107 193.79 16.928C193.753 17.0507 193.734 17.192 193.734 17.352C193.734 17.7787 193.977 18.0773 194.462 18.248C194.948 18.424 195.636 18.512 196.526 18.512C197.193 18.512 197.74 18.4667 198.166 18.376C198.593 18.2853 198.91 18.1547 199.118 17.984C199.326 17.8133 199.43 17.6133 199.43 17.384C199.43 17.0373 199.284 16.8213 198.99 16.736C198.702 16.656 198.345 16.6 197.918 16.568L194.686 16.328C194.148 16.2853 193.708 16.12 193.366 15.832C193.03 15.5387 192.862 15.184 192.862 14.768C192.862 14.512 192.924 14.2693 193.046 14.04C193.174 13.8107 193.321 13.6187 193.486 13.464C193.657 13.304 193.809 13.208 193.942 13.176L195.014 13.664C194.881 13.6853 194.716 13.7787 194.518 13.944C194.326 14.104 194.23 14.2933 194.23 14.512C194.23 14.7093 194.308 14.872 194.462 15C194.617 15.1227 194.924 15.2027 195.382 15.24L198.382 15.48ZM199.558 7.504H200.838L200.31 10.848C200.214 11.472 200.014 12.0373 199.71 12.544C199.406 13.0453 198.99 13.4453 198.462 13.744C197.94 14.0373 197.292 14.184 196.518 14.184C195.713 14.184 195.025 14.0373 194.454 13.744C193.884 13.4507 193.446 13.0507 193.142 12.544C192.838 12.032 192.686 11.456 192.686 10.816C192.686 10.1653 192.844 9.58133 193.158 9.064C193.478 8.54133 193.921 8.13067 194.486 7.832C195.052 7.528 195.7 7.376 196.43 7.376C197.086 7.376 197.66 7.49067 198.15 7.72C198.641 7.944 199.028 8.22667 199.31 8.568C199.598 8.90933 199.758 9.25333 199.79 9.6L199.278 9.632L199.558 7.504ZM196.51 12.968C197.028 12.968 197.47 12.8827 197.838 12.712C198.212 12.5413 198.497 12.2933 198.694 11.968C198.897 11.6427 198.998 11.248 198.998 10.784C198.998 10.336 198.897 9.94933 198.694 9.624C198.497 9.29333 198.212 9.04 197.838 8.864C197.47 8.68267 197.03 8.592 196.518 8.592C196.028 8.592 195.593 8.68533 195.214 8.872C194.841 9.05333 194.548 9.30933 194.334 9.64C194.126 9.97067 194.022 10.36 194.022 10.808C194.022 11.2613 194.121 11.6507 194.318 11.976C194.521 12.296 194.806 12.5413 195.174 12.712C195.548 12.8827 195.993 12.968 196.51 12.968ZM205.806 16.16C205.107 16.16 204.467 15.992 203.886 15.656C203.305 15.3147 202.841 14.816 202.494 14.16C202.147 13.4987 201.974 12.6933 201.974 11.744C201.974 10.8107 202.15 10.0187 202.502 9.368C202.854 8.71733 203.321 8.224 203.902 7.888C204.483 7.54667 205.118 7.376 205.806 7.376C206.462 7.376 207.075 7.53333 207.646 7.848C208.222 8.15733 208.686 8.58933 209.038 9.144C209.39 9.69867 209.566 10.3413 209.566 11.072C209.566 11.088 209.566 11.104 209.566 11.12C209.566 11.136 209.566 11.152 209.566 11.168L208.59 11.208C208.59 11.192 208.59 11.176 208.59 11.16C208.59 11.1387 208.59 11.12 208.59 11.104C208.59 10.64 208.467 10.2213 208.222 9.848C207.982 9.47467 207.665 9.17867 207.27 8.96C206.875 8.736 206.451 8.624 205.998 8.624C205.241 8.624 204.614 8.88 204.118 9.392C203.622 9.89867 203.374 10.6827 203.374 11.744C203.374 12.8 203.622 13.5867 204.118 14.104C204.619 14.616 205.246 14.872 205.998 14.872C206.473 14.872 206.905 14.7573 207.294 14.528C207.689 14.2987 208.003 13.992 208.238 13.608C208.473 13.2187 208.59 12.784 208.59 12.304L209.566 12.328C209.566 13.0533 209.398 13.7067 209.062 14.288C208.726 14.864 208.273 15.32 207.702 15.656C207.137 15.992 206.505 16.16 205.806 16.16ZM208.59 16V3.496H209.958V16H208.59ZM212.789 12.296V11.08H219.357L219.117 11.48C219.117 11.448 219.117 11.4187 219.117 11.392C219.117 11.36 219.117 11.3307 219.117 11.304C219.117 10.8133 219.013 10.3653 218.805 9.96C218.602 9.54933 218.298 9.22133 217.893 8.976C217.488 8.73067 216.986 8.608 216.389 8.608C215.786 8.608 215.256 8.736 214.797 8.992C214.338 9.248 213.981 9.61067 213.725 10.08C213.469 10.544 213.341 11.0987 213.341 11.744C213.341 12.4 213.464 12.9653 213.709 13.44C213.96 13.9147 214.314 14.28 214.773 14.536C215.232 14.792 215.776 14.92 216.405 14.92C216.853 14.92 217.242 14.8747 217.573 14.784C217.904 14.688 218.176 14.5627 218.389 14.408C218.608 14.248 218.773 14.0747 218.885 13.888C218.997 13.7013 219.064 13.5147 219.085 13.328H220.445C220.418 13.6693 220.312 14.008 220.125 14.344C219.938 14.68 219.674 14.9867 219.333 15.264C218.992 15.536 218.573 15.7547 218.077 15.92C217.581 16.0853 217.01 16.168 216.365 16.168C215.512 16.168 214.76 15.9813 214.109 15.608C213.458 15.2347 212.946 14.7173 212.573 14.056C212.205 13.3947 212.021 12.6347 212.021 11.776C212.021 10.9067 212.208 10.144 212.581 9.488C212.954 8.82667 213.469 8.30933 214.125 7.936C214.781 7.56267 215.53 7.376 216.373 7.376C217.232 7.376 217.976 7.56267 218.605 7.936C219.234 8.30933 219.72 8.82133 220.061 9.472C220.402 10.1173 220.573 10.8533 220.573 11.68C220.573 11.7653 220.57 11.8773 220.565 12.016C220.56 12.1547 220.552 12.248 220.541 12.296H212.789Z" fill="white"/>
<path d="M808.696 16.16C807.88 16.16 807.181 16.032 806.6 15.776C806.024 15.5147 805.581 15.1227 805.272 14.6C804.963 14.0773 804.808 13.4267 804.808 12.648C804.808 12.5413 804.808 12.4507 804.808 12.376C804.808 12.3013 804.808 12.2107 804.808 12.104H806.176C806.176 12.2053 806.176 12.2907 806.176 12.36C806.176 12.4293 806.176 12.5173 806.176 12.624C806.176 13.44 806.389 14.0293 806.816 14.392C807.243 14.7493 807.864 14.928 808.68 14.928C809.523 14.928 810.16 14.784 810.592 14.496C811.024 14.208 811.24 13.7413 811.24 13.096C811.24 12.6427 811.115 12.2667 810.864 11.968C810.619 11.664 810.277 11.408 809.84 11.2C809.403 10.9867 808.893 10.792 808.312 10.616C807.656 10.4133 807.069 10.1573 806.552 9.848C806.04 9.53867 805.635 9.15733 805.336 8.704C805.043 8.24533 804.896 7.688 804.896 7.032C804.896 6.392 805.051 5.85067 805.36 5.408C805.675 4.96533 806.112 4.62933 806.672 4.4C807.232 4.17067 807.883 4.056 808.624 4.056C809.408 4.056 810.088 4.17867 810.664 4.424C811.245 4.664 811.693 5.032 812.008 5.528C812.328 6.01867 812.488 6.63733 812.488 7.384C812.488 7.50133 812.488 7.60267 812.488 7.688C812.488 7.768 812.488 7.86667 812.488 7.984H811.12C811.12 7.88267 811.12 7.792 811.12 7.712C811.12 7.632 811.12 7.54133 811.12 7.44C811.12 6.66133 810.909 6.10933 810.488 5.784C810.067 5.45333 809.453 5.288 808.648 5.288C807.875 5.288 807.277 5.424 806.856 5.696C806.435 5.968 806.224 6.41333 806.224 7.032C806.224 7.496 806.352 7.88 806.608 8.184C806.869 8.48267 807.224 8.73867 807.672 8.952C808.12 9.16 808.632 9.36 809.208 9.552C809.907 9.78133 810.507 10.0427 811.008 10.336C811.515 10.624 811.901 10.984 812.168 11.416C812.44 11.848 812.576 12.392 812.576 13.048C812.576 13.704 812.419 14.264 812.104 14.728C811.795 15.192 811.349 15.5467 810.768 15.792C810.192 16.0373 809.501 16.16 808.696 16.16ZM817.975 16.128C817.713 16.128 817.457 16.0987 817.207 16.04C816.956 15.9813 816.729 15.8773 816.527 15.728C816.329 15.5733 816.172 15.3573 816.055 15.08C815.937 14.7973 815.879 14.4347 815.879 13.992C815.879 13.88 815.879 13.7653 815.879 13.648C815.879 13.5253 815.879 13.3973 815.879 13.264V8.704H813.807V7.504H815.135C815.316 7.504 815.457 7.49867 815.559 7.488C815.66 7.472 815.732 7.43733 815.775 7.384C815.823 7.32533 815.852 7.23733 815.863 7.12C815.873 6.99733 815.879 6.82933 815.879 6.616V4.688H817.247V7.504H819.903V8.704H817.247V12.824C817.247 12.9413 817.247 13.056 817.247 13.168C817.247 13.28 817.247 13.384 817.247 13.48C817.247 13.9333 817.3 14.288 817.407 14.544C817.519 14.8 817.767 14.928 818.151 14.928C818.305 14.928 818.452 14.9147 818.591 14.888C818.729 14.8613 818.833 14.8347 818.903 14.808V15.992C818.812 16.024 818.684 16.0533 818.519 16.08C818.359 16.112 818.177 16.128 817.975 16.128ZM821.902 19.584C821.689 19.584 821.494 19.5707 821.318 19.544C821.142 19.5227 821.033 19.5013 820.99 19.48V18.296C821.059 18.328 821.174 18.3547 821.334 18.376C821.494 18.3973 821.654 18.408 821.814 18.408C822.155 18.408 822.443 18.336 822.678 18.192C822.913 18.0533 823.11 17.8613 823.27 17.616C823.43 17.376 823.561 17.104 823.662 16.8L823.918 16.048L820.99 7.504H822.414L824.766 14.824H824.574L826.878 7.504H828.278L825.166 16.728C824.99 17.2453 824.777 17.72 824.526 18.152C824.281 18.584 823.95 18.9307 823.534 19.192C823.123 19.4533 822.579 19.584 821.902 19.584ZM831.438 3.496V16H830.094V3.496H831.438ZM834.367 12.296V11.08H840.935L840.695 11.48C840.695 11.448 840.695 11.4187 840.695 11.392C840.695 11.36 840.695 11.3307 840.695 11.304C840.695 10.8133 840.591 10.3653 840.383 9.96C840.18 9.54933 839.876 9.22133 839.471 8.976C839.066 8.73067 838.564 8.608 837.967 8.608C837.364 8.608 836.834 8.736 836.375 8.992C835.916 9.248 835.559 9.61067 835.303 10.08C835.047 10.544 834.919 11.0987 834.919 11.744C834.919 12.4 835.042 12.9653 835.287 13.44C835.538 13.9147 835.892 14.28 836.351 14.536C836.81 14.792 837.354 14.92 837.983 14.92C838.431 14.92 838.82 14.8747 839.151 14.784C839.482 14.688 839.754 14.5627 839.967 14.408C840.186 14.248 840.351 14.0747 840.463 13.888C840.575 13.7013 840.642 13.5147 840.663 13.328H842.023C841.996 13.6693 841.89 14.008 841.703 14.344C841.516 14.68 841.252 14.9867 840.911 15.264C840.57 15.536 840.151 15.7547 839.655 15.92C839.159 16.0853 838.588 16.168 837.943 16.168C837.09 16.168 836.338 15.9813 835.687 15.608C835.036 15.2347 834.524 14.7173 834.151 14.056C833.783 13.3947 833.599 12.6347 833.599 11.776C833.599 10.9067 833.786 10.144 834.159 9.488C834.532 8.82667 835.047 8.30933 835.703 7.936C836.359 7.56267 837.108 7.376 837.951 7.376C838.81 7.376 839.554 7.56267 840.183 7.936C840.812 8.30933 841.298 8.82133 841.639 9.472C841.98 10.1173 842.151 10.8533 842.151 11.68C842.151 11.7653 842.148 11.8773 842.143 12.016C842.138 12.1547 842.13 12.248 842.119 12.296H834.367ZM852.615 16.16C851.735 16.16 850.935 15.92 850.215 15.44C849.495 14.96 848.922 14.2693 848.495 13.368C848.068 12.4667 847.855 11.3813 847.855 10.112C847.855 8.84267 848.071 7.75733 848.503 6.856C848.935 5.95467 849.519 5.264 850.255 4.784C850.996 4.29867 851.826 4.056 852.743 4.056C853.49 4.056 854.122 4.18667 854.639 4.448C855.162 4.704 855.586 5.03733 855.911 5.448C856.242 5.85333 856.482 6.28533 856.631 6.744C856.78 7.19733 856.855 7.624 856.855 8.024C856.855 8.04 856.855 8.056 856.855 8.072C856.855 8.088 856.855 8.104 856.855 8.12H855.527C855.527 8.104 855.527 8.088 855.527 8.072C855.527 8.056 855.527 8.04 855.527 8.024C855.527 7.704 855.471 7.384 855.359 7.064C855.252 6.73867 855.084 6.44533 854.855 6.184C854.626 5.91733 854.335 5.704 853.983 5.544C853.636 5.384 853.223 5.304 852.743 5.304C852.098 5.304 851.508 5.48 850.975 5.832C850.447 6.184 850.023 6.71733 849.703 7.432C849.388 8.14133 849.231 9.03467 849.231 10.112C849.231 10.9387 849.319 11.656 849.495 12.264C849.671 12.8667 849.914 13.3653 850.223 13.76C850.532 14.1547 850.892 14.448 851.303 14.64C851.719 14.832 852.167 14.928 852.647 14.928C853.282 14.928 853.802 14.8187 854.207 14.6C854.618 14.3813 854.935 14.1093 855.159 13.784C855.383 13.4533 855.527 13.128 855.591 12.808V11.568H852.703V10.424H856.823V16H855.807L855.735 14.688C855.692 14.768 855.604 14.888 855.471 15.048C855.338 15.208 855.148 15.3733 854.903 15.544C854.663 15.7147 854.354 15.8613 853.975 15.984C853.596 16.1013 853.143 16.16 852.615 16.16ZM862.344 16.152C861.736 16.152 861.23 16.048 860.824 15.84C860.419 15.6267 860.096 15.352 859.856 15.016C859.622 14.68 859.454 14.3173 859.352 13.928C859.256 13.5333 859.208 13.1547 859.208 12.792C859.208 12.5893 859.208 12.3813 859.208 12.168C859.208 11.9493 859.208 11.7307 859.208 11.512V7.504H860.576V11.336C860.576 11.5333 860.576 11.728 860.576 11.92C860.576 12.112 860.576 12.2933 860.576 12.464C860.576 12.896 860.635 13.296 860.752 13.664C860.875 14.032 861.086 14.3307 861.384 14.56C861.683 14.784 862.094 14.896 862.616 14.896C863.107 14.896 863.536 14.7493 863.904 14.456C864.272 14.1573 864.56 13.7867 864.768 13.344C864.976 12.896 865.08 12.4507 865.08 12.008L865.872 12.336C865.872 12.8053 865.79 13.2667 865.624 13.72C865.459 14.168 865.222 14.576 864.912 14.944C864.608 15.312 864.238 15.6053 863.8 15.824C863.368 16.0427 862.883 16.152 862.344 16.152ZM865.08 16V7.504H866.44V16H865.08ZM868.882 16V7.504H870.226V16H868.882ZM869.562 5.552C869.311 5.552 869.093 5.48267 868.906 5.344C868.725 5.2 868.634 5.00533 868.634 4.76C868.634 4.52 868.725 4.33067 868.906 4.192C869.093 4.048 869.311 3.976 869.562 3.976C869.813 3.976 870.029 4.048 870.21 4.192C870.391 4.33067 870.482 4.52 870.482 4.76C870.482 5.00533 870.391 5.2 870.21 5.344C870.029 5.48267 869.813 5.552 869.562 5.552ZM876.259 16.16C875.561 16.16 874.921 15.992 874.339 15.656C873.758 15.3147 873.294 14.816 872.947 14.16C872.601 13.4987 872.427 12.6933 872.427 11.744C872.427 10.8107 872.603 10.0187 872.955 9.368C873.307 8.71733 873.774 8.224 874.355 7.888C874.937 7.54667 875.571 7.376 876.259 7.376C876.915 7.376 877.529 7.53333 878.099 7.848C878.675 8.15733 879.139 8.58933 879.491 9.144C879.843 9.69867 880.019 10.3413 880.019 11.072C880.019 11.088 880.019 11.104 880.019 11.12C880.019 11.136 880.019 11.152 880.019 11.168L879.043 11.208C879.043 11.192 879.043 11.176 879.043 11.16C879.043 11.1387 879.043 11.12 879.043 11.104C879.043 10.64 878.921 10.2213 878.675 9.848C878.435 9.47467 878.118 9.17867 877.723 8.96C877.329 8.736 876.905 8.624 876.451 8.624C875.694 8.624 875.067 8.88 874.571 9.392C874.075 9.89867 873.827 10.6827 873.827 11.744C873.827 12.8 874.075 13.5867 874.571 14.104C875.073 14.616 875.699 14.872 876.451 14.872C876.926 14.872 877.358 14.7573 877.747 14.528C878.142 14.2987 878.457 13.992 878.691 13.608C878.926 13.2187 879.043 12.784 879.043 12.304L880.019 12.328C880.019 13.0533 879.851 13.7067 879.515 14.288C879.179 14.864 878.726 15.32 878.155 15.656C877.59 15.992 876.958 16.16 876.259 16.16ZM879.043 16V3.496H880.411V16H879.043ZM883.242 12.296V11.08H889.81L889.57 11.48C889.57 11.448 889.57 11.4187 889.57 11.392C889.57 11.36 889.57 11.3307 889.57 11.304C889.57 10.8133 889.466 10.3653 889.258 9.96C889.055 9.54933 888.751 9.22133 888.346 8.976C887.941 8.73067 887.439 8.608 886.842 8.608C886.239 8.608 885.709 8.736 885.25 8.992C884.791 9.248 884.434 9.61067 884.178 10.08C883.922 10.544 883.794 11.0987 883.794 11.744C883.794 12.4 883.917 12.9653 884.162 13.44C884.413 13.9147 884.767 14.28 885.226 14.536C885.685 14.792 886.229 14.92 886.858 14.92C887.306 14.92 887.695 14.8747 888.026 14.784C888.357 14.688 888.629 14.5627 888.842 14.408C889.061 14.248 889.226 14.0747 889.338 13.888C889.45 13.7013 889.517 13.5147 889.538 13.328H890.898C890.871 13.6693 890.765 14.008 890.578 14.344C890.391 14.68 890.127 14.9867 889.786 15.264C889.445 15.536 889.026 15.7547 888.53 15.92C888.034 16.0853 887.463 16.168 886.818 16.168C885.965 16.168 885.213 15.9813 884.562 15.608C883.911 15.2347 883.399 14.7173 883.026 14.056C882.658 13.3947 882.474 12.6347 882.474 11.776C882.474 10.9067 882.661 10.144 883.034 9.488C883.407 8.82667 883.922 8.30933 884.578 7.936C885.234 7.56267 885.983 7.376 886.826 7.376C887.685 7.376 888.429 7.56267 889.058 7.936C889.687 8.30933 890.173 8.82133 890.514 9.472C890.855 10.1173 891.026 10.8533 891.026 11.68C891.026 11.7653 891.023 11.8773 891.018 12.016C891.013 12.1547 891.005 12.248 890.994 12.296H883.242Z" fill="white"/>
<path d="M936.128 16V4.2H937.496V15.576L936.88 14.8H942.152V16H936.128ZM944.148 16V7.504H945.492V16H944.148ZM944.828 5.552C944.577 5.552 944.358 5.48267 944.172 5.344C943.99 5.2 943.9 5.00533 943.9 4.76C943.9 4.52 943.99 4.33067 944.172 4.192C944.358 4.048 944.577 3.976 944.828 3.976C945.078 3.976 945.294 4.048 945.476 4.192C945.657 4.33067 945.748 4.52 945.748 4.76C945.748 5.00533 945.657 5.2 945.476 5.344C945.294 5.48267 945.078 5.552 944.828 5.552ZM952.053 16.16C951.242 16.16 950.506 15.984 949.845 15.632C949.184 15.2747 948.658 14.7653 948.269 14.104C947.885 13.4427 947.693 12.656 947.693 11.744C947.693 10.832 947.885 10.0507 948.269 9.4C948.658 8.744 949.184 8.24267 949.845 7.896C950.506 7.54933 951.242 7.376 952.053 7.376C952.672 7.376 953.224 7.472 953.709 7.664C954.194 7.85067 954.605 8.10133 954.941 8.416C955.277 8.73067 955.533 9.07733 955.709 9.456C955.89 9.82933 955.981 10.2027 955.981 10.576C955.981 10.5813 955.981 10.5893 955.981 10.6C955.981 10.6107 955.981 10.6213 955.981 10.632H954.629C954.629 10.6053 954.626 10.576 954.621 10.544C954.616 10.5067 954.61 10.4693 954.605 10.432C954.562 10.0747 954.426 9.76267 954.197 9.496C953.968 9.224 953.669 9.01067 953.301 8.856C952.933 8.70133 952.514 8.624 952.045 8.624C951.517 8.624 951.026 8.73867 950.573 8.968C950.125 9.192 949.762 9.536 949.485 10C949.213 10.4587 949.077 11.04 949.077 11.744C949.077 12.4427 949.213 13.0267 949.485 13.496C949.757 13.9653 950.117 14.32 950.565 14.56C951.018 14.7947 951.512 14.912 952.045 14.912C952.621 14.912 953.096 14.8213 953.469 14.64C953.842 14.4587 954.122 14.2187 954.309 13.92C954.501 13.616 954.608 13.2907 954.629 12.944H955.981C955.981 13.328 955.896 13.712 955.725 14.096C955.554 14.4747 955.304 14.8213 954.973 15.136C954.642 15.4453 954.232 15.6933 953.741 15.88C953.256 16.0667 952.693 16.16 952.053 16.16ZM958.539 12.296V11.08H965.107L964.867 11.48C964.867 11.448 964.867 11.4187 964.867 11.392C964.867 11.36 964.867 11.3307 964.867 11.304C964.867 10.8133 964.763 10.3653 964.555 9.96C964.352 9.54933 964.048 9.22133 963.643 8.976C963.238 8.73067 962.736 8.608 962.139 8.608C961.536 8.608 961.006 8.736 960.547 8.992C960.088 9.248 959.731 9.61067 959.475 10.08C959.219 10.544 959.091 11.0987 959.091 11.744C959.091 12.4 959.214 12.9653 959.459 13.44C959.71 13.9147 960.064 14.28 960.523 14.536C960.982 14.792 961.526 14.92 962.155 14.92C962.603 14.92 962.992 14.8747 963.323 14.784C963.654 14.688 963.926 14.5627 964.139 14.408C964.358 14.248 964.523 14.0747 964.635 13.888C964.747 13.7013 964.814 13.5147 964.835 13.328H966.195C966.168 13.6693 966.062 14.008 965.875 14.344C965.688 14.68 965.424 14.9867 965.083 15.264C964.742 15.536 964.323 15.7547 963.827 15.92C963.331 16.0853 962.76 16.168 962.115 16.168C961.262 16.168 960.51 15.9813 959.859 15.608C959.208 15.2347 958.696 14.7173 958.323 14.056C957.955 13.3947 957.771 12.6347 957.771 11.776C957.771 10.9067 957.958 10.144 958.331 9.488C958.704 8.82667 959.219 8.30933 959.875 7.936C960.531 7.56267 961.28 7.376 962.123 7.376C962.982 7.376 963.726 7.56267 964.355 7.936C964.984 8.30933 965.47 8.82133 965.811 9.472C966.152 10.1173 966.323 10.8533 966.323 11.68C966.323 11.7653 966.32 11.8773 966.315 12.016C966.31 12.1547 966.302 12.248 966.291 12.296H958.539ZM974.523 16V11.928C974.523 11.6827 974.523 11.4827 974.523 11.328C974.523 11.168 974.523 11.016 974.523 10.872C974.523 10.4293 974.448 10.0427 974.299 9.712C974.149 9.38133 973.915 9.12533 973.595 8.944C973.275 8.76267 972.856 8.672 972.339 8.672C971.885 8.672 971.464 8.78933 971.075 9.024C970.691 9.25333 970.381 9.56533 970.147 9.96C969.917 10.3493 969.803 10.7867 969.803 11.272L969.027 10.976C969.027 10.3093 969.189 9.704 969.515 9.16C969.845 8.616 970.283 8.184 970.827 7.864C971.376 7.53867 971.973 7.376 972.619 7.376C973.275 7.376 973.848 7.50133 974.339 7.752C974.829 8.00267 975.208 8.36267 975.475 8.832C975.747 9.296 975.883 9.856 975.883 10.512C975.883 10.7467 975.883 11.0027 975.883 11.28C975.883 11.5573 975.883 11.816 975.883 12.056V16H974.523ZM968.443 16V7.504H969.803V16H968.443ZM981.503 16.16C980.991 16.16 980.517 16.1067 980.079 16C979.647 15.888 979.269 15.728 978.943 15.52C978.623 15.3067 978.373 15.0453 978.191 14.736C978.015 14.4267 977.927 14.072 977.927 13.672C977.927 13.6293 977.927 13.5867 977.927 13.544C977.927 13.496 977.927 13.456 977.927 13.424H979.295C979.295 13.456 979.295 13.4827 979.295 13.504C979.295 13.5253 979.295 13.5573 979.295 13.6C979.295 14.032 979.495 14.3627 979.895 14.592C980.295 14.816 980.842 14.928 981.535 14.928C981.962 14.928 982.343 14.8853 982.679 14.8C983.015 14.7147 983.279 14.584 983.471 14.408C983.669 14.232 983.767 14.0107 983.767 13.744C983.767 13.3013 983.559 12.9867 983.143 12.8C982.733 12.608 982.117 12.4427 981.295 12.304C980.863 12.2293 980.453 12.1333 980.063 12.016C979.674 11.8933 979.327 11.736 979.023 11.544C978.725 11.352 978.487 11.1147 978.311 10.832C978.141 10.544 978.055 10.2 978.055 9.8C978.055 9.28267 978.207 8.84533 978.511 8.488C978.821 8.12533 979.237 7.85067 979.759 7.664C980.282 7.472 980.863 7.376 981.503 7.376C982.122 7.376 982.693 7.47467 983.215 7.672C983.738 7.86933 984.157 8.15733 984.471 8.536C984.791 8.90933 984.951 9.37067 984.951 9.92C984.951 9.94133 984.951 9.968 984.951 10C984.951 10.0267 984.951 10.0533 984.951 10.08H983.591C983.591 10.0533 983.591 10.032 983.591 10.016C983.591 10 983.591 9.98133 983.591 9.96C983.591 9.65067 983.493 9.39733 983.295 9.2C983.098 8.99733 982.842 8.848 982.527 8.752C982.213 8.65067 981.877 8.6 981.519 8.6C981.183 8.6 980.853 8.63733 980.527 8.712C980.202 8.78133 979.933 8.89867 979.719 9.064C979.506 9.22933 979.399 9.456 979.399 9.744C979.399 10.032 979.498 10.264 979.695 10.44C979.898 10.6107 980.181 10.752 980.543 10.864C980.911 10.9707 981.343 11.0693 981.839 11.16C982.282 11.24 982.701 11.3413 983.095 11.464C983.49 11.5813 983.837 11.7333 984.135 11.92C984.439 12.1067 984.677 12.344 984.847 12.632C985.023 12.9147 985.111 13.2613 985.111 13.672C985.111 14.088 985.015 14.4507 984.823 14.76C984.637 15.0693 984.375 15.328 984.039 15.536C983.709 15.744 983.325 15.8987 982.887 16C982.455 16.1067 981.994 16.16 981.503 16.16ZM987.664 12.296V11.08H994.232L993.992 11.48C993.992 11.448 993.992 11.4187 993.992 11.392C993.992 11.36 993.992 11.3307 993.992 11.304C993.992 10.8133 993.888 10.3653 993.68 9.96C993.477 9.54933 993.173 9.22133 992.768 8.976C992.363 8.73067 991.861 8.608 991.264 8.608C990.661 8.608 990.131 8.736 989.672 8.992C989.213 9.248 988.856 9.61067 988.6 10.08C988.344 10.544 988.216 11.0987 988.216 11.744C988.216 12.4 988.339 12.9653 988.584 13.44C988.835 13.9147 989.189 14.28 989.648 14.536C990.107 14.792 990.651 14.92 991.28 14.92C991.728 14.92 992.117 14.8747 992.448 14.784C992.779 14.688 993.051 14.5627 993.264 14.408C993.483 14.248 993.648 14.0747 993.76 13.888C993.872 13.7013 993.939 13.5147 993.96 13.328H995.32C995.293 13.6693 995.187 14.008 995 14.344C994.813 14.68 994.549 14.9867 994.208 15.264C993.867 15.536 993.448 15.7547 992.952 15.92C992.456 16.0853 991.885 16.168 991.24 16.168C990.387 16.168 989.635 15.9813 988.984 15.608C988.333 15.2347 987.821 14.7173 987.448 14.056C987.08 13.3947 986.896 12.6347 986.896 11.776C986.896 10.9067 987.083 10.144 987.456 9.488C987.829 8.82667 988.344 8.30933 989 7.936C989.656 7.56267 990.405 7.376 991.248 7.376C992.107 7.376 992.851 7.56267 993.48 7.936C994.109 8.30933 994.595 8.82133 994.936 9.472C995.277 10.1173 995.448 10.8533 995.448 11.68C995.448 11.7653 995.445 11.8773 995.44 12.016C995.435 12.1547 995.427 12.248 995.416 12.296H987.664ZM1000.82 16.16C1000.3 16.16 999.829 16.1067 999.392 16C998.96 15.888 998.581 15.728 998.256 15.52C997.936 15.3067 997.685 15.0453 997.504 14.736C997.328 14.4267 997.24 14.072 997.24 13.672C997.24 13.6293 997.24 13.5867 997.24 13.544C997.24 13.496 997.24 13.456 997.24 13.424H998.608C998.608 13.456 998.608 13.4827 998.608 13.504C998.608 13.5253 998.608 13.5573 998.608 13.6C998.608 14.032 998.808 14.3627 999.208 14.592C999.608 14.816 1000.15 14.928 1000.85 14.928C1001.27 14.928 1001.66 14.8853 1001.99 14.8C1002.33 14.7147 1002.59 14.584 1002.78 14.408C1002.98 14.232 1003.08 14.0107 1003.08 13.744C1003.08 13.3013 1002.87 12.9867 1002.46 12.8C1002.05 12.608 1001.43 12.4427 1000.61 12.304C1000.18 12.2293 999.765 12.1333 999.376 12.016C998.986 11.8933 998.64 11.736 998.336 11.544C998.037 11.352 997.8 11.1147 997.624 10.832C997.453 10.544 997.368 10.2 997.368 9.8C997.368 9.28267 997.52 8.84533 997.824 8.488C998.133 8.12533 998.549 7.85067 999.072 7.664C999.594 7.472 1000.18 7.376 1000.82 7.376C1001.43 7.376 1002.01 7.47467 1002.53 7.672C1003.05 7.86933 1003.47 8.15733 1003.78 8.536C1004.1 8.90933 1004.26 9.37067 1004.26 9.92C1004.26 9.94133 1004.26 9.968 1004.26 10C1004.26 10.0267 1004.26 10.0533 1004.26 10.08H1002.9C1002.9 10.0533 1002.9 10.032 1002.9 10.016C1002.9 10 1002.9 9.98133 1002.9 9.96C1002.9 9.65067 1002.81 9.39733 1002.61 9.2C1002.41 8.99733 1002.15 8.848 1001.84 8.752C1001.53 8.65067 1001.19 8.6 1000.83 8.6C1000.5 8.6 1000.17 8.63733 999.84 8.712C999.514 8.78133 999.245 8.89867 999.032 9.064C998.818 9.22933 998.712 9.456 998.712 9.744C998.712 10.032 998.81 10.264 999.008 10.44C999.21 10.6107 999.493 10.752 999.856 10.864C1000.22 10.9707 1000.66 11.0693 1001.15 11.16C1001.59 11.24 1002.01 11.3413 1002.41 11.464C1002.8 11.5813 1003.15 11.7333 1003.45 11.92C1003.75 12.1067 1003.99 12.344 1004.16 12.632C1004.34 12.9147 1004.42 13.2613 1004.42 13.672C1004.42 14.088 1004.33 14.4507 1004.14 14.76C1003.95 15.0693 1003.69 15.328 1003.35 15.536C1003.02 15.744 1002.64 15.8987 1002.2 16C1001.77 16.1067 1001.31 16.16 1000.82 16.16Z" fill="white"/>
<path d="M1047.18 16V4.2H1048.53V16H1047.18ZM1057.02 16V11.928C1057.02 11.6827 1057.02 11.4827 1057.02 11.328C1057.02 11.168 1057.02 11.016 1057.02 10.872C1057.02 10.4293 1056.95 10.0427 1056.8 9.712C1056.65 9.38133 1056.41 9.12533 1056.09 8.944C1055.77 8.76267 1055.36 8.672 1054.84 8.672C1054.39 8.672 1053.96 8.78933 1053.57 9.024C1053.19 9.25333 1052.88 9.56533 1052.65 9.96C1052.42 10.3493 1052.3 10.7867 1052.3 11.272L1051.53 10.976C1051.53 10.3093 1051.69 9.704 1052.01 9.16C1052.35 8.616 1052.78 8.184 1053.33 7.864C1053.88 7.53867 1054.47 7.376 1055.12 7.376C1055.77 7.376 1056.35 7.50133 1056.84 7.752C1057.33 8.00267 1057.71 8.36267 1057.97 8.832C1058.25 9.296 1058.38 9.856 1058.38 10.512C1058.38 10.7467 1058.38 11.0027 1058.38 11.28C1058.38 11.5573 1058.38 11.816 1058.38 12.056V16H1057.02ZM1050.94 16V7.504H1052.3V16H1050.94ZM1064 16.16C1063.49 16.16 1063.02 16.1067 1062.58 16C1062.15 15.888 1061.77 15.728 1061.44 15.52C1061.12 15.3067 1060.87 15.0453 1060.69 14.736C1060.52 14.4267 1060.43 14.072 1060.43 13.672C1060.43 13.6293 1060.43 13.5867 1060.43 13.544C1060.43 13.496 1060.43 13.456 1060.43 13.424H1061.8C1061.8 13.456 1061.8 13.4827 1061.8 13.504C1061.8 13.5253 1061.8 13.5573 1061.8 13.6C1061.8 14.032 1062 14.3627 1062.4 14.592C1062.8 14.816 1063.34 14.928 1064.04 14.928C1064.46 14.928 1064.84 14.8853 1065.18 14.8C1065.52 14.7147 1065.78 14.584 1065.97 14.408C1066.17 14.232 1066.27 14.0107 1066.27 13.744C1066.27 13.3013 1066.06 12.9867 1065.64 12.8C1065.23 12.608 1064.62 12.4427 1063.8 12.304C1063.36 12.2293 1062.95 12.1333 1062.56 12.016C1062.17 11.8933 1061.83 11.736 1061.52 11.544C1061.22 11.352 1060.99 11.1147 1060.81 10.832C1060.64 10.544 1060.56 10.2 1060.56 9.8C1060.56 9.28267 1060.71 8.84533 1061.01 8.488C1061.32 8.12533 1061.74 7.85067 1062.26 7.664C1062.78 7.472 1063.36 7.376 1064 7.376C1064.62 7.376 1065.19 7.47467 1065.72 7.672C1066.24 7.86933 1066.66 8.15733 1066.97 8.536C1067.29 8.90933 1067.45 9.37067 1067.45 9.92C1067.45 9.94133 1067.45 9.968 1067.45 10C1067.45 10.0267 1067.45 10.0533 1067.45 10.08H1066.09C1066.09 10.0533 1066.09 10.032 1066.09 10.016C1066.09 10 1066.09 9.98133 1066.09 9.96C1066.09 9.65067 1065.99 9.39733 1065.8 9.2C1065.6 8.99733 1065.34 8.848 1065.03 8.752C1064.71 8.65067 1064.38 8.6 1064.02 8.6C1063.68 8.6 1063.35 8.63733 1063.03 8.712C1062.7 8.78133 1062.43 8.89867 1062.22 9.064C1062.01 9.22933 1061.9 9.456 1061.9 9.744C1061.9 10.032 1062 10.264 1062.2 10.44C1062.4 10.6107 1062.68 10.752 1063.04 10.864C1063.41 10.9707 1063.84 11.0693 1064.34 11.16C1064.78 11.24 1065.2 11.3413 1065.6 11.464C1065.99 11.5813 1066.34 11.7333 1066.64 11.92C1066.94 12.1067 1067.18 12.344 1067.35 12.632C1067.52 12.9147 1067.61 13.2613 1067.61 13.672C1067.61 14.088 1067.52 14.4507 1067.32 14.76C1067.14 15.0693 1066.88 15.328 1066.54 15.536C1066.21 15.744 1065.82 15.8987 1065.39 16C1064.96 16.1067 1064.49 16.16 1064 16.16ZM1072.91 16.128C1072.65 16.128 1072.39 16.0987 1072.14 16.04C1071.89 15.9813 1071.67 15.8773 1071.46 15.728C1071.27 15.5733 1071.11 15.3573 1070.99 15.08C1070.87 14.7973 1070.82 14.4347 1070.82 13.992C1070.82 13.88 1070.82 13.7653 1070.82 13.648C1070.82 13.5253 1070.82 13.3973 1070.82 13.264V8.704H1068.74V7.504H1070.07C1070.25 7.504 1070.39 7.49867 1070.5 7.488C1070.6 7.472 1070.67 7.43733 1070.71 7.384C1070.76 7.32533 1070.79 7.23733 1070.8 7.12C1070.81 6.99733 1070.82 6.82933 1070.82 6.616V4.688H1072.18V7.504H1074.84V8.704H1072.18V12.824C1072.18 12.9413 1072.18 13.056 1072.18 13.168C1072.18 13.28 1072.18 13.384 1072.18 13.48C1072.18 13.9333 1072.24 14.288 1072.34 14.544C1072.46 14.8 1072.7 14.928 1073.09 14.928C1073.24 14.928 1073.39 14.9147 1073.53 14.888C1073.67 14.8613 1073.77 14.8347 1073.84 14.808V15.992C1073.75 16.024 1073.62 16.0533 1073.46 16.08C1073.3 16.112 1073.11 16.128 1072.91 16.128ZM1076.58 16V7.504H1077.94V10.112L1077.5 9.952C1077.53 9.63733 1077.61 9.328 1077.74 9.024C1077.86 8.71467 1078.04 8.43733 1078.26 8.192C1078.49 7.94133 1078.78 7.744 1079.12 7.6C1079.46 7.45067 1079.86 7.376 1080.32 7.376C1080.66 7.376 1080.94 7.40533 1081.15 7.464C1081.37 7.51733 1081.51 7.56 1081.56 7.592L1081.21 8.928C1081.15 8.89067 1081.04 8.84267 1080.88 8.784C1080.72 8.72533 1080.49 8.696 1080.19 8.696C1079.75 8.696 1079.38 8.776 1079.09 8.936C1078.8 9.096 1078.57 9.30933 1078.4 9.576C1078.23 9.83733 1078.12 10.1227 1078.05 10.432C1077.98 10.7413 1077.94 11.048 1077.94 11.352V16H1076.58ZM1086.16 16.152C1085.55 16.152 1085.04 16.048 1084.64 15.84C1084.23 15.6267 1083.91 15.352 1083.67 15.016C1083.43 14.68 1083.27 14.3173 1083.16 13.928C1083.07 13.5333 1083.02 13.1547 1083.02 12.792C1083.02 12.5893 1083.02 12.3813 1083.02 12.168C1083.02 11.9493 1083.02 11.7307 1083.02 11.512V7.504H1084.39V11.336C1084.39 11.5333 1084.39 11.728 1084.39 11.92C1084.39 12.112 1084.39 12.2933 1084.39 12.464C1084.39 12.896 1084.45 13.296 1084.56 13.664C1084.69 14.032 1084.9 14.3307 1085.2 14.56C1085.5 14.784 1085.91 14.896 1086.43 14.896C1086.92 14.896 1087.35 14.7493 1087.72 14.456C1088.08 14.1573 1088.37 13.7867 1088.58 13.344C1088.79 12.896 1088.89 12.4507 1088.89 12.008L1089.68 12.336C1089.68 12.8053 1089.6 13.2667 1089.44 13.72C1089.27 14.168 1089.03 14.576 1088.72 14.944C1088.42 15.312 1088.05 15.6053 1087.61 15.824C1087.18 16.0427 1086.7 16.152 1086.16 16.152ZM1088.89 16V7.504H1090.25V16H1088.89ZM1096.65 16.16C1095.84 16.16 1095.1 15.984 1094.44 15.632C1093.78 15.2747 1093.25 14.7653 1092.86 14.104C1092.48 13.4427 1092.29 12.656 1092.29 11.744C1092.29 10.832 1092.48 10.0507 1092.86 9.4C1093.25 8.744 1093.78 8.24267 1094.44 7.896C1095.1 7.54933 1095.84 7.376 1096.65 7.376C1097.27 7.376 1097.82 7.472 1098.3 7.664C1098.79 7.85067 1099.2 8.10133 1099.53 8.416C1099.87 8.73067 1100.13 9.07733 1100.3 9.456C1100.48 9.82933 1100.57 10.2027 1100.57 10.576C1100.57 10.5813 1100.57 10.5893 1100.57 10.6C1100.57 10.6107 1100.57 10.6213 1100.57 10.632H1099.22C1099.22 10.6053 1099.22 10.576 1099.21 10.544C1099.21 10.5067 1099.2 10.4693 1099.2 10.432C1099.16 10.0747 1099.02 9.76267 1098.79 9.496C1098.56 9.224 1098.26 9.01067 1097.89 8.856C1097.53 8.70133 1097.11 8.624 1096.64 8.624C1096.11 8.624 1095.62 8.73867 1095.17 8.968C1094.72 9.192 1094.36 9.536 1094.08 10C1093.81 10.4587 1093.67 11.04 1093.67 11.744C1093.67 12.4427 1093.81 13.0267 1094.08 13.496C1094.35 13.9653 1094.71 14.32 1095.16 14.56C1095.61 14.7947 1096.11 14.912 1096.64 14.912C1097.21 14.912 1097.69 14.8213 1098.06 14.64C1098.44 14.4587 1098.72 14.2187 1098.9 13.92C1099.09 13.616 1099.2 13.2907 1099.22 12.944H1100.57C1100.57 13.328 1100.49 13.712 1100.32 14.096C1100.15 14.4747 1099.9 14.8213 1099.57 15.136C1099.24 15.4453 1098.83 15.6933 1098.33 15.88C1097.85 16.0667 1097.29 16.16 1096.65 16.16ZM1105.88 16.128C1105.62 16.128 1105.36 16.0987 1105.11 16.04C1104.86 15.9813 1104.64 15.8773 1104.43 15.728C1104.24 15.5733 1104.08 15.3573 1103.96 15.08C1103.84 14.7973 1103.78 14.4347 1103.78 13.992C1103.78 13.88 1103.78 13.7653 1103.78 13.648C1103.78 13.5253 1103.78 13.3973 1103.78 13.264V8.704H1101.71V7.504H1103.04C1103.22 7.504 1103.36 7.49867 1103.46 7.488C1103.57 7.472 1103.64 7.43733 1103.68 7.384C1103.73 7.32533 1103.76 7.23733 1103.77 7.12C1103.78 6.99733 1103.78 6.82933 1103.78 6.616V4.688H1105.15V7.504H1107.81V8.704H1105.15V12.824C1105.15 12.9413 1105.15 13.056 1105.15 13.168C1105.15 13.28 1105.15 13.384 1105.15 13.48C1105.15 13.9333 1105.21 14.288 1105.31 14.544C1105.42 14.8 1105.67 14.928 1106.06 14.928C1106.21 14.928 1106.36 14.9147 1106.5 14.888C1106.64 14.8613 1106.74 14.8347 1106.81 14.808V15.992C1106.72 16.024 1106.59 16.0533 1106.42 16.08C1106.26 16.112 1106.08 16.128 1105.88 16.128ZM1109.63 16V7.504H1110.98V16H1109.63ZM1110.31 5.552C1110.06 5.552 1109.84 5.48267 1109.66 5.344C1109.47 5.2 1109.38 5.00533 1109.38 4.76C1109.38 4.52 1109.47 4.33067 1109.66 4.192C1109.84 4.048 1110.06 3.976 1110.31 3.976C1110.56 3.976 1110.78 4.048 1110.96 4.192C1111.14 4.33067 1111.23 4.52 1111.23 4.76C1111.23 5.00533 1111.14 5.2 1110.96 5.344C1110.78 5.48267 1110.56 5.552 1110.31 5.552ZM1117.53 16.152C1116.68 16.152 1115.92 15.9627 1115.27 15.584C1114.61 15.2 1114.1 14.6773 1113.73 14.016C1113.36 13.3493 1113.18 12.592 1113.18 11.744C1113.18 10.896 1113.36 10.144 1113.73 9.488C1114.1 8.832 1114.61 8.31733 1115.27 7.944C1115.92 7.57067 1116.68 7.384 1117.53 7.384C1118.38 7.384 1119.13 7.57067 1119.79 7.944C1120.44 8.31733 1120.95 8.832 1121.32 9.488C1121.69 10.144 1121.88 10.896 1121.88 11.744C1121.88 12.592 1121.69 13.3493 1121.32 14.016C1120.95 14.6773 1120.44 15.2 1119.79 15.584C1119.13 15.9627 1118.38 16.152 1117.53 16.152ZM1117.53 14.904C1118.12 14.904 1118.63 14.7733 1119.08 14.512C1119.53 14.2507 1119.88 13.8827 1120.13 13.408C1120.39 12.9333 1120.51 12.3787 1120.51 11.744C1120.51 11.1093 1120.39 10.56 1120.13 10.096C1119.88 9.62667 1119.53 9.26667 1119.08 9.016C1118.63 8.76 1118.12 8.632 1117.53 8.632C1116.95 8.632 1116.43 8.76 1115.98 9.016C1115.53 9.26667 1115.18 9.62667 1114.92 10.096C1114.67 10.56 1114.55 11.1093 1114.55 11.744C1114.55 12.3787 1114.67 12.9333 1114.92 13.408C1115.18 13.8827 1115.53 14.2507 1115.98 14.512C1116.43 14.7733 1116.95 14.904 1117.53 14.904ZM1130.09 16V11.928C1130.09 11.6827 1130.09 11.4827 1130.09 11.328C1130.09 11.168 1130.09 11.016 1130.09 10.872C1130.09 10.4293 1130.01 10.0427 1129.86 9.712C1129.71 9.38133 1129.48 9.12533 1129.16 8.944C1128.84 8.76267 1128.42 8.672 1127.9 8.672C1127.45 8.672 1127.03 8.78933 1126.64 9.024C1126.25 9.25333 1125.94 9.56533 1125.71 9.96C1125.48 10.3493 1125.37 10.7867 1125.37 11.272L1124.59 10.976C1124.59 10.3093 1124.75 9.704 1125.08 9.16C1125.41 8.616 1125.85 8.184 1126.39 7.864C1126.94 7.53867 1127.54 7.376 1128.18 7.376C1128.84 7.376 1129.41 7.50133 1129.9 7.752C1130.39 8.00267 1130.77 8.36267 1131.04 8.832C1131.31 9.296 1131.45 9.856 1131.45 10.512C1131.45 10.7467 1131.45 11.0027 1131.45 11.28C1131.45 11.5573 1131.45 11.816 1131.45 12.056V16H1130.09ZM1124.01 16V7.504H1125.37V16H1124.01ZM1137.07 16.16C1136.55 16.16 1136.08 16.1067 1135.64 16C1135.21 15.888 1134.83 15.728 1134.51 15.52C1134.19 15.3067 1133.94 15.0453 1133.75 14.736C1133.58 14.4267 1133.49 14.072 1133.49 13.672C1133.49 13.6293 1133.49 13.5867 1133.49 13.544C1133.49 13.496 1133.49 13.456 1133.49 13.424H1134.86C1134.86 13.456 1134.86 13.4827 1134.86 13.504C1134.86 13.5253 1134.86 13.5573 1134.86 13.6C1134.86 14.032 1135.06 14.3627 1135.46 14.592C1135.86 14.816 1136.4 14.928 1137.1 14.928C1137.52 14.928 1137.91 14.8853 1138.24 14.8C1138.58 14.7147 1138.84 14.584 1139.03 14.408C1139.23 14.232 1139.33 14.0107 1139.33 13.744C1139.33 13.3013 1139.12 12.9867 1138.71 12.8C1138.3 12.608 1137.68 12.4427 1136.86 12.304C1136.43 12.2293 1136.02 12.1333 1135.63 12.016C1135.24 11.8933 1134.89 11.736 1134.59 11.544C1134.29 11.352 1134.05 11.1147 1133.87 10.832C1133.7 10.544 1133.62 10.2 1133.62 9.8C1133.62 9.28267 1133.77 8.84533 1134.07 8.488C1134.38 8.12533 1134.8 7.85067 1135.32 7.664C1135.84 7.472 1136.43 7.376 1137.07 7.376C1137.68 7.376 1138.26 7.47467 1138.78 7.672C1139.3 7.86933 1139.72 8.15733 1140.03 8.536C1140.35 8.90933 1140.51 9.37067 1140.51 9.92C1140.51 9.94133 1140.51 9.968 1140.51 10C1140.51 10.0267 1140.51 10.0533 1140.51 10.08H1139.15C1139.15 10.0533 1139.15 10.032 1139.15 10.016C1139.15 10 1139.15 9.98133 1139.15 9.96C1139.15 9.65067 1139.06 9.39733 1138.86 9.2C1138.66 8.99733 1138.4 8.848 1138.09 8.752C1137.78 8.65067 1137.44 8.6 1137.08 8.6C1136.75 8.6 1136.42 8.63733 1136.09 8.712C1135.76 8.78133 1135.5 8.89867 1135.28 9.064C1135.07 9.22933 1134.96 9.456 1134.96 9.744C1134.96 10.032 1135.06 10.264 1135.26 10.44C1135.46 10.6107 1135.74 10.752 1136.11 10.864C1136.47 10.9707 1136.91 11.0693 1137.4 11.16C1137.84 11.24 1138.26 11.3413 1138.66 11.464C1139.05 11.5813 1139.4 11.7333 1139.7 11.92C1140 12.1067 1140.24 12.344 1140.41 12.632C1140.59 12.9147 1140.67 13.2613 1140.67 13.672C1140.67 14.088 1140.58 14.4507 1140.39 14.76C1140.2 15.0693 1139.94 15.328 1139.6 15.536C1139.27 15.744 1138.89 15.8987 1138.45 16C1138.02 16.1067 1137.56 16.16 1137.07 16.16Z" fill="white"/>
<path d="M1194.79 11.896C1194.79 12.3707 1194.7 12.8587 1194.53 13.36C1194.35 13.856 1194.09 14.3173 1193.73 14.744C1193.38 15.1653 1192.93 15.5067 1192.39 15.768C1191.85 16.0293 1191.22 16.16 1190.5 16.16C1189.5 16.16 1188.65 15.9013 1187.95 15.384C1187.25 14.8613 1186.72 14.144 1186.35 13.232C1185.99 12.32 1185.81 11.2773 1185.81 10.104C1185.81 8.92533 1185.99 7.88267 1186.35 6.976C1186.72 6.064 1187.25 5.34933 1187.95 4.832C1188.65 4.31467 1189.5 4.056 1190.5 4.056C1191.33 4.056 1192.04 4.22667 1192.62 4.568C1193.21 4.90933 1193.68 5.344 1194.02 5.872C1194.37 6.4 1194.6 6.944 1194.7 7.504C1194.76 7.78667 1194.79 8.05333 1194.79 8.304H1193.42C1193.42 8.16 1193.41 7.99467 1193.38 7.808C1193.32 7.36 1193.17 6.94667 1192.92 6.568C1192.68 6.184 1192.36 5.87733 1191.95 5.648C1191.55 5.41333 1191.06 5.296 1190.5 5.296C1189.83 5.296 1189.26 5.47733 1188.76 5.84C1188.27 6.20267 1187.89 6.74133 1187.61 7.456C1187.34 8.17067 1187.2 9.05333 1187.2 10.104C1187.2 11.1547 1187.34 12.04 1187.61 12.76C1187.89 13.4747 1188.27 14.016 1188.76 14.384C1189.26 14.7467 1189.83 14.928 1190.5 14.928C1190.97 14.928 1191.39 14.8427 1191.75 14.672C1192.11 14.496 1192.42 14.264 1192.66 13.976C1192.91 13.6827 1193.1 13.3573 1193.23 13C1193.36 12.6373 1193.42 12.2693 1193.42 11.896H1194.79ZM1202.91 16V12.84C1202.91 12.6907 1202.91 12.5147 1202.91 12.312C1202.91 12.104 1202.91 11.896 1202.91 11.688C1202.91 11.4747 1202.91 11.2933 1202.91 11.144C1202.91 10.328 1202.73 9.712 1202.38 9.296C1202.03 8.88 1201.48 8.672 1200.72 8.672C1200.22 8.672 1199.77 8.77067 1199.39 8.968C1199.01 9.16533 1198.71 9.43467 1198.5 9.776C1198.28 10.1173 1198.18 10.504 1198.18 10.936L1197.31 10.672C1197.31 10.064 1197.47 9.512 1197.79 9.016C1198.11 8.51467 1198.54 8.11733 1199.09 7.824C1199.64 7.52533 1200.27 7.376 1200.97 7.376C1201.99 7.376 1202.79 7.68267 1203.38 8.296C1203.97 8.90933 1204.27 9.75733 1204.27 10.84C1204.27 11.1227 1204.27 11.448 1204.27 11.816C1204.27 12.184 1204.27 12.5707 1204.27 12.976V16H1202.91ZM1196.82 16V3.496H1198.18V16H1196.82ZM1209.6 16.16C1208.95 16.16 1208.39 16.0587 1207.9 15.856C1207.42 15.6533 1207.05 15.3627 1206.78 14.984C1206.52 14.6 1206.38 14.1413 1206.38 13.608C1206.38 13.0533 1206.53 12.592 1206.81 12.224C1207.1 11.8507 1207.51 11.56 1208.03 11.352C1208.55 11.144 1209.16 11.0053 1209.85 10.936C1210.9 10.8293 1211.64 10.7253 1212.09 10.624C1212.53 10.5173 1212.75 10.3467 1212.75 10.112C1212.75 10.1067 1212.75 10.104 1212.75 10.104C1212.75 10.0987 1212.75 10.0933 1212.75 10.088C1212.75 9.59733 1212.55 9.232 1212.15 8.992C1211.75 8.74667 1211.17 8.624 1210.41 8.624C1209.62 8.624 1209.01 8.76267 1208.57 9.04C1208.14 9.312 1207.92 9.75467 1207.92 10.368H1206.57C1206.57 9.73333 1206.74 9.19467 1207.06 8.752C1207.39 8.304 1207.84 7.96267 1208.41 7.728C1209 7.49333 1209.66 7.376 1210.42 7.376C1211.12 7.376 1211.74 7.48267 1212.29 7.696C1212.85 7.904 1213.3 8.216 1213.62 8.632C1213.95 9.04267 1214.12 9.552 1214.12 10.16C1214.12 10.272 1214.12 10.384 1214.12 10.496C1214.12 10.6027 1214.12 10.712 1214.12 10.824V14.4C1214.12 14.5867 1214.13 14.768 1214.14 14.944C1214.16 15.12 1214.18 15.2747 1214.22 15.408C1214.27 15.568 1214.32 15.6987 1214.38 15.8C1214.44 15.896 1214.49 15.9627 1214.53 16H1213.16C1213.13 15.9733 1213.09 15.912 1213.04 15.816C1212.98 15.7147 1212.93 15.5973 1212.89 15.464C1212.85 15.3573 1212.82 15.224 1212.8 15.064C1212.78 14.8987 1212.77 14.728 1212.77 14.552L1212.99 14.704C1212.82 14.992 1212.58 15.2453 1212.26 15.464C1211.95 15.6827 1211.57 15.8533 1211.12 15.976C1210.67 16.0987 1210.16 16.16 1209.6 16.16ZM1209.81 14.936C1210.36 14.936 1210.86 14.8533 1211.3 14.688C1211.74 14.5173 1212.1 14.2667 1212.36 13.936C1212.62 13.6053 1212.75 13.1947 1212.75 12.704V11.016L1213.05 11.528C1212.71 11.6613 1212.29 11.7707 1211.77 11.856C1211.27 11.936 1210.74 12.0027 1210.18 12.056C1209.38 12.1307 1208.77 12.272 1208.36 12.48C1207.95 12.688 1207.75 13.0373 1207.75 13.528C1207.75 13.992 1207.92 14.344 1208.25 14.584C1208.59 14.8187 1209.11 14.936 1209.81 14.936ZM1222.46 16V11.928C1222.46 11.6827 1222.46 11.4827 1222.46 11.328C1222.46 11.168 1222.46 11.016 1222.46 10.872C1222.46 10.4293 1222.39 10.0427 1222.24 9.712C1222.09 9.38133 1221.85 9.12533 1221.53 8.944C1221.21 8.76267 1220.79 8.672 1220.28 8.672C1219.82 8.672 1219.4 8.78933 1219.01 9.024C1218.63 9.25333 1218.32 9.56533 1218.08 9.96C1217.85 10.3493 1217.74 10.7867 1217.74 11.272L1216.96 10.976C1216.96 10.3093 1217.13 9.704 1217.45 9.16C1217.78 8.616 1218.22 8.184 1218.76 7.864C1219.31 7.53867 1219.91 7.376 1220.56 7.376C1221.21 7.376 1221.79 7.50133 1222.28 7.752C1222.77 8.00267 1223.15 8.36267 1223.41 8.832C1223.68 9.296 1223.82 9.856 1223.82 10.512C1223.82 10.7467 1223.82 11.0027 1223.82 11.28C1223.82 11.5573 1223.82 11.816 1223.82 12.056V16H1222.46ZM1216.38 16V7.504H1217.74V16H1216.38ZM1231.62 15.48C1232.08 15.5173 1232.48 15.6027 1232.82 15.736C1233.18 15.864 1233.45 16.0533 1233.65 16.304C1233.85 16.56 1233.94 16.8933 1233.94 17.304C1233.94 17.7573 1233.79 18.1573 1233.48 18.504C1233.17 18.856 1232.7 19.1307 1232.07 19.328C1231.44 19.5253 1230.65 19.624 1229.7 19.624C1228.35 19.624 1227.33 19.4267 1226.64 19.032C1225.95 18.6427 1225.61 18.1093 1225.61 17.432C1225.61 17.2187 1225.63 17.0293 1225.68 16.864C1225.73 16.704 1225.79 16.5733 1225.86 16.472L1227.15 16.664C1227.11 16.7227 1227.07 16.8107 1227.02 16.928C1226.99 17.0507 1226.97 17.192 1226.97 17.352C1226.97 17.7787 1227.21 18.0773 1227.7 18.248C1228.18 18.424 1228.87 18.512 1229.76 18.512C1230.43 18.512 1230.97 18.4667 1231.4 18.376C1231.83 18.2853 1232.14 18.1547 1232.35 17.984C1232.56 17.8133 1232.66 17.6133 1232.66 17.384C1232.66 17.0373 1232.52 16.8213 1232.22 16.736C1231.94 16.656 1231.58 16.6 1231.15 16.568L1227.92 16.328C1227.38 16.2853 1226.94 16.12 1226.6 15.832C1226.26 15.5387 1226.1 15.184 1226.1 14.768C1226.1 14.512 1226.16 14.2693 1226.28 14.04C1226.41 13.8107 1226.56 13.6187 1226.72 13.464C1226.89 13.304 1227.04 13.208 1227.18 13.176L1228.25 13.664C1228.12 13.6853 1227.95 13.7787 1227.75 13.944C1227.56 14.104 1227.46 14.2933 1227.46 14.512C1227.46 14.7093 1227.54 14.872 1227.7 15C1227.85 15.1227 1228.16 15.2027 1228.62 15.24L1231.62 15.48ZM1232.79 7.504H1234.07L1233.54 10.848C1233.45 11.472 1233.25 12.0373 1232.94 12.544C1232.64 13.0453 1232.22 13.4453 1231.7 13.744C1231.17 14.0373 1230.53 14.184 1229.75 14.184C1228.95 14.184 1228.26 14.0373 1227.69 13.744C1227.12 13.4507 1226.68 13.0507 1226.38 12.544C1226.07 12.032 1225.92 11.456 1225.92 10.816C1225.92 10.1653 1226.08 9.58133 1226.39 9.064C1226.71 8.54133 1227.16 8.13067 1227.72 7.832C1228.29 7.528 1228.93 7.376 1229.66 7.376C1230.32 7.376 1230.89 7.49067 1231.38 7.72C1231.88 7.944 1232.26 8.22667 1232.54 8.568C1232.83 8.90933 1232.99 9.25333 1233.02 9.6L1232.51 9.632L1232.79 7.504ZM1229.74 12.968C1230.26 12.968 1230.7 12.8827 1231.07 12.712C1231.45 12.5413 1231.73 12.2933 1231.93 11.968C1232.13 11.6427 1232.23 11.248 1232.23 10.784C1232.23 10.336 1232.13 9.94933 1231.93 9.624C1231.73 9.29333 1231.45 9.04 1231.07 8.864C1230.7 8.68267 1230.26 8.592 1229.75 8.592C1229.26 8.592 1228.83 8.68533 1228.45 8.872C1228.08 9.05333 1227.78 9.30933 1227.57 9.64C1227.36 9.97067 1227.26 10.36 1227.26 10.808C1227.26 11.2613 1227.36 11.6507 1227.55 11.976C1227.76 12.296 1228.04 12.5413 1228.41 12.712C1228.78 12.8827 1229.23 12.968 1229.74 12.968ZM1235.98 12.296V11.08H1242.54L1242.3 11.48C1242.3 11.448 1242.3 11.4187 1242.3 11.392C1242.3 11.36 1242.3 11.3307 1242.3 11.304C1242.3 10.8133 1242.2 10.3653 1241.99 9.96C1241.79 9.54933 1241.49 9.22133 1241.08 8.976C1240.68 8.73067 1240.17 8.608 1239.58 8.608C1238.97 8.608 1238.44 8.736 1237.98 8.992C1237.53 9.248 1237.17 9.61067 1236.91 10.08C1236.66 10.544 1236.53 11.0987 1236.53 11.744C1236.53 12.4 1236.65 12.9653 1236.9 13.44C1237.15 13.9147 1237.5 14.28 1237.96 14.536C1238.42 14.792 1238.96 14.92 1239.59 14.92C1240.04 14.92 1240.43 14.8747 1240.76 14.784C1241.09 14.688 1241.36 14.5627 1241.58 14.408C1241.8 14.248 1241.96 14.0747 1242.07 13.888C1242.18 13.7013 1242.25 13.5147 1242.27 13.328H1243.63C1243.61 13.6693 1243.5 14.008 1243.31 14.344C1243.13 14.68 1242.86 14.9867 1242.52 15.264C1242.18 15.536 1241.76 15.7547 1241.26 15.92C1240.77 16.0853 1240.2 16.168 1239.55 16.168C1238.7 16.168 1237.95 15.9813 1237.3 15.608C1236.65 15.2347 1236.13 14.7173 1235.76 14.056C1235.39 13.3947 1235.21 12.6347 1235.21 11.776C1235.21 10.9067 1235.4 10.144 1235.77 9.488C1236.14 8.82667 1236.66 8.30933 1237.31 7.936C1237.97 7.56267 1238.72 7.376 1239.56 7.376C1240.42 7.376 1241.16 7.56267 1241.79 7.936C1242.42 8.30933 1242.91 8.82133 1243.25 9.472C1243.59 10.1173 1243.76 10.8533 1243.76 11.68C1243.76 11.7653 1243.76 11.8773 1243.75 12.016C1243.75 12.1547 1243.74 12.248 1243.73 12.296H1235.98ZM1249.78 16V4.2H1251.15V15.576L1250.54 14.8H1255.81V16H1249.78ZM1261.75 16.152C1260.89 16.152 1260.14 15.9627 1259.48 15.584C1258.83 15.2 1258.32 14.6773 1257.95 14.016C1257.58 13.3493 1257.4 12.592 1257.4 11.744C1257.4 10.896 1257.58 10.144 1257.95 9.488C1258.32 8.832 1258.83 8.31733 1259.48 7.944C1260.14 7.57067 1260.89 7.384 1261.75 7.384C1262.6 7.384 1263.35 7.57067 1264 7.944C1264.66 8.31733 1265.17 8.832 1265.54 9.488C1265.91 10.144 1266.1 10.896 1266.1 11.744C1266.1 12.592 1265.91 13.3493 1265.54 14.016C1265.17 14.6773 1264.66 15.2 1264 15.584C1263.35 15.9627 1262.6 16.152 1261.75 16.152ZM1261.75 14.904C1262.33 14.904 1262.85 14.7733 1263.3 14.512C1263.75 14.2507 1264.1 13.8827 1264.35 13.408C1264.6 12.9333 1264.73 12.3787 1264.73 11.744C1264.73 11.1093 1264.6 10.56 1264.35 10.096C1264.1 9.62667 1263.75 9.26667 1263.3 9.016C1262.85 8.76 1262.33 8.632 1261.75 8.632C1261.17 8.632 1260.65 8.76 1260.2 9.016C1259.75 9.26667 1259.4 9.62667 1259.14 10.096C1258.89 10.56 1258.76 11.1093 1258.76 11.744C1258.76 12.3787 1258.89 12.9333 1259.14 13.408C1259.4 13.8827 1259.75 14.2507 1260.2 14.512C1260.65 14.7733 1261.17 14.904 1261.75 14.904ZM1273.65 15.48C1274.11 15.5173 1274.51 15.6027 1274.86 15.736C1275.21 15.864 1275.48 16.0533 1275.68 16.304C1275.88 16.56 1275.98 16.8933 1275.98 17.304C1275.98 17.7573 1275.82 18.1573 1275.51 18.504C1275.2 18.856 1274.73 19.1307 1274.1 19.328C1273.47 19.5253 1272.68 19.624 1271.73 19.624C1270.38 19.624 1269.36 19.4267 1268.67 19.032C1267.98 18.6427 1267.64 18.1093 1267.64 17.432C1267.64 17.2187 1267.66 17.0293 1267.71 16.864C1267.77 16.704 1267.82 16.5733 1267.89 16.472L1269.18 16.664C1269.14 16.7227 1269.1 16.8107 1269.06 16.928C1269.02 17.0507 1269 17.192 1269 17.352C1269 17.7787 1269.24 18.0773 1269.73 18.248C1270.21 18.424 1270.9 18.512 1271.79 18.512C1272.46 18.512 1273.01 18.4667 1273.43 18.376C1273.86 18.2853 1274.18 18.1547 1274.38 17.984C1274.59 17.8133 1274.7 17.6133 1274.7 17.384C1274.7 17.0373 1274.55 16.8213 1274.26 16.736C1273.97 16.656 1273.61 16.6 1273.18 16.568L1269.95 16.328C1269.41 16.2853 1268.97 16.12 1268.63 15.832C1268.3 15.5387 1268.13 15.184 1268.13 14.768C1268.13 14.512 1268.19 14.2693 1268.31 14.04C1268.44 13.8107 1268.59 13.6187 1268.75 13.464C1268.92 13.304 1269.07 13.208 1269.21 13.176L1270.28 13.664C1270.15 13.6853 1269.98 13.7787 1269.78 13.944C1269.59 14.104 1269.5 14.2933 1269.5 14.512C1269.5 14.7093 1269.57 14.872 1269.73 15C1269.88 15.1227 1270.19 15.2027 1270.65 15.24L1273.65 15.48ZM1274.82 7.504H1276.1L1275.58 10.848C1275.48 11.472 1275.28 12.0373 1274.98 12.544C1274.67 13.0453 1274.26 13.4453 1273.73 13.744C1273.21 14.0373 1272.56 14.184 1271.78 14.184C1270.98 14.184 1270.29 14.0373 1269.72 13.744C1269.15 13.4507 1268.71 13.0507 1268.41 12.544C1268.1 12.032 1267.95 11.456 1267.95 10.816C1267.95 10.1653 1268.11 9.58133 1268.42 9.064C1268.74 8.54133 1269.19 8.13067 1269.75 7.832C1270.32 7.528 1270.97 7.376 1271.7 7.376C1272.35 7.376 1272.93 7.49067 1273.42 7.72C1273.91 7.944 1274.29 8.22667 1274.58 8.568C1274.86 8.90933 1275.02 9.25333 1275.06 9.6L1274.54 9.632L1274.82 7.504ZM1271.78 12.968C1272.29 12.968 1272.74 12.8827 1273.1 12.712C1273.48 12.5413 1273.76 12.2933 1273.96 11.968C1274.16 11.6427 1274.26 11.248 1274.26 10.784C1274.26 10.336 1274.16 9.94933 1273.96 9.624C1273.76 9.29333 1273.48 9.04 1273.1 8.864C1272.74 8.68267 1272.3 8.592 1271.78 8.592C1271.29 8.592 1270.86 8.68533 1270.48 8.872C1270.11 9.05333 1269.81 9.30933 1269.6 9.64C1269.39 9.97067 1269.29 10.36 1269.29 10.808C1269.29 11.2613 1269.39 11.6507 1269.58 11.976C1269.79 12.296 1270.07 12.5413 1270.44 12.712C1270.81 12.8827 1271.26 12.968 1271.78 12.968Z" fill="white"/>
<path d="M1013.54 3.496L1008.5 17.24H1007.34L1012.39 3.496H1013.54Z" fill="white"/>
<path d="M1152.54 3.496L1147.5 17.24H1146.34L1151.39 3.496H1152.54Z" fill="white"/>
<path d="M906.536 3.496L901.496 17.24H900.344L905.392 3.496H906.536Z" fill="white"/>
</svg>
