<svg width="700" height="24" viewBox="0 0 700 24" fill="none" xmlns="http://www.w3.org/2000/svg">
<g clip-path="url(#clip0_1_160)">
<path d="M-9 12C-3 6.66667 3 6.66667 9 12C15 17.3333 21 17.3333 27 12C33 6.66667 39 6.66667 45 12C51 17.3333 57 17.3333 63 12C69 6.66667 75 6.66667 81 12C87 17.3333 93 17.3333 99 12C105 6.66667 111 6.66667 117 12C123 17.3333 129 17.3333 135 12C141 6.66667 147 6.66667 153 12C159 17.3333 165 17.3333 171 12" stroke="#4543E8" stroke-width="2"/>
</g>
<path d="M94.552 16L92.68 4.2H94.088L95.68 15.416L95.472 15.408L97.992 4.2H99.8L102.312 15.408L102.104 15.416L103.696 4.2H105.112L103.224 16H101.12L98.816 5.352H98.976L96.664 16H94.552ZM112.762 16.16C112.074 16.16 111.442 16.024 110.866 15.752C110.296 15.48 109.797 15.0853 109.37 14.568C108.949 14.0453 108.621 13.408 108.386 12.656C108.157 11.904 108.042 11.048 108.042 10.088C108.042 9.128 108.157 8.27467 108.386 7.528C108.621 6.776 108.949 6.144 109.37 5.632C109.797 5.11467 110.298 4.72267 110.874 4.456C111.45 4.18933 112.08 4.056 112.762 4.056C113.45 4.056 114.082 4.18933 114.658 4.456C115.234 4.72267 115.733 5.11467 116.154 5.632C116.581 6.144 116.909 6.776 117.138 7.528C117.373 8.27467 117.49 9.128 117.49 10.088C117.49 11.048 117.373 11.904 117.138 12.656C116.909 13.408 116.581 14.0453 116.154 14.568C115.733 15.0853 115.234 15.48 114.658 15.752C114.082 16.024 113.45 16.16 112.762 16.16ZM112.762 14.928C113.418 14.928 113.997 14.7493 114.498 14.392C115 14.0347 115.392 13.4987 115.674 12.784C115.957 12.064 116.098 11.1653 116.098 10.088C116.098 9.00533 115.954 8.10933 115.666 7.4C115.384 6.69067 114.992 6.16267 114.49 5.816C113.989 5.46933 113.413 5.296 112.762 5.296C112.117 5.296 111.541 5.46933 111.034 5.816C110.533 6.16267 110.138 6.69067 109.85 7.4C109.568 8.10933 109.426 9.00533 109.426 10.088C109.426 11.1707 109.568 12.072 109.85 12.792C110.138 13.5067 110.533 14.0427 111.034 14.4C111.541 14.752 112.117 14.928 112.762 14.928ZM121.425 16V4.2H125.521C126.604 4.2 127.428 4.456 127.993 4.968C128.558 5.48 128.841 6.26133 128.841 7.312C128.841 7.94133 128.721 8.47733 128.481 8.92C128.246 9.35733 127.961 9.696 127.625 9.936C127.294 10.176 126.988 10.312 126.705 10.344C126.993 10.3653 127.276 10.4453 127.553 10.584C127.836 10.7173 128.07 10.9253 128.257 11.208C128.444 11.4907 128.537 11.8693 128.537 12.344C128.537 12.7813 128.537 13.2293 128.537 13.688C128.537 14.1413 128.537 14.5893 128.537 15.032C128.537 15.2613 128.556 15.4667 128.593 15.648C128.63 15.824 128.673 15.9413 128.721 16H127.345C127.308 15.9307 127.27 15.8107 127.233 15.64C127.196 15.4693 127.177 15.2667 127.177 15.032C127.177 14.6213 127.177 14.2027 127.177 13.776C127.177 13.3493 127.177 12.928 127.177 12.512C127.177 11.9893 127.012 11.6 126.681 11.344C126.35 11.088 125.884 10.96 125.281 10.96H122.377L122.761 10.44V16H121.425ZM122.761 10.328L122.377 9.76H125.297C125.692 9.76 126.049 9.664 126.369 9.472C126.694 9.27467 126.953 9.00267 127.145 8.656C127.342 8.304 127.441 7.89333 127.441 7.424C127.441 6.69333 127.249 6.17333 126.865 5.864C126.481 5.55467 125.926 5.4 125.201 5.4H122.345L122.761 4.808V10.328ZM135.885 10.024L135.917 8.968L140.637 16H139.093L135.061 10.032L135.765 10.12L134.164 12.216L134.309 11.328V16H132.941V4.2H134.309V10.688L134.037 10.4L138.853 4.2H140.349L135.885 10.024Z" fill="#4543E8"/>
<defs>
<clipPath id="clip0_1_160">
<rect width="72" height="10" fill="white" transform="translate(0 7)"/>
</clipPath>
</defs>
</svg>
