<svg width="1280" height="24" viewBox="0 0 1280 24" fill="none" xmlns="http://www.w3.org/2000/svg">
<g clip-path="url(#clip0_1_381)">
<path d="M-9 12C-3 6.66667 3 6.66667 9 12C15 17.3333 21 17.3333 27 12C33 6.66667 39 6.66667 45 12C51 17.3333 57 17.3333 63 12C69 6.66667 75 6.66667 81 12C87 17.3333 93 17.3333 99 12C105 6.66667 111 6.66667 117 12C123 17.3333 129 17.3333 135 12C141 6.66667 147 6.66667 153 12C159 17.3333 165 17.3333 171 12" stroke="#4543E8" stroke-width="2"/>
</g>
<path d="M94.496 16H93.128V4.2H96.44C97.352 4.2 98.1093 4.37067 98.712 4.712C99.3147 5.048 99.7653 5.50133 100.064 6.072C100.363 6.64267 100.512 7.27733 100.512 7.976C100.512 8.67467 100.357 9.32 100.048 9.912C99.744 10.504 99.288 10.9813 98.68 11.344C98.0773 11.7013 97.3307 11.88 96.44 11.88H94.496V16ZM94.496 11.376L93.88 10.68H96.272C96.912 10.68 97.4427 10.568 97.864 10.344C98.2907 10.1147 98.608 9.79733 98.816 9.392C99.0293 8.98667 99.136 8.51467 99.136 7.976C99.136 7.432 99.0347 6.968 98.832 6.584C98.6293 6.2 98.3173 5.90667 97.896 5.704C97.4747 5.50133 96.9333 5.4 96.272 5.4H93.88L94.496 4.624V11.376ZM104.331 16V4.2H108.427C109.51 4.2 110.334 4.456 110.899 4.968C111.464 5.48 111.747 6.26133 111.747 7.312C111.747 7.94133 111.627 8.47733 111.387 8.92C111.152 9.35733 110.867 9.696 110.531 9.936C110.2 10.176 109.894 10.312 109.611 10.344C109.899 10.3653 110.182 10.4453 110.459 10.584C110.742 10.7173 110.976 10.9253 111.163 11.208C111.35 11.4907 111.443 11.8693 111.443 12.344C111.443 12.7813 111.443 13.2293 111.443 13.688C111.443 14.1413 111.443 14.5893 111.443 15.032C111.443 15.2613 111.462 15.4667 111.499 15.648C111.536 15.824 111.579 15.9413 111.627 16H110.251C110.214 15.9307 110.176 15.8107 110.139 15.64C110.102 15.4693 110.083 15.2667 110.083 15.032C110.083 14.6213 110.083 14.2027 110.083 13.776C110.083 13.3493 110.083 12.928 110.083 12.512C110.083 11.9893 109.918 11.6 109.587 11.344C109.256 11.088 108.79 10.96 108.187 10.96H105.283L105.667 10.44V16H104.331ZM105.667 10.328L105.283 9.76H108.203C108.598 9.76 108.955 9.664 109.275 9.472C109.6 9.27467 109.859 9.00267 110.051 8.656C110.248 8.304 110.347 7.89333 110.347 7.424C110.347 6.69333 110.155 6.17333 109.771 5.864C109.387 5.55467 108.832 5.4 108.107 5.4H105.251L105.667 4.808V10.328ZM120.247 16.16C119.559 16.16 118.927 16.024 118.351 15.752C117.78 15.48 117.281 15.0853 116.855 14.568C116.433 14.0453 116.105 13.408 115.871 12.656C115.641 11.904 115.527 11.048 115.527 10.088C115.527 9.128 115.641 8.27467 115.871 7.528C116.105 6.776 116.433 6.144 116.855 5.632C117.281 5.11467 117.783 4.72267 118.359 4.456C118.935 4.18933 119.564 4.056 120.247 4.056C120.935 4.056 121.567 4.18933 122.143 4.456C122.719 4.72267 123.217 5.11467 123.639 5.632C124.065 6.144 124.393 6.776 124.623 7.528C124.857 8.27467 124.975 9.128 124.975 10.088C124.975 11.048 124.857 11.904 124.623 12.656C124.393 13.408 124.065 14.0453 123.639 14.568C123.217 15.0853 122.719 15.48 122.143 15.752C121.567 16.024 120.935 16.16 120.247 16.16ZM120.247 14.928C120.903 14.928 121.481 14.7493 121.983 14.392C122.484 14.0347 122.876 13.4987 123.159 12.784C123.441 12.064 123.583 11.1653 123.583 10.088C123.583 9.00533 123.439 8.10933 123.151 7.4C122.868 6.69067 122.476 6.16267 121.975 5.816C121.473 5.46933 120.897 5.296 120.247 5.296C119.601 5.296 119.025 5.46933 118.519 5.816C118.017 6.16267 117.623 6.69067 117.335 7.4C117.052 8.10933 116.911 9.00533 116.911 10.088C116.911 11.1707 117.052 12.072 117.335 12.792C117.623 13.5067 118.017 14.0427 118.519 14.4C119.025 14.752 119.601 14.928 120.247 14.928ZM137.573 11.896C137.573 12.3707 137.485 12.8587 137.309 13.36C137.133 13.856 136.867 14.3173 136.509 14.744C136.157 15.1653 135.712 15.5067 135.173 15.768C134.635 16.0293 134.003 16.16 133.277 16.16C132.28 16.16 131.432 15.9013 130.733 15.384C130.035 14.8613 129.501 14.144 129.133 13.232C128.771 12.32 128.589 11.2773 128.589 10.104C128.589 8.92533 128.771 7.88267 129.133 6.976C129.501 6.064 130.035 5.34933 130.733 4.832C131.432 4.31467 132.28 4.056 133.277 4.056C134.109 4.056 134.819 4.22667 135.405 4.568C135.992 4.90933 136.459 5.344 136.805 5.872C137.152 6.4 137.379 6.944 137.485 7.504C137.544 7.78667 137.573 8.05333 137.573 8.304H136.205C136.205 8.16 136.192 7.99467 136.165 7.808C136.101 7.36 135.947 6.94667 135.701 6.568C135.461 6.184 135.139 5.87733 134.733 5.648C134.328 5.41333 133.843 5.296 133.277 5.296C132.616 5.296 132.037 5.47733 131.541 5.84C131.051 6.20267 130.667 6.74133 130.389 7.456C130.117 8.17067 129.981 9.05333 129.981 10.104C129.981 11.1547 130.117 12.04 130.389 12.76C130.667 13.4747 131.051 14.016 131.541 14.384C132.037 14.7467 132.616 14.928 133.277 14.928C133.752 14.928 134.171 14.8427 134.533 14.672C134.896 14.496 135.2 14.264 135.445 13.976C135.696 13.6827 135.885 13.3573 136.013 13C136.141 12.6373 136.205 12.2693 136.205 11.896H137.573ZM142.255 5.4L142.871 4.624V9.952L142.535 9.48H147.063V10.68H142.535L142.871 10.208V15.576L142.255 14.8H147.951V16H141.503V4.2H147.951V5.4H142.255ZM155.774 16.16C154.958 16.16 154.259 16.032 153.678 15.776C153.102 15.5147 152.659 15.1227 152.35 14.6C152.041 14.0773 151.886 13.4267 151.886 12.648C151.886 12.5413 151.886 12.4507 151.886 12.376C151.886 12.3013 151.886 12.2107 151.886 12.104H153.254C153.254 12.2053 153.254 12.2907 153.254 12.36C153.254 12.4293 153.254 12.5173 153.254 12.624C153.254 13.44 153.467 14.0293 153.894 14.392C154.321 14.7493 154.942 14.928 155.758 14.928C156.601 14.928 157.238 14.784 157.67 14.496C158.102 14.208 158.318 13.7413 158.318 13.096C158.318 12.6427 158.193 12.2667 157.942 11.968C157.697 11.664 157.355 11.408 156.918 11.2C156.481 10.9867 155.971 10.792 155.39 10.616C154.734 10.4133 154.147 10.1573 153.63 9.848C153.118 9.53867 152.713 9.15733 152.414 8.704C152.121 8.24533 151.974 7.688 151.974 7.032C151.974 6.392 152.129 5.85067 152.438 5.408C152.753 4.96533 153.19 4.62933 153.75 4.4C154.31 4.17067 154.961 4.056 155.702 4.056C156.486 4.056 157.166 4.17867 157.742 4.424C158.323 4.664 158.771 5.032 159.086 5.528C159.406 6.01867 159.566 6.63733 159.566 7.384C159.566 7.50133 159.566 7.60267 159.566 7.688C159.566 7.768 159.566 7.86667 159.566 7.984H158.198C158.198 7.88267 158.198 7.792 158.198 7.712C158.198 7.632 158.198 7.54133 158.198 7.44C158.198 6.66133 157.987 6.10933 157.566 5.784C157.145 5.45333 156.531 5.288 155.726 5.288C154.953 5.288 154.355 5.424 153.934 5.696C153.513 5.968 153.302 6.41333 153.302 7.032C153.302 7.496 153.43 7.88 153.686 8.184C153.947 8.48267 154.302 8.73867 154.75 8.952C155.198 9.16 155.71 9.36 156.286 9.552C156.985 9.78133 157.585 10.0427 158.086 10.336C158.593 10.624 158.979 10.984 159.246 11.416C159.518 11.848 159.654 12.392 159.654 13.048C159.654 13.704 159.497 14.264 159.182 14.728C158.873 15.192 158.427 15.5467 157.846 15.792C157.27 16.0373 156.579 16.16 155.774 16.16ZM167.165 16.16C166.349 16.16 165.65 16.032 165.069 15.776C164.493 15.5147 164.05 15.1227 163.741 14.6C163.431 14.0773 163.277 13.4267 163.277 12.648C163.277 12.5413 163.277 12.4507 163.277 12.376C163.277 12.3013 163.277 12.2107 163.277 12.104H164.645C164.645 12.2053 164.645 12.2907 164.645 12.36C164.645 12.4293 164.645 12.5173 164.645 12.624C164.645 13.44 164.858 14.0293 165.285 14.392C165.711 14.7493 166.333 14.928 167.149 14.928C167.991 14.928 168.629 14.784 169.061 14.496C169.493 14.208 169.709 13.7413 169.709 13.096C169.709 12.6427 169.583 12.2667 169.333 11.968C169.087 11.664 168.746 11.408 168.309 11.2C167.871 10.9867 167.362 10.792 166.781 10.616C166.125 10.4133 165.538 10.1573 165.021 9.848C164.509 9.53867 164.103 9.15733 163.805 8.704C163.511 8.24533 163.365 7.688 163.365 7.032C163.365 6.392 163.519 5.85067 163.829 5.408C164.143 4.96533 164.581 4.62933 165.141 4.4C165.701 4.17067 166.351 4.056 167.093 4.056C167.877 4.056 168.557 4.17867 169.133 4.424C169.714 4.664 170.162 5.032 170.477 5.528C170.797 6.01867 170.957 6.63733 170.957 7.384C170.957 7.50133 170.957 7.60267 170.957 7.688C170.957 7.768 170.957 7.86667 170.957 7.984H169.589C169.589 7.88267 169.589 7.792 169.589 7.712C169.589 7.632 169.589 7.54133 169.589 7.44C169.589 6.66133 169.378 6.10933 168.957 5.784C168.535 5.45333 167.922 5.288 167.117 5.288C166.343 5.288 165.746 5.424 165.325 5.696C164.903 5.968 164.693 6.41333 164.693 7.032C164.693 7.496 164.821 7.88 165.077 8.184C165.338 8.48267 165.693 8.73867 166.141 8.952C166.589 9.16 167.101 9.36 167.677 9.552C168.375 9.78133 168.975 10.0427 169.477 10.336C169.983 10.624 170.37 10.984 170.637 11.416C170.909 11.848 171.045 12.392 171.045 13.048C171.045 13.704 170.887 14.264 170.573 14.728C170.263 15.192 169.818 15.5467 169.237 15.792C168.661 16.0373 167.97 16.16 167.165 16.16Z" fill="#4543E8"/>
<defs>
<clipPath id="clip0_1_381">
<rect width="72" height="10" fill="white" transform="translate(0 7)"/>
</clipPath>
</defs>
</svg>
