<svg width="1280" height="232" viewBox="0 0 1280 232" fill="none" xmlns="http://www.w3.org/2000/svg">
<g clip-path="url(#clip0_1_413)">
<path d="M513 12C519 6.66667 525 6.66667 531 12C537 17.3333 543 17.3333 549 12C555 6.66667 561 6.66667 567 12C573 17.3333 579 17.3333 585 12C591 6.66667 597 6.66667 603 12C609 17.3333 615 17.3333 621 12C627 6.66667 633 6.66667 639 12C645 17.3333 651 17.3333 657 12C663 6.66667 669 6.66667 675 12C681 17.3333 687 17.3333 693 12" stroke="#4543E8" stroke-width="2"/>
</g>
<g clip-path="url(#clip1_1_413)">
<path d="M677 12C683 6.66667 689 6.66667 695 12C701 17.3333 707 17.3333 713 12C719 6.66667 725 6.66667 731 12C737 17.3333 743 17.3333 749 12C755 6.66667 761 6.66667 767 12C773 17.3333 779 17.3333 785 12C791 6.66667 797 6.66667 803 12C809 17.3333 815 17.3333 821 12C827 6.66667 833 6.66667 839 12C845 17.3333 851 17.3333 857 12" stroke="#4543E8" stroke-width="2"/>
</g>
<path d="M618.696 16.16C617.88 16.16 617.181 16.032 616.6 15.776C616.024 15.5147 615.581 15.1227 615.272 14.6C614.963 14.0773 614.808 13.4267 614.808 12.648C614.808 12.5413 614.808 12.4507 614.808 12.376C614.808 12.3013 614.808 12.2107 614.808 12.104H616.176C616.176 12.2053 616.176 12.2907 616.176 12.36C616.176 12.4293 616.176 12.5173 616.176 12.624C616.176 13.44 616.389 14.0293 616.816 14.392C617.243 14.7493 617.864 14.928 618.68 14.928C619.523 14.928 620.16 14.784 620.592 14.496C621.024 14.208 621.24 13.7413 621.24 13.096C621.24 12.6427 621.115 12.2667 620.864 11.968C620.619 11.664 620.277 11.408 619.84 11.2C619.403 10.9867 618.893 10.792 618.312 10.616C617.656 10.4133 617.069 10.1573 616.552 9.848C616.04 9.53867 615.635 9.15733 615.336 8.704C615.043 8.24533 614.896 7.688 614.896 7.032C614.896 6.392 615.051 5.85067 615.36 5.408C615.675 4.96533 616.112 4.62933 616.672 4.4C617.232 4.17067 617.883 4.056 618.624 4.056C619.408 4.056 620.088 4.17867 620.664 4.424C621.245 4.664 621.693 5.032 622.008 5.528C622.328 6.01867 622.488 6.63733 622.488 7.384C622.488 7.50133 622.488 7.60267 622.488 7.688C622.488 7.768 622.488 7.86667 622.488 7.984H621.12C621.12 7.88267 621.12 7.792 621.12 7.712C621.12 7.632 621.12 7.54133 621.12 7.44C621.12 6.66133 620.909 6.10933 620.488 5.784C620.067 5.45333 619.453 5.288 618.648 5.288C617.875 5.288 617.277 5.424 616.856 5.696C616.435 5.968 616.224 6.41333 616.224 7.032C616.224 7.496 616.352 7.88 616.608 8.184C616.869 8.48267 617.224 8.73867 617.672 8.952C618.12 9.16 618.632 9.36 619.208 9.552C619.907 9.78133 620.507 10.0427 621.008 10.336C621.515 10.624 621.901 10.984 622.168 11.416C622.44 11.848 622.576 12.392 622.576 13.048C622.576 13.704 622.419 14.264 622.104 14.728C621.795 15.192 621.349 15.5467 620.768 15.792C620.192 16.0373 619.501 16.16 618.696 16.16ZM634.527 4.2V16H633.159V10.032L633.775 10.712H627.271L627.887 10.032V16H626.519V4.2H627.887V10.232L627.271 9.512H633.775L633.159 10.232V4.2H634.527ZM643.184 16.16C642.496 16.16 641.864 16.024 641.288 15.752C640.718 15.48 640.219 15.0853 639.792 14.568C639.371 14.0453 639.043 13.408 638.808 12.656C638.579 11.904 638.464 11.048 638.464 10.088C638.464 9.128 638.579 8.27467 638.808 7.528C639.043 6.776 639.371 6.144 639.792 5.632C640.219 5.11467 640.72 4.72267 641.296 4.456C641.872 4.18933 642.502 4.056 643.184 4.056C643.872 4.056 644.504 4.18933 645.08 4.456C645.656 4.72267 646.155 5.11467 646.576 5.632C647.003 6.144 647.331 6.776 647.56 7.528C647.795 8.27467 647.912 9.128 647.912 10.088C647.912 11.048 647.795 11.904 647.56 12.656C647.331 13.408 647.003 14.0453 646.576 14.568C646.155 15.0853 645.656 15.48 645.08 15.752C644.504 16.024 643.872 16.16 643.184 16.16ZM643.184 14.928C643.84 14.928 644.419 14.7493 644.92 14.392C645.422 14.0347 645.814 13.4987 646.096 12.784C646.379 12.064 646.52 11.1653 646.52 10.088C646.52 9.00533 646.376 8.10933 646.088 7.4C645.806 6.69067 645.414 6.16267 644.912 5.816C644.411 5.46933 643.835 5.296 643.184 5.296C642.539 5.296 641.963 5.46933 641.456 5.816C640.955 6.16267 640.56 6.69067 640.272 7.4C639.99 8.10933 639.848 9.00533 639.848 10.088C639.848 11.1707 639.99 12.072 640.272 12.792C640.56 13.5067 640.955 14.0427 641.456 14.4C641.963 14.752 642.539 14.928 643.184 14.928ZM653.215 16H651.847V4.2H655.159C656.071 4.2 656.828 4.37067 657.431 4.712C658.033 5.048 658.484 5.50133 658.783 6.072C659.081 6.64267 659.231 7.27733 659.231 7.976C659.231 8.67467 659.076 9.32 658.767 9.912C658.463 10.504 658.007 10.9813 657.399 11.344C656.796 11.7013 656.049 11.88 655.159 11.88H653.215V16ZM653.215 11.376L652.599 10.68H654.991C655.631 10.68 656.161 10.568 656.583 10.344C657.009 10.1147 657.327 9.79733 657.535 9.392C657.748 8.98667 657.855 8.51467 657.855 7.976C657.855 7.432 657.753 6.968 657.551 6.584C657.348 6.2 657.036 5.90667 656.615 5.704C656.193 5.50133 655.652 5.4 654.991 5.4H652.599L653.215 4.624V11.376Z" fill="#4543E8"/>
<path d="M531.646 87V51.6H535.678V87H531.646ZM561.162 87V74.784C561.162 74.048 561.162 73.448 561.162 72.984C561.162 72.504 561.162 72.048 561.162 71.616C561.162 70.288 560.938 69.128 560.49 68.136C560.042 67.144 559.338 66.376 558.378 65.832C557.418 65.288 556.162 65.016 554.61 65.016C553.25 65.016 551.986 65.368 550.818 66.072C549.666 66.76 548.738 67.696 548.034 68.88C547.346 70.048 547.002 71.36 547.002 72.816L544.674 71.928C544.674 69.928 545.162 68.112 546.138 66.48C547.13 64.848 548.442 63.552 550.074 62.592C551.722 61.616 553.514 61.128 555.45 61.128C557.418 61.128 559.138 61.504 560.61 62.256C562.082 63.008 563.218 64.088 564.018 65.496C564.834 66.888 565.242 68.568 565.242 70.536C565.242 71.24 565.242 72.008 565.242 72.84C565.242 73.672 565.242 74.448 565.242 75.168V87H561.162ZM542.922 87V61.512H547.002V87H542.922ZM593.264 87.48C591.328 87.48 589.632 87.176 588.176 86.568C586.736 85.96 585.616 85.088 584.816 83.952C584.016 82.8 583.616 81.424 583.616 79.824C583.616 78.16 584.048 76.776 584.912 75.672C585.776 74.552 586.992 73.68 588.56 73.056C590.128 72.432 591.952 72.016 594.032 71.808C597.168 71.488 599.4 71.176 600.728 70.872C602.056 70.552 602.72 70.04 602.72 69.336C602.72 69.32 602.72 69.312 602.72 69.312C602.72 69.296 602.72 69.28 602.72 69.264C602.72 67.792 602.12 66.696 600.92 65.976C599.72 65.24 597.984 64.872 595.712 64.872C593.344 64.872 591.504 65.288 590.192 66.12C588.88 66.936 588.224 68.264 588.224 70.104H584.192C584.192 68.2 584.68 66.584 585.656 65.256C586.632 63.912 587.984 62.888 589.712 62.184C591.456 61.48 593.464 61.128 595.736 61.128C597.816 61.128 599.688 61.448 601.352 62.088C603.032 62.712 604.36 63.648 605.336 64.896C606.328 66.128 606.824 67.656 606.824 69.48C606.824 69.816 606.824 70.152 606.824 70.488C606.824 70.808 606.824 71.136 606.824 71.472V82.2C606.824 82.76 606.848 83.304 606.896 83.832C606.944 84.36 607.024 84.824 607.135 85.224C607.28 85.704 607.44 86.096 607.616 86.4C607.792 86.688 607.936 86.888 608.048 87H603.944C603.864 86.92 603.744 86.736 603.584 86.448C603.424 86.144 603.272 85.792 603.128 85.392C603.016 85.072 602.928 84.672 602.864 84.192C602.8 83.696 602.768 83.184 602.768 82.656L603.44 83.112C602.944 83.976 602.216 84.736 601.256 85.392C600.312 86.048 599.168 86.56 597.824 86.928C596.48 87.296 594.96 87.48 593.264 87.48ZM593.911 83.808C595.56 83.808 597.048 83.56 598.376 83.064C599.704 82.552 600.76 81.8 601.544 80.808C602.328 79.816 602.72 78.584 602.72 77.112V72.048L603.632 73.584C602.608 73.984 601.328 74.312 599.792 74.568C598.272 74.808 596.68 75.008 595.016 75.168C592.6 75.392 590.776 75.816 589.544 76.44C588.328 77.064 587.72 78.112 587.72 79.584C587.72 80.976 588.224 82.032 589.232 82.752C590.24 83.456 591.8 83.808 593.911 83.808ZM625.61 87V61.512H629.69V69.336L628.346 68.856C628.442 67.912 628.682 66.984 629.066 66.072C629.45 65.144 629.978 64.312 630.65 63.576C631.338 62.824 632.194 62.232 633.218 61.8C634.242 61.352 635.442 61.128 636.818 61.128C637.842 61.128 638.674 61.216 639.314 61.392C639.97 61.552 640.378 61.68 640.538 61.776L639.482 65.784C639.322 65.672 638.994 65.528 638.498 65.352C638.018 65.176 637.33 65.088 636.434 65.088C635.106 65.088 634.002 65.328 633.122 65.808C632.258 66.288 631.57 66.928 631.058 67.728C630.562 68.512 630.21 69.368 630.002 70.296C629.794 71.224 629.69 72.144 629.69 73.056V87H625.61ZM654.33 87.456C652.506 87.456 650.986 87.144 649.77 86.52C648.554 85.88 647.586 85.056 646.866 84.048C646.162 83.04 645.658 81.952 645.354 80.784C645.066 79.6 644.922 78.464 644.922 77.376C644.922 76.768 644.922 76.144 644.922 75.504C644.922 74.848 644.922 74.192 644.922 73.536V61.512H649.026V73.008C649.026 73.6 649.026 74.184 649.026 74.76C649.026 75.336 649.026 75.88 649.026 76.392C649.026 77.688 649.202 78.888 649.554 79.992C649.922 81.096 650.554 81.992 651.45 82.68C652.346 83.352 653.578 83.688 655.146 83.688C656.618 83.688 657.906 83.248 659.01 82.368C660.114 81.472 660.978 80.36 661.602 79.032C662.226 77.688 662.538 76.352 662.538 75.024L664.914 76.008C664.914 77.416 664.666 78.8 664.17 80.16C663.674 81.504 662.962 82.728 662.034 83.832C661.122 84.936 660.01 85.816 658.698 86.472C657.402 87.128 655.946 87.456 654.33 87.456ZM662.538 87V61.512H666.618V87H662.538ZM683.447 87.48C681.911 87.48 680.487 87.32 679.175 87C677.879 86.664 676.743 86.184 675.767 85.56C674.807 84.92 674.055 84.136 673.511 83.208C672.983 82.28 672.719 81.216 672.719 80.016C672.719 79.888 672.719 79.76 672.719 79.632C672.719 79.488 672.719 79.368 672.719 79.272H676.823C676.823 79.368 676.823 79.448 676.823 79.512C676.823 79.576 676.823 79.672 676.823 79.8C676.823 81.096 677.423 82.088 678.623 82.776C679.823 83.448 681.463 83.784 683.543 83.784C684.823 83.784 685.967 83.656 686.975 83.4C687.983 83.144 688.775 82.752 689.351 82.224C689.943 81.696 690.239 81.032 690.239 80.232C690.239 78.904 689.615 77.96 688.367 77.4C687.135 76.824 685.287 76.328 682.823 75.912C681.527 75.688 680.295 75.4 679.127 75.048C677.959 74.68 676.919 74.208 676.007 73.632C675.111 73.056 674.399 72.344 673.871 71.496C673.359 70.632 673.103 69.6 673.103 68.4C673.103 66.848 673.559 65.536 674.471 64.464C675.399 63.376 676.647 62.552 678.215 61.992C679.783 61.416 681.527 61.128 683.447 61.128C685.303 61.128 687.015 61.424 688.583 62.016C690.151 62.608 691.407 63.472 692.351 64.608C693.311 65.728 693.791 67.112 693.791 68.76C693.791 68.824 693.791 68.904 693.791 69C693.791 69.08 693.791 69.16 693.791 69.24H689.711C689.711 69.16 689.711 69.096 689.711 69.048C689.711 69 689.711 68.944 689.711 68.88C689.711 67.952 689.415 67.192 688.823 66.6C688.231 65.992 687.463 65.544 686.519 65.256C685.575 64.952 684.567 64.8 683.495 64.8C682.487 64.8 681.495 64.912 680.519 65.136C679.543 65.344 678.735 65.696 678.095 66.192C677.455 66.688 677.135 67.368 677.135 68.232C677.135 69.096 677.431 69.792 678.023 70.32C678.631 70.832 679.479 71.256 680.567 71.592C681.671 71.912 682.967 72.208 684.455 72.48C685.783 72.72 687.039 73.024 688.223 73.392C689.407 73.744 690.447 74.2 691.343 74.76C692.255 75.32 692.967 76.032 693.479 76.896C694.007 77.744 694.271 78.784 694.271 80.016C694.271 81.264 693.983 82.352 693.407 83.28C692.847 84.208 692.063 84.984 691.055 85.608C690.063 86.232 688.911 86.696 687.599 87C686.303 87.32 684.919 87.48 683.447 87.48ZM718.874 87V77.52C718.874 77.072 718.874 76.544 718.874 75.936C718.874 75.312 718.874 74.688 718.874 74.064C718.874 73.424 718.874 72.88 718.874 72.432C718.874 69.984 718.346 68.136 717.29 66.888C716.25 65.64 714.594 65.016 712.322 65.016C710.802 65.016 709.466 65.312 708.314 65.904C707.178 66.496 706.29 67.304 705.65 68.328C705.01 69.352 704.69 70.512 704.69 71.808L702.098 71.016C702.098 69.192 702.57 67.536 703.514 66.048C704.474 64.544 705.778 63.352 707.426 62.472C709.09 61.576 710.97 61.128 713.066 61.128C716.122 61.128 718.53 62.048 720.29 63.888C722.066 65.728 722.954 68.272 722.954 71.52C722.954 72.368 722.954 73.344 722.954 74.448C722.954 75.552 722.954 76.712 722.954 77.928V87H718.874ZM700.61 87V49.488H704.69V87H700.61ZM736.935 78.744C736.935 77.304 737.159 76.024 737.607 74.904C738.055 73.784 738.623 72.76 739.311 71.832C739.999 70.904 740.711 70.016 741.447 69.168C742.119 68.4 742.751 67.624 743.343 66.84C743.935 66.04 744.415 65.184 744.783 64.272C745.151 63.36 745.335 62.336 745.335 61.2C745.335 59.024 744.799 57.4 743.727 56.328C742.671 55.24 741.095 54.696 738.999 54.696C736.855 54.696 735.223 55.304 734.103 56.52C732.983 57.736 732.423 59.56 732.423 61.992H728.751C728.751 59.608 729.191 57.632 730.071 56.064C730.951 54.48 732.159 53.296 733.695 52.512C735.231 51.728 736.991 51.336 738.975 51.336C740.959 51.336 742.695 51.72 744.183 52.488C745.687 53.256 746.863 54.392 747.711 55.896C748.559 57.384 748.983 59.224 748.983 61.416C748.983 62.888 748.751 64.192 748.287 65.328C747.823 66.448 747.231 67.456 746.511 68.352C745.791 69.248 745.047 70.104 744.279 70.92C743.223 72.056 742.279 73.224 741.447 74.424C740.615 75.608 740.199 77.048 740.199 78.744H736.935ZM738.807 87.624C738.023 87.624 737.359 87.36 736.815 86.832C736.271 86.288 735.999 85.624 735.999 84.84C735.999 84.072 736.271 83.416 736.815 82.872C737.359 82.328 738.023 82.056 738.807 82.056C739.575 82.056 740.231 82.328 740.775 82.872C741.319 83.416 741.591 84.072 741.591 84.84C741.591 85.624 741.319 86.288 740.775 86.832C740.231 87.36 739.575 87.624 738.807 87.624Z" fill="black"/>
<path d="M355.143 139.48C352.695 139.48 350.599 139.096 348.855 138.328C347.127 137.544 345.799 136.368 344.871 134.8C343.943 133.232 343.479 131.28 343.479 128.944C343.479 128.624 343.479 128.352 343.479 128.128C343.479 127.904 343.479 127.632 343.479 127.312H347.583C347.583 127.616 347.583 127.872 347.583 128.08C347.583 128.288 347.583 128.552 347.583 128.872C347.583 131.32 348.223 133.088 349.503 134.176C350.783 135.248 352.647 135.784 355.095 135.784C357.623 135.784 359.535 135.352 360.831 134.488C362.127 133.624 362.775 132.224 362.775 130.288C362.775 128.928 362.399 127.8 361.647 126.904C360.911 125.992 359.887 125.224 358.575 124.6C357.263 123.96 355.735 123.376 353.991 122.848C352.023 122.24 350.263 121.472 348.711 120.544C347.175 119.616 345.959 118.472 345.063 117.112C344.183 115.736 343.743 114.064 343.743 112.096C343.743 110.176 344.207 108.552 345.135 107.224C346.079 105.896 347.391 104.888 349.071 104.2C350.751 103.512 352.703 103.168 354.927 103.168C357.279 103.168 359.319 103.536 361.047 104.272C362.791 104.992 364.135 106.096 365.079 107.584C366.039 109.056 366.519 110.912 366.519 113.152C366.519 113.504 366.519 113.808 366.519 114.064C366.519 114.304 366.519 114.6 366.519 114.952H362.415C362.415 114.648 362.415 114.376 362.415 114.136C362.415 113.896 362.415 113.624 362.415 113.32C362.415 110.984 361.783 109.328 360.519 108.352C359.255 107.36 357.415 106.864 354.999 106.864C352.679 106.864 350.887 107.272 349.623 108.088C348.359 108.904 347.727 110.24 347.727 112.096C347.727 113.488 348.111 114.64 348.879 115.552C349.663 116.448 350.727 117.216 352.071 117.856C353.415 118.48 354.951 119.08 356.679 119.656C358.775 120.344 360.575 121.128 362.079 122.008C363.599 122.872 364.759 123.952 365.559 125.248C366.375 126.544 366.783 128.176 366.783 130.144C366.783 132.112 366.311 133.792 365.367 135.184C364.439 136.576 363.103 137.64 361.359 138.376C359.631 139.112 357.559 139.48 355.143 139.48ZM391.163 139V129.52C391.163 129.072 391.163 128.544 391.163 127.936C391.163 127.312 391.163 126.688 391.163 126.064C391.163 125.424 391.163 124.88 391.163 124.432C391.163 121.984 390.635 120.136 389.579 118.888C388.539 117.64 386.883 117.016 384.611 117.016C383.091 117.016 381.755 117.312 380.603 117.904C379.467 118.496 378.579 119.304 377.939 120.328C377.299 121.352 376.979 122.512 376.979 123.808L374.387 123.016C374.387 121.192 374.859 119.536 375.803 118.048C376.763 116.544 378.067 115.352 379.715 114.472C381.379 113.576 383.259 113.128 385.355 113.128C388.411 113.128 390.819 114.048 392.579 115.888C394.355 117.728 395.243 120.272 395.243 123.52C395.243 124.368 395.243 125.344 395.243 126.448C395.243 127.552 395.243 128.712 395.243 129.928V139H391.163ZM372.899 139V101.488H376.979V139H372.899ZM414.408 139.456C411.848 139.456 409.584 138.888 407.616 137.752C405.664 136.6 404.128 135.032 403.008 133.048C401.904 131.048 401.352 128.776 401.352 126.232C401.352 123.688 401.904 121.432 403.008 119.464C404.128 117.496 405.664 115.952 407.616 114.832C409.584 113.712 411.848 113.152 414.408 113.152C416.968 113.152 419.224 113.712 421.176 114.832C423.144 115.952 424.68 117.496 425.784 119.464C426.904 121.432 427.464 123.688 427.464 126.232C427.464 128.776 426.904 131.048 425.784 133.048C424.68 135.032 423.144 136.6 421.176 137.752C419.224 138.888 416.968 139.456 414.408 139.456ZM414.408 135.712C416.168 135.712 417.72 135.32 419.064 134.536C420.408 133.752 421.456 132.648 422.208 131.224C422.976 129.8 423.36 128.136 423.36 126.232C423.36 124.328 422.976 122.68 422.208 121.288C421.456 119.88 420.408 118.8 419.064 118.048C417.72 117.28 416.168 116.896 414.408 116.896C412.664 116.896 411.112 117.28 409.752 118.048C408.408 118.8 407.352 119.88 406.584 121.288C405.832 122.68 405.456 124.328 405.456 126.232C405.456 128.136 405.832 129.8 406.584 131.224C407.352 132.648 408.408 133.752 409.752 134.536C411.112 135.32 412.664 135.712 414.408 135.712ZM433.836 149.488V113.512H437.916V149.488H433.836ZM446.292 139.48C444.324 139.48 442.484 139 440.772 138.04C439.06 137.064 437.668 135.728 436.596 134.032C435.54 132.336 435.012 130.4 435.012 128.224C435.012 128.176 435.012 128.136 435.012 128.104C435.012 128.072 435.012 128.032 435.012 127.984L437.94 127.912C437.94 127.944 437.94 127.984 437.94 128.032C437.94 128.064 437.94 128.096 437.94 128.128C437.94 129.504 438.3 130.76 439.02 131.896C439.756 133.032 440.716 133.936 441.9 134.608C443.084 135.28 444.356 135.616 445.716 135.616C447.972 135.616 449.844 134.848 451.332 133.312C452.836 131.76 453.588 129.4 453.588 126.232C453.588 123.048 452.844 120.696 451.356 119.176C449.868 117.64 447.988 116.872 445.716 116.872C444.356 116.872 443.084 117.208 441.9 117.88C440.716 118.536 439.756 119.424 439.02 120.544C438.3 121.664 437.94 122.92 437.94 124.312L435.012 124.216C435.012 122.024 435.54 120.096 436.596 118.432C437.668 116.768 439.06 115.472 440.772 114.544C442.484 113.6 444.324 113.128 446.292 113.128C448.356 113.128 450.26 113.64 452.004 114.664C453.748 115.672 455.148 117.152 456.204 119.104C457.26 121.056 457.788 123.432 457.788 126.232C457.788 129.08 457.268 131.496 456.228 133.48C455.188 135.448 453.796 136.944 452.052 137.968C450.308 138.976 448.388 139.48 446.292 139.48ZM476.164 139V113.512H480.244V121.336L478.9 120.856C478.996 119.912 479.236 118.984 479.62 118.072C480.004 117.144 480.532 116.312 481.204 115.576C481.892 114.824 482.748 114.232 483.772 113.8C484.796 113.352 485.996 113.128 487.372 113.128C488.396 113.128 489.228 113.216 489.868 113.392C490.524 113.552 490.932 113.68 491.092 113.776L490.036 117.784C489.876 117.672 489.548 117.528 489.052 117.352C488.572 117.176 487.884 117.088 486.988 117.088C485.66 117.088 484.556 117.328 483.676 117.808C482.812 118.288 482.124 118.928 481.612 119.728C481.116 120.512 480.764 121.368 480.556 122.296C480.348 123.224 480.244 124.144 480.244 125.056V139H476.164ZM496.328 127.888V124.24H516.032L515.312 125.44C515.312 125.344 515.312 125.256 515.312 125.176C515.312 125.08 515.312 124.992 515.312 124.912C515.312 123.44 515 122.096 514.376 120.88C513.768 119.648 512.856 118.664 511.64 117.928C510.424 117.192 508.92 116.824 507.128 116.824C505.32 116.824 503.728 117.208 502.352 117.976C500.976 118.744 499.904 119.832 499.136 121.24C498.368 122.632 497.984 124.296 497.984 126.232C497.984 128.2 498.352 129.896 499.088 131.32C499.84 132.744 500.904 133.84 502.28 134.608C503.656 135.376 505.288 135.76 507.176 135.76C508.52 135.76 509.688 135.624 510.68 135.352C511.672 135.064 512.488 134.688 513.128 134.224C513.784 133.744 514.28 133.224 514.616 132.664C514.952 132.104 515.152 131.544 515.216 130.984H519.296C519.216 132.008 518.896 133.024 518.336 134.032C517.776 135.04 516.984 135.96 515.96 136.792C514.936 137.608 513.68 138.264 512.192 138.76C510.704 139.256 508.992 139.504 507.056 139.504C504.496 139.504 502.24 138.944 500.288 137.824C498.336 136.704 496.8 135.152 495.68 133.168C494.576 131.184 494.024 128.904 494.024 126.328C494.024 123.72 494.584 121.432 495.704 119.464C496.824 117.48 498.368 115.928 500.336 114.808C502.304 113.688 504.552 113.128 507.08 113.128C509.656 113.128 511.888 113.688 513.776 114.808C515.664 115.928 517.12 117.464 518.144 119.416C519.168 121.352 519.68 123.56 519.68 126.04C519.68 126.296 519.672 126.632 519.656 127.048C519.64 127.464 519.616 127.744 519.584 127.888H496.328ZM534.943 139.48C533.007 139.48 531.311 139.176 529.855 138.568C528.415 137.96 527.295 137.088 526.495 135.952C525.695 134.8 525.295 133.424 525.295 131.824C525.295 130.16 525.727 128.776 526.591 127.672C527.455 126.552 528.671 125.68 530.239 125.056C531.807 124.432 533.631 124.016 535.711 123.808C538.847 123.488 541.079 123.176 542.407 122.872C543.735 122.552 544.399 122.04 544.399 121.336C544.399 121.32 544.399 121.312 544.399 121.312C544.399 121.296 544.399 121.28 544.399 121.264C544.399 119.792 543.799 118.696 542.599 117.976C541.399 117.24 539.663 116.872 537.391 116.872C535.023 116.872 533.183 117.288 531.871 118.12C530.559 118.936 529.903 120.264 529.903 122.104H525.871C525.871 120.2 526.359 118.584 527.335 117.256C528.311 115.912 529.663 114.888 531.391 114.184C533.135 113.48 535.143 113.128 537.415 113.128C539.495 113.128 541.367 113.448 543.031 114.088C544.711 114.712 546.039 115.648 547.015 116.896C548.007 118.128 548.503 119.656 548.503 121.48C548.503 121.816 548.503 122.152 548.503 122.488C548.503 122.808 548.503 123.136 548.503 123.472V134.2C548.503 134.76 548.527 135.304 548.575 135.832C548.623 136.36 548.703 136.824 548.815 137.224C548.959 137.704 549.119 138.096 549.295 138.4C549.471 138.688 549.615 138.888 549.727 139H545.623C545.543 138.92 545.423 138.736 545.263 138.448C545.103 138.144 544.951 137.792 544.807 137.392C544.695 137.072 544.607 136.672 544.543 136.192C544.479 135.696 544.447 135.184 544.447 134.656L545.119 135.112C544.623 135.976 543.895 136.736 542.935 137.392C541.991 138.048 540.847 138.56 539.503 138.928C538.159 139.296 536.639 139.48 534.943 139.48ZM535.591 135.808C537.239 135.808 538.727 135.56 540.055 135.064C541.383 134.552 542.439 133.8 543.223 132.808C544.007 131.816 544.399 130.584 544.399 129.112V124.048L545.311 125.584C544.287 125.984 543.007 126.312 541.471 126.568C539.951 126.808 538.359 127.008 536.695 127.168C534.279 127.392 532.455 127.816 531.223 128.44C530.007 129.064 529.399 130.112 529.399 131.584C529.399 132.976 529.903 134.032 530.911 134.752C531.919 135.456 533.479 135.808 535.591 135.808ZM565.801 139.48C563.705 139.48 561.785 138.976 560.041 137.968C558.297 136.944 556.905 135.448 555.865 133.48C554.825 131.496 554.305 129.08 554.305 126.232C554.305 123.432 554.833 121.056 555.889 119.104C556.945 117.152 558.345 115.672 560.089 114.664C561.833 113.64 563.737 113.128 565.801 113.128C567.769 113.128 569.609 113.6 571.321 114.544C573.049 115.472 574.441 116.768 575.497 118.432C576.553 120.096 577.081 122.024 577.081 124.216C577.081 124.264 577.081 124.312 577.081 124.36C577.081 124.408 577.081 124.456 577.081 124.504L574.153 124.624C574.153 124.576 574.153 124.528 574.153 124.48C574.153 124.416 574.153 124.36 574.153 124.312C574.153 122.92 573.785 121.664 573.049 120.544C572.329 119.424 571.377 118.536 570.193 117.88C569.009 117.208 567.737 116.872 566.377 116.872C564.105 116.872 562.225 117.64 560.737 119.176C559.249 120.696 558.505 123.048 558.505 126.232C558.505 129.4 559.249 131.76 560.737 133.312C562.241 134.848 564.121 135.616 566.377 135.616C567.801 135.616 569.097 135.272 570.265 134.584C571.449 133.896 572.393 132.976 573.097 131.824C573.801 130.656 574.153 129.352 574.153 127.912L577.081 127.984C577.081 130.16 576.577 132.12 575.569 133.864C574.561 135.592 573.201 136.96 571.489 137.968C569.793 138.976 567.897 139.48 565.801 139.48ZM574.153 139V101.488H578.257V139H574.153ZM586.198 149.752C585.558 149.752 584.974 149.712 584.446 149.632C583.918 149.568 583.59 149.504 583.462 149.44V145.888C583.67 145.984 584.014 146.064 584.494 146.128C584.974 146.192 585.454 146.224 585.934 146.224C586.958 146.224 587.822 146.008 588.526 145.576C589.23 145.16 589.822 144.584 590.302 143.848C590.782 143.128 591.174 142.312 591.478 141.4L592.246 139.144L583.462 113.512H587.734L594.79 135.472H594.214L601.126 113.512H605.326L595.99 141.184C595.462 142.736 594.822 144.16 594.07 145.456C593.334 146.752 592.342 147.792 591.094 148.576C589.862 149.36 588.23 149.752 586.198 149.752ZM632.926 139.48C630.83 139.48 628.91 138.976 627.166 137.968C625.422 136.944 624.03 135.448 622.99 133.48C621.95 131.496 621.43 129.08 621.43 126.232C621.43 123.432 621.958 121.056 623.014 119.104C624.07 117.152 625.47 115.672 627.214 114.664C628.958 113.64 630.862 113.128 632.926 113.128C634.894 113.128 636.734 113.6 638.446 114.544C640.174 115.472 641.566 116.768 642.622 118.432C643.678 120.096 644.206 122.024 644.206 124.216C644.206 124.264 644.206 124.312 644.206 124.36C644.206 124.408 644.206 124.456 644.206 124.504L641.278 124.624C641.278 124.576 641.278 124.528 641.278 124.48C641.278 124.416 641.278 124.36 641.278 124.312C641.278 122.92 640.91 121.664 640.174 120.544C639.454 119.424 638.502 118.536 637.318 117.88C636.134 117.208 634.862 116.872 633.502 116.872C631.23 116.872 629.35 117.64 627.862 119.176C626.374 120.696 625.63 123.048 625.63 126.232C625.63 129.4 626.374 131.76 627.862 133.312C629.366 134.848 631.246 135.616 633.502 135.616C634.926 135.616 636.222 135.272 637.39 134.584C638.574 133.896 639.518 132.976 640.222 131.824C640.926 130.656 641.278 129.352 641.278 127.912L644.206 127.984C644.206 130.16 643.702 132.12 642.694 133.864C641.686 135.592 640.326 136.96 638.614 137.968C636.918 138.976 635.022 139.48 632.926 139.48ZM641.278 139V101.488H645.382V139H641.278ZM653.875 127.888V124.24H673.579L672.859 125.44C672.859 125.344 672.859 125.256 672.859 125.176C672.859 125.08 672.859 124.992 672.859 124.912C672.859 123.44 672.547 122.096 671.923 120.88C671.315 119.648 670.403 118.664 669.187 117.928C667.971 117.192 666.467 116.824 664.675 116.824C662.867 116.824 661.275 117.208 659.899 117.976C658.523 118.744 657.451 119.832 656.683 121.24C655.915 122.632 655.531 124.296 655.531 126.232C655.531 128.2 655.899 129.896 656.635 131.32C657.387 132.744 658.451 133.84 659.827 134.608C661.203 135.376 662.835 135.76 664.723 135.76C666.067 135.76 667.235 135.624 668.227 135.352C669.219 135.064 670.035 134.688 670.675 134.224C671.331 133.744 671.827 133.224 672.163 132.664C672.499 132.104 672.699 131.544 672.763 130.984H676.843C676.763 132.008 676.443 133.024 675.883 134.032C675.323 135.04 674.531 135.96 673.507 136.792C672.483 137.608 671.227 138.264 669.739 138.76C668.251 139.256 666.539 139.504 664.603 139.504C662.043 139.504 659.787 138.944 657.835 137.824C655.883 136.704 654.347 135.152 653.227 133.168C652.123 131.184 651.571 128.904 651.571 126.328C651.571 123.72 652.131 121.432 653.251 119.464C654.371 117.48 655.915 115.928 657.883 114.808C659.851 113.688 662.099 113.128 664.627 113.128C667.203 113.128 669.435 113.688 671.323 114.808C673.211 115.928 674.667 117.464 675.691 119.416C676.715 121.352 677.227 123.56 677.227 126.04C677.227 126.296 677.219 126.632 677.203 127.048C677.187 127.464 677.163 127.744 677.131 127.888H653.875ZM693.33 139.48C691.794 139.48 690.37 139.32 689.058 139C687.762 138.664 686.626 138.184 685.65 137.56C684.69 136.92 683.938 136.136 683.394 135.208C682.866 134.28 682.602 133.216 682.602 132.016C682.602 131.888 682.602 131.76 682.602 131.632C682.602 131.488 682.602 131.368 682.602 131.272H686.706C686.706 131.368 686.706 131.448 686.706 131.512C686.706 131.576 686.706 131.672 686.706 131.8C686.706 133.096 687.306 134.088 688.506 134.776C689.706 135.448 691.346 135.784 693.426 135.784C694.706 135.784 695.85 135.656 696.858 135.4C697.866 135.144 698.658 134.752 699.234 134.224C699.826 133.696 700.122 133.032 700.122 132.232C700.122 130.904 699.498 129.96 698.25 129.4C697.018 128.824 695.17 128.328 692.706 127.912C691.41 127.688 690.178 127.4 689.01 127.048C687.842 126.68 686.802 126.208 685.89 125.632C684.994 125.056 684.282 124.344 683.754 123.496C683.242 122.632 682.986 121.6 682.986 120.4C682.986 118.848 683.442 117.536 684.354 116.464C685.282 115.376 686.53 114.552 688.098 113.992C689.666 113.416 691.41 113.128 693.33 113.128C695.186 113.128 696.898 113.424 698.466 114.016C700.034 114.608 701.29 115.472 702.234 116.608C703.194 117.728 703.674 119.112 703.674 120.76C703.674 120.824 703.674 120.904 703.674 121C703.674 121.08 703.674 121.16 703.674 121.24H699.594C699.594 121.16 699.594 121.096 699.594 121.048C699.594 121 699.594 120.944 699.594 120.88C699.594 119.952 699.298 119.192 698.706 118.6C698.114 117.992 697.346 117.544 696.402 117.256C695.458 116.952 694.45 116.8 693.378 116.8C692.37 116.8 691.378 116.912 690.402 117.136C689.426 117.344 688.618 117.696 687.978 118.192C687.338 118.688 687.018 119.368 687.018 120.232C687.018 121.096 687.314 121.792 687.906 122.32C688.514 122.832 689.362 123.256 690.45 123.592C691.554 123.912 692.85 124.208 694.338 124.48C695.666 124.72 696.922 125.024 698.106 125.392C699.29 125.744 700.33 126.2 701.226 126.76C702.138 127.32 702.85 128.032 703.362 128.896C703.89 129.744 704.154 130.784 704.154 132.016C704.154 133.264 703.866 134.352 703.29 135.28C702.73 136.208 701.946 136.984 700.938 137.608C699.946 138.232 698.794 138.696 697.482 139C696.186 139.32 694.802 139.48 693.33 139.48ZM710.732 139V113.512H714.764V139H710.732ZM712.772 107.656C712.02 107.656 711.364 107.448 710.804 107.032C710.26 106.6 709.988 106.016 709.988 105.28C709.988 104.56 710.26 103.992 710.804 103.576C711.364 103.144 712.02 102.928 712.772 102.928C713.524 102.928 714.172 103.144 714.716 103.576C715.26 103.992 715.532 104.56 715.532 105.28C715.532 106.016 715.26 106.6 714.716 107.032C714.172 107.448 713.524 107.656 712.772 107.656ZM738.624 137.44C740 137.552 741.208 137.808 742.248 138.208C743.304 138.592 744.128 139.16 744.72 139.912C745.312 140.68 745.608 141.68 745.608 142.912C745.608 144.272 745.144 145.472 744.216 146.512C743.288 147.568 741.88 148.392 739.992 148.984C738.104 149.576 735.728 149.872 732.864 149.872C728.816 149.872 725.76 149.28 723.696 148.096C721.632 146.928 720.6 145.328 720.6 143.296C720.6 142.656 720.672 142.088 720.816 141.592C720.976 141.112 721.152 140.72 721.344 140.416L725.232 140.992C725.104 141.168 724.976 141.432 724.848 141.784C724.736 142.152 724.68 142.576 724.68 143.056C724.68 144.336 725.408 145.232 726.864 145.744C728.32 146.272 730.384 146.536 733.056 146.536C735.056 146.536 736.696 146.4 737.976 146.128C739.256 145.856 740.208 145.464 740.832 144.952C741.456 144.44 741.768 143.84 741.768 143.152C741.768 142.112 741.328 141.464 740.448 141.208C739.584 140.968 738.512 140.8 737.232 140.704L727.536 139.984C725.92 139.856 724.6 139.36 723.576 138.496C722.568 137.616 722.064 136.552 722.064 135.304C722.064 134.536 722.248 133.808 722.616 133.12C723 132.432 723.44 131.856 723.936 131.392C724.448 130.912 724.904 130.624 725.304 130.528L728.52 131.992C728.12 132.056 727.624 132.336 727.032 132.832C726.456 133.312 726.168 133.88 726.168 134.536C726.168 135.128 726.4 135.616 726.864 136C727.328 136.368 728.248 136.608 729.624 136.72L738.624 137.44ZM742.152 113.512H745.992L744.408 123.544C744.12 125.416 743.52 127.112 742.608 128.632C741.696 130.136 740.448 131.336 738.864 132.232C737.296 133.112 735.352 133.552 733.032 133.552C730.616 133.552 728.552 133.112 726.84 132.232C725.128 131.352 723.816 130.152 722.904 128.632C721.992 127.096 721.536 125.368 721.536 123.448C721.536 121.496 722.008 119.744 722.952 118.192C723.912 116.624 725.24 115.392 726.936 114.496C728.632 113.584 730.576 113.128 732.768 113.128C734.736 113.128 736.456 113.472 737.928 114.16C739.4 114.832 740.56 115.68 741.408 116.704C742.272 117.728 742.752 118.76 742.848 119.8L741.312 119.896L742.152 113.512ZM733.008 129.904C734.56 129.904 735.888 129.648 736.992 129.136C738.112 128.624 738.968 127.88 739.56 126.904C740.168 125.928 740.472 124.744 740.472 123.352C740.472 122.008 740.168 120.848 739.56 119.872C738.968 118.88 738.112 118.12 736.992 117.592C735.888 117.048 734.568 116.776 733.032 116.776C731.56 116.776 730.256 117.056 729.12 117.616C728 118.16 727.12 118.928 726.48 119.92C725.856 120.912 725.544 122.08 725.544 123.424C725.544 124.784 725.84 125.952 726.432 126.928C727.04 127.888 727.896 128.624 729 129.136C730.12 129.648 731.456 129.904 733.008 129.904ZM769.842 139V126.784C769.842 126.048 769.842 125.448 769.842 124.984C769.842 124.504 769.842 124.048 769.842 123.616C769.842 122.288 769.618 121.128 769.17 120.136C768.722 119.144 768.018 118.376 767.058 117.832C766.098 117.288 764.842 117.016 763.29 117.016C761.93 117.016 760.666 117.368 759.498 118.072C758.346 118.76 757.418 119.696 756.714 120.88C756.026 122.048 755.682 123.36 755.682 124.816L753.354 123.928C753.354 121.928 753.842 120.112 754.818 118.48C755.81 116.848 757.122 115.552 758.754 114.592C760.402 113.616 762.194 113.128 764.13 113.128C766.098 113.128 767.818 113.504 769.29 114.256C770.762 115.008 771.898 116.088 772.698 117.496C773.514 118.888 773.922 120.568 773.922 122.536C773.922 123.24 773.922 124.008 773.922 124.84C773.922 125.672 773.922 126.448 773.922 127.168V139H769.842ZM751.602 139V113.512H755.682V139H751.602ZM790.783 139.48C789.247 139.48 787.823 139.32 786.511 139C785.215 138.664 784.079 138.184 783.103 137.56C782.143 136.92 781.391 136.136 780.847 135.208C780.319 134.28 780.055 133.216 780.055 132.016C780.055 131.888 780.055 131.76 780.055 131.632C780.055 131.488 780.055 131.368 780.055 131.272H784.159C784.159 131.368 784.159 131.448 784.159 131.512C784.159 131.576 784.159 131.672 784.159 131.8C784.159 133.096 784.759 134.088 785.959 134.776C787.159 135.448 788.799 135.784 790.879 135.784C792.159 135.784 793.303 135.656 794.311 135.4C795.319 135.144 796.111 134.752 796.687 134.224C797.279 133.696 797.575 133.032 797.575 132.232C797.575 130.904 796.951 129.96 795.703 129.4C794.471 128.824 792.623 128.328 790.159 127.912C788.863 127.688 787.631 127.4 786.463 127.048C785.295 126.68 784.255 126.208 783.343 125.632C782.447 125.056 781.735 124.344 781.207 123.496C780.695 122.632 780.439 121.6 780.439 120.4C780.439 118.848 780.895 117.536 781.807 116.464C782.735 115.376 783.983 114.552 785.551 113.992C787.119 113.416 788.863 113.128 790.783 113.128C792.639 113.128 794.351 113.424 795.919 114.016C797.487 114.608 798.743 115.472 799.687 116.608C800.647 117.728 801.127 119.112 801.127 120.76C801.127 120.824 801.127 120.904 801.127 121C801.127 121.08 801.127 121.16 801.127 121.24H797.047C797.047 121.16 797.047 121.096 797.047 121.048C797.047 121 797.047 120.944 797.047 120.88C797.047 119.952 796.751 119.192 796.159 118.6C795.567 117.992 794.799 117.544 793.855 117.256C792.911 116.952 791.903 116.8 790.831 116.8C789.823 116.8 788.831 116.912 787.855 117.136C786.879 117.344 786.071 117.696 785.431 118.192C784.791 118.688 784.471 119.368 784.471 120.232C784.471 121.096 784.767 121.792 785.359 122.32C785.967 122.832 786.815 123.256 787.903 123.592C789.007 123.912 790.303 124.208 791.791 124.48C793.119 124.72 794.375 125.024 795.559 125.392C796.743 125.744 797.783 126.2 798.679 126.76C799.591 127.32 800.303 128.032 800.815 128.896C801.343 129.744 801.607 130.784 801.607 132.016C801.607 133.264 801.319 134.352 800.743 135.28C800.183 136.208 799.399 136.984 798.391 137.608C797.399 138.232 796.247 138.696 794.935 139C793.639 139.32 792.255 139.48 790.783 139.48ZM838.209 139V129.52C838.209 129.072 838.209 128.544 838.209 127.936C838.209 127.312 838.209 126.688 838.209 126.064C838.209 125.424 838.209 124.88 838.209 124.432C838.209 121.984 837.681 120.136 836.625 118.888C835.585 117.64 833.929 117.016 831.657 117.016C830.137 117.016 828.801 117.312 827.649 117.904C826.513 118.496 825.625 119.304 824.985 120.328C824.345 121.352 824.025 122.512 824.025 123.808L821.433 123.016C821.433 121.192 821.905 119.536 822.849 118.048C823.809 116.544 825.113 115.352 826.761 114.472C828.425 113.576 830.305 113.128 832.401 113.128C835.457 113.128 837.865 114.048 839.625 115.888C841.401 117.728 842.289 120.272 842.289 123.52C842.289 124.368 842.289 125.344 842.289 126.448C842.289 127.552 842.289 128.712 842.289 129.928V139H838.209ZM819.945 139V101.488H824.025V139H819.945ZM850.703 127.888V124.24H870.407L869.687 125.44C869.687 125.344 869.687 125.256 869.687 125.176C869.687 125.08 869.687 124.992 869.687 124.912C869.687 123.44 869.375 122.096 868.751 120.88C868.143 119.648 867.231 118.664 866.015 117.928C864.799 117.192 863.295 116.824 861.503 116.824C859.695 116.824 858.103 117.208 856.727 117.976C855.351 118.744 854.279 119.832 853.511 121.24C852.743 122.632 852.359 124.296 852.359 126.232C852.359 128.2 852.727 129.896 853.463 131.32C854.215 132.744 855.279 133.84 856.655 134.608C858.031 135.376 859.663 135.76 861.551 135.76C862.895 135.76 864.063 135.624 865.055 135.352C866.047 135.064 866.863 134.688 867.503 134.224C868.159 133.744 868.655 133.224 868.991 132.664C869.327 132.104 869.527 131.544 869.591 130.984H873.671C873.591 132.008 873.271 133.024 872.711 134.032C872.151 135.04 871.359 135.96 870.335 136.792C869.311 137.608 868.055 138.264 866.567 138.76C865.079 139.256 863.367 139.504 861.431 139.504C858.871 139.504 856.615 138.944 854.663 137.824C852.711 136.704 851.175 135.152 850.055 133.168C848.951 131.184 848.399 128.904 848.399 126.328C848.399 123.72 848.959 121.432 850.079 119.464C851.199 117.48 852.743 115.928 854.711 114.808C856.679 113.688 858.927 113.128 861.455 113.128C864.031 113.128 866.263 113.688 868.151 114.808C870.039 115.928 871.495 117.464 872.519 119.416C873.543 121.352 874.055 123.56 874.055 126.04C874.055 126.296 874.047 126.632 874.031 127.048C874.015 127.464 873.991 127.744 873.959 127.888H850.703ZM880.414 139V113.512H884.494V121.336L883.15 120.856C883.246 119.912 883.486 118.984 883.87 118.072C884.254 117.144 884.782 116.312 885.454 115.576C886.142 114.824 886.998 114.232 888.022 113.8C889.046 113.352 890.246 113.128 891.622 113.128C892.646 113.128 893.478 113.216 894.118 113.392C894.774 113.552 895.182 113.68 895.342 113.776L894.286 117.784C894.126 117.672 893.798 117.528 893.302 117.352C892.822 117.176 892.134 117.088 891.238 117.088C889.91 117.088 888.806 117.328 887.926 117.808C887.062 118.288 886.374 118.928 885.862 119.728C885.366 120.512 885.014 121.368 884.806 122.296C884.598 123.224 884.494 124.144 884.494 125.056V139H880.414ZM900.578 127.888V124.24H920.282L919.562 125.44C919.562 125.344 919.562 125.256 919.562 125.176C919.562 125.08 919.562 124.992 919.562 124.912C919.562 123.44 919.25 122.096 918.626 120.88C918.018 119.648 917.106 118.664 915.89 117.928C914.674 117.192 913.17 116.824 911.378 116.824C909.57 116.824 907.978 117.208 906.602 117.976C905.226 118.744 904.154 119.832 903.386 121.24C902.618 122.632 902.234 124.296 902.234 126.232C902.234 128.2 902.602 129.896 903.338 131.32C904.09 132.744 905.154 133.84 906.53 134.608C907.906 135.376 909.538 135.76 911.426 135.76C912.77 135.76 913.938 135.624 914.93 135.352C915.922 135.064 916.738 134.688 917.378 134.224C918.034 133.744 918.53 133.224 918.866 132.664C919.202 132.104 919.402 131.544 919.466 130.984H923.546C923.466 132.008 923.146 133.024 922.586 134.032C922.026 135.04 921.234 135.96 920.21 136.792C919.186 137.608 917.93 138.264 916.442 138.76C914.954 139.256 913.242 139.504 911.306 139.504C908.746 139.504 906.49 138.944 904.538 137.824C902.586 136.704 901.05 135.152 899.93 133.168C898.826 131.184 898.274 128.904 898.274 126.328C898.274 123.72 898.834 121.432 899.954 119.464C901.074 117.48 902.618 115.928 904.586 114.808C906.554 113.688 908.802 113.128 911.33 113.128C913.906 113.128 916.138 113.688 918.026 114.808C919.914 115.928 921.37 117.464 922.394 119.416C923.418 121.352 923.93 123.56 923.93 126.04C923.93 126.296 923.922 126.632 923.906 127.048C923.89 127.464 923.866 127.744 923.834 127.888H900.578ZM932.785 139.624C932.001 139.624 931.337 139.36 930.793 138.832C930.265 138.288 930.001 137.624 930.001 136.84C930.001 136.072 930.265 135.416 930.793 134.872C931.337 134.328 932.001 134.056 932.785 134.056C933.553 134.056 934.209 134.328 934.753 134.872C935.297 135.416 935.569 136.072 935.569 136.84C935.569 137.624 935.297 138.288 934.753 138.832C934.209 139.36 933.553 139.624 932.785 139.624Z" fill="black"/>
<defs>
<clipPath id="clip0_1_413">
<rect width="72" height="10" fill="white" transform="translate(522 7)"/>
</clipPath>
<clipPath id="clip1_1_413">
<rect width="72" height="10" fill="white" transform="translate(686 7)"/>
</clipPath>
</defs>
</svg>
