<svg width="160" height="160" viewBox="0 0 160 160" fill="none" xmlns="http://www.w3.org/2000/svg">
<rect width="160" height="160" fill="#4543E8"/>
<path d="M51.7851 72.064L48.5771 60.2H50.0731L52.8251 70.992H52.7291L55.4491 60.2H56.9531L53.7771 72.064H51.7851ZM58.6059 72V60.2H59.9499V72H58.6059ZM63.0206 61.4L63.6366 60.624V65.952L63.3006 65.48H67.8286V66.68H63.3006L63.6366 66.208V71.576L63.0206 70.8H68.7166V72H62.2686V60.2H68.7166V61.4H63.0206ZM72.3958 72L70.5238 60.2H71.9318L73.5238 71.416L73.3158 71.408L75.8358 60.2H77.6438L80.1558 71.408L79.9478 71.416L81.5398 60.2H82.9558L81.0678 72H78.9638L76.6598 61.352H76.8198L74.5078 72H72.3958ZM88.2646 72L91.5126 60.168H93.6406L96.8646 72H95.4566L92.5686 61.056H92.5846L89.6726 72H88.2646ZM89.9446 68.872V67.672H95.2086V68.872H89.9446ZM98.4874 72V60.2H99.8554V71.576L99.2394 70.8H104.511V72H98.4874ZM106.331 72V60.2H107.699V71.576L107.083 70.8H112.355V72H106.331Z" fill="white"/>
<path d="M45.8866 96H44.5186V84.2H47.8306C48.7426 84.2 49.5 84.3707 50.1026 84.712C50.7053 85.048 51.156 85.5013 51.4546 86.072C51.7533 86.6427 51.9026 87.2773 51.9026 87.976C51.9026 88.6747 51.748 89.32 51.4386 89.912C51.1346 90.504 50.6786 90.9813 50.0706 91.344C49.468 91.7013 48.7213 91.88 47.8306 91.88H45.8866V96ZM45.8866 91.376L45.2706 90.68H47.6626C48.3026 90.68 48.8333 90.568 49.2546 90.344C49.6813 90.1147 49.9986 89.7973 50.2066 89.392C50.42 88.9867 50.5266 88.5147 50.5266 87.976C50.5266 87.432 50.4253 86.968 50.2226 86.584C50.02 86.2 49.708 85.9067 49.2866 85.704C48.8653 85.5013 48.324 85.4 47.6626 85.4H45.2706L45.8866 84.624V91.376ZM53.7218 96V84.2H57.8178C58.9004 84.2 59.7244 84.456 60.2898 84.968C60.8551 85.48 61.1378 86.2613 61.1378 87.312C61.1378 87.9413 61.0178 88.4773 60.7778 88.92C60.5431 89.3573 60.2578 89.696 59.9218 89.936C59.5911 90.176 59.2844 90.312 59.0018 90.344C59.2898 90.3653 59.5724 90.4453 59.8498 90.584C60.1324 90.7173 60.3671 90.9253 60.5538 91.208C60.7404 91.4907 60.8338 91.8693 60.8338 92.344C60.8338 92.7813 60.8338 93.2293 60.8338 93.688C60.8338 94.1413 60.8338 94.5893 60.8338 95.032C60.8338 95.2613 60.8524 95.4667 60.8898 95.648C60.9271 95.824 60.9698 95.9413 61.0178 96H59.6418C59.6044 95.9307 59.5671 95.8107 59.5298 95.64C59.4924 95.4693 59.4738 95.2667 59.4738 95.032C59.4738 94.6213 59.4738 94.2027 59.4738 93.776C59.4738 93.3493 59.4738 92.928 59.4738 92.512C59.4738 91.9893 59.3084 91.6 58.9778 91.344C58.6471 91.088 58.1804 90.96 57.5778 90.96H54.6738L55.0578 90.44V96H53.7218ZM55.0578 90.328L54.6738 89.76H57.5938C57.9884 89.76 58.3458 89.664 58.6658 89.472C58.9911 89.2747 59.2498 89.0027 59.4418 88.656C59.6391 88.304 59.7378 87.8933 59.7378 87.424C59.7378 86.6933 59.5458 86.1733 59.1618 85.864C58.7778 85.5547 58.2231 85.4 57.4978 85.4H54.6418L55.0578 84.808V90.328ZM67.6374 96.16C66.9494 96.16 66.3174 96.024 65.7414 95.752C65.1707 95.48 64.672 95.0853 64.2454 94.568C63.824 94.0453 63.496 93.408 63.2614 92.656C63.032 91.904 62.9174 91.048 62.9174 90.088C62.9174 89.128 63.032 88.2747 63.2614 87.528C63.496 86.776 63.824 86.144 64.2454 85.632C64.672 85.1147 65.1734 84.7227 65.7494 84.456C66.3254 84.1893 66.9547 84.056 67.6374 84.056C68.3254 84.056 68.9574 84.1893 69.5334 84.456C70.1094 84.7227 70.608 85.1147 71.0294 85.632C71.456 86.144 71.784 86.776 72.0134 87.528C72.248 88.2747 72.3654 89.128 72.3654 90.088C72.3654 91.048 72.248 91.904 72.0134 92.656C71.784 93.408 71.456 94.0453 71.0294 94.568C70.608 95.0853 70.1094 95.48 69.5334 95.752C68.9574 96.024 68.3254 96.16 67.6374 96.16ZM67.6374 94.928C68.2934 94.928 68.872 94.7493 69.3734 94.392C69.8747 94.0347 70.2667 93.4987 70.5494 92.784C70.832 92.064 70.9734 91.1653 70.9734 90.088C70.9734 89.0053 70.8294 88.1093 70.5414 87.4C70.2587 86.6907 69.8667 86.1627 69.3654 85.816C68.864 85.4693 68.288 85.296 67.6374 85.296C66.992 85.296 66.416 85.4693 65.9094 85.816C65.408 86.1627 65.0134 86.6907 64.7254 87.4C64.4427 88.1093 64.3014 89.0053 64.3014 90.088C64.3014 91.1707 64.4427 92.072 64.7254 92.792C65.0134 93.5067 65.408 94.0427 65.9094 94.4C66.416 94.752 66.992 94.928 67.6374 94.928ZM77.2679 96.16C76.4572 96.16 75.7985 96 75.2919 95.68C74.7852 95.3547 74.4145 94.904 74.1799 94.328C73.9452 93.7467 73.8279 93.0693 73.8279 92.296C73.8279 92.216 73.8279 92.1387 73.8279 92.064C73.8279 91.984 73.8279 91.9067 73.8279 91.832H75.1719C75.1719 91.88 75.1719 91.9333 75.1719 91.992C75.1719 92.0453 75.1719 92.1013 75.1719 92.16C75.1719 92.704 75.2412 93.184 75.3799 93.6C75.5185 94.016 75.7399 94.3413 76.0439 94.576C76.3532 94.8107 76.7612 94.928 77.2679 94.928C77.7692 94.928 78.1719 94.8107 78.4759 94.576C78.7799 94.3413 79.0012 94.008 79.1399 93.576C79.2785 93.1387 79.3479 92.624 79.3479 92.032V84.2H80.7079V92.208C80.7079 92.7787 80.6465 93.304 80.5239 93.784C80.4012 94.264 80.2039 94.6827 79.9319 95.04C79.6652 95.392 79.3132 95.6667 78.8759 95.864C78.4385 96.0613 77.9025 96.16 77.2679 96.16ZM83.7081 85.4L84.3241 84.624V89.952L83.9881 89.48H88.5161V90.68H83.9881L84.3241 90.208V95.576L83.7081 94.8H89.4041V96H82.9561V84.2H89.4041V85.4H83.7081ZM99.6045 91.896C99.6045 92.3707 99.5165 92.8587 99.3405 93.36C99.1645 93.856 98.8978 94.3173 98.5405 94.744C98.1885 95.1653 97.7432 95.5067 97.2045 95.768C96.6658 96.0293 96.0338 96.16 95.3085 96.16C94.3112 96.16 93.4632 95.9013 92.7645 95.384C92.0658 94.8613 91.5325 94.144 91.1645 93.232C90.8018 92.32 90.6205 91.2773 90.6205 90.104C90.6205 88.9253 90.8018 87.8827 91.1645 86.976C91.5325 86.064 92.0658 85.3493 92.7645 84.832C93.4632 84.3147 94.3112 84.056 95.3085 84.056C96.1405 84.056 96.8498 84.2267 97.4365 84.568C98.0232 84.9093 98.4898 85.344 98.8365 85.872C99.1832 86.4 99.4098 86.944 99.5165 87.504C99.5752 87.7867 99.6045 88.0533 99.6045 88.304H98.2365C98.2365 88.16 98.2232 87.9947 98.1965 87.808C98.1325 87.36 97.9778 86.9467 97.7325 86.568C97.4925 86.184 97.1698 85.8773 96.7645 85.648C96.3592 85.4133 95.8738 85.296 95.3085 85.296C94.6472 85.296 94.0685 85.4773 93.5725 85.84C93.0818 86.2027 92.6978 86.7413 92.4205 87.456C92.1485 88.1707 92.0125 89.0533 92.0125 90.104C92.0125 91.1547 92.1485 92.04 92.4205 92.76C92.6978 93.4747 93.0818 94.016 93.5725 94.384C94.0685 94.7467 94.6472 94.928 95.3085 94.928C95.7832 94.928 96.2018 94.8427 96.5645 94.672C96.9272 94.496 97.2312 94.264 97.4765 93.976C97.7272 93.6827 97.9165 93.3573 98.0445 93C98.1725 92.6373 98.2365 92.2693 98.2365 91.896H99.6045ZM107.59 85.4H104.182L104.494 84.624V96H103.134V84.624L103.518 85.4H100.046V84.2H107.59V85.4ZM112.915 96.16C112.099 96.16 111.4 96.032 110.819 95.776C110.243 95.5147 109.8 95.1227 109.491 94.6C109.181 94.0773 109.027 93.4267 109.027 92.648C109.027 92.5413 109.027 92.4507 109.027 92.376C109.027 92.3013 109.027 92.2107 109.027 92.104H110.395C110.395 92.2053 110.395 92.2907 110.395 92.36C110.395 92.4293 110.395 92.5173 110.395 92.624C110.395 93.44 110.608 94.0293 111.035 94.392C111.461 94.7493 112.083 94.928 112.899 94.928C113.741 94.928 114.379 94.784 114.811 94.496C115.243 94.208 115.459 93.7413 115.459 93.096C115.459 92.6427 115.333 92.2667 115.083 91.968C114.837 91.664 114.496 91.408 114.059 91.2C113.621 90.9867 113.112 90.792 112.531 90.616C111.875 90.4133 111.288 90.1573 110.771 89.848C110.259 89.5387 109.853 89.1573 109.555 88.704C109.261 88.2453 109.115 87.688 109.115 87.032C109.115 86.392 109.269 85.8507 109.579 85.408C109.893 84.9653 110.331 84.6293 110.891 84.4C111.451 84.1707 112.101 84.056 112.843 84.056C113.627 84.056 114.307 84.1787 114.883 84.424C115.464 84.664 115.912 85.032 116.227 85.528C116.547 86.0187 116.707 86.6373 116.707 87.384C116.707 87.5013 116.707 87.6027 116.707 87.688C116.707 87.768 116.707 87.8667 116.707 87.984H115.339C115.339 87.8827 115.339 87.792 115.339 87.712C115.339 87.632 115.339 87.5413 115.339 87.44C115.339 86.6613 115.128 86.1093 114.707 85.784C114.285 85.4533 113.672 85.288 112.867 85.288C112.093 85.288 111.496 85.424 111.075 85.696C110.653 85.968 110.443 86.4133 110.443 87.032C110.443 87.496 110.571 87.88 110.827 88.184C111.088 88.4827 111.443 88.7387 111.891 88.952C112.339 89.16 112.851 89.36 113.427 89.552C114.125 89.7813 114.725 90.0427 115.227 90.336C115.733 90.624 116.12 90.984 116.387 91.416C116.659 91.848 116.795 92.392 116.795 93.048C116.795 93.704 116.637 94.264 116.323 94.728C116.013 95.192 115.568 95.5467 114.987 95.792C114.411 96.0373 113.72 96.16 112.915 96.16Z" fill="white"/>
</svg>
